<?xml version="1.0" standalone="no"?>
<!DOCTYPE svg PUBLIC "-//W3C//DTD SVG 20010904//EN"
 "http://www.w3.org/TR/2001/REC-SVG-20010904/DTD/svg10.dtd">
<svg version="1.0" xmlns="http://www.w3.org/2000/svg"
 width="2160.000000pt" height="2160.000000pt" viewBox="0 0 2160.000000 2160.000000"
 preserveAspectRatio="xMidYMid meet">
<metadata>
Created by potrace 1.11, written by Peter Selinger 2001-2013
</metadata>
<g transform="translate(0.000000,2160.000000) scale(0.100000,-0.100000)"
fill="#000000" stroke="none">
<path d="M9577 19499 c-133 -9 -291 -33 -422 -64 -462 -109 -817 -346 -1307
-872 -286 -306 -389 -396 -516 -443 -92 -35 -196 -25 -487 48 -323 82 -386 93
-555 99 -213 8 -361 -23 -540 -112 -217 -109 -369 -271 -507 -540 -28 -55 -95
-203 -148 -330 -168 -399 -247 -538 -381 -672 -152 -153 -311 -192 -794 -193
-715 -1 -1049 -73 -1389 -298 -100 -66 -271 -227 -340 -321 -89 -120 -161
-287 -197 -453 -41 -194 -46 -272 -49 -753 -4 -582 -15 -680 -93 -830 -56
-107 -195 -239 -462 -440 -425 -319 -576 -515 -621 -805 -14 -91 -6 -308 16
-433 49 -275 147 -434 385 -627 190 -154 225 -211 224 -360 -1 -114 -15 -162
-146 -490 -212 -529 -269 -753 -269 -1044 0 -219 35 -375 122 -553 161 -326
429 -524 814 -602 146 -29 266 -40 575 -51 290 -11 407 -21 504 -46 208 -54
307 -181 466 -599 137 -362 251 -559 421 -732 151 -152 294 -253 511 -358 300
-145 587 -205 985 -205 l192 0 -25 -67 c-40 -106 -130 -417 -154 -533 -55
-268 -76 -554 -66 -910 17 -652 136 -1150 346 -1454 69 -101 191 -215 281
-265 215 -118 565 -127 880 -21 224 75 477 239 664 429 27 28 57 51 67 51 21
0 208 163 448 391 358 341 888 928 1280 1419 46 58 89 112 97 121 11 14 1 26
-88 99 -229 190 -402 417 -518 682 l-34 77 31 188 c57 339 99 748 118 1156 l7
149 36 -7 c60 -10 162 -46 232 -81 140 -70 262 -191 424 -419 243 -343 563
-657 819 -804 171 -98 281 -127 444 -118 128 7 224 32 347 92 172 83 301 189
707 578 275 263 371 344 518 440 178 115 325 184 683 324 257 99 360 147 445
203 79 53 160 141 196 215 16 33 31 62 32 63 1 2 58 -6 126 -19 167 -30 377
-32 498 -4 47 11 88 20 92 20 3 0 42 -70 85 -155 106 -211 179 -316 298 -435
107 -108 184 -155 310 -190 86 -23 281 -29 382 -12 l83 14 169 -256 c374 -569
819 -1290 1130 -1830 91 -160 109 -197 99 -209 -7 -8 -80 -65 -163 -127 -683
-512 -1524 -909 -2385 -1124 -1034 -260 -2015 -287 -2715 -76 -350 105 -613
249 -789 429 -69 71 -69 71 -62 36 9 -50 82 -198 166 -336 197 -325 445 -626
682 -829 150 -129 217 -171 317 -201 48 -14 203 -62 346 -106 l260 -80 340 5
c358 6 552 21 910 72 547 79 1067 205 1381 336 578 240 1305 744 1881 1302 83
81 124 114 129 106 14 -23 17 -165 4 -205 -18 -56 -66 -128 -95 -144 -14 -7
-25 -19 -25 -26 0 -7 -19 -28 -42 -47 -128 -103 -1495 -1092 -2398 -1733
-1114 -791 -1346 -950 -2015 -1374 -176 -111 -356 -228 -400 -258 -294 -204
-495 -405 -678 -676 -69 -102 -167 -266 -167 -278 0 -4 751 -8 1669 -8 l1669
0 22 67 c38 117 79 182 170 274 108 108 230 189 445 294 366 179 687 285 1457
479 728 184 1126 325 1653 585 508 251 856 492 1181 816 477 476 688 945 688
1530 0 197 -11 287 -66 555 -178 870 -510 1887 -907 2781 -50 113 -91 211 -91
217 0 7 14 12 31 12 55 0 224 39 330 76 317 110 581 328 713 589 57 113 71
180 71 340 -1 206 -31 326 -190 760 -165 451 -198 586 -198 800 0 225 34 317
276 762 306 563 382 763 394 1035 9 196 -18 321 -104 493 -82 162 -146 234
-483 544 -650 597 -829 844 -895 1236 -20 115 -23 392 -6 545 26 238 -2 447
-85 636 -45 103 -147 244 -240 334 -259 249 -643 408 -1130 465 -71 8 -280 20
-464 25 -476 14 -669 44 -859 136 -76 37 -109 61 -170 123 -101 101 -150 196
-246 483 -42 122 -91 253 -110 291 -103 203 -279 347 -510 420 -129 40 -218
52 -385 51 -231 -1 -411 -37 -688 -138 -262 -96 -398 -121 -605 -114 -152 6
-251 28 -387 87 -219 94 -438 288 -617 546 -233 336 -374 492 -630 698 -276
222 -653 411 -948 476 -193 42 -425 51 -575 21 -33 -6 -49 -5 -60 5 -85 74
-371 143 -680 165 -161 11 -243 11 -403 -1z m-1789 -3155 c16 -11 22 -25 22
-54 0 -61 -54 -90 -98 -52 -32 26 -37 63 -12 95 24 30 55 34 88 11z m1872
-254 c42 -42 11 -113 -50 -113 -61 0 -91 67 -50 111 26 28 73 29 100 2z
m-3573 -823 c114 -47 184 -91 269 -171 90 -83 164 -193 201 -298 16 -43 34
-78 41 -78 7 0 75 16 151 35 342 87 560 83 769 -15 232 -109 477 -380 598
-663 64 -149 111 -332 119 -462 l4 -72 -27 5 c-18 4 -22 7 -12 11 24 10 24 64
0 79 -12 7 -20 8 -20 2 0 -5 5 -10 10 -10 32 0 -31 -60 -79 -75 -20 -6 -23 -4
-18 9 4 9 1 16 -6 16 -7 0 -1 9 13 20 l25 20 -43 -2 c-29 -1 -47 -7 -56 -19
-7 -11 -22 -17 -38 -15 -15 2 -32 -1 -40 -5 -8 -6 -2 -9 20 -9 21 0 31 -4 26
-11 -3 -6 -15 -9 -25 -6 -10 3 -22 1 -25 -4 -3 -5 2 -9 10 -9 9 0 16 -9 16
-20 0 -23 -48 -59 -58 -43 -8 12 -73 35 -80 28 -3 -3 11 -12 31 -20 42 -17 44
-22 20 -41 -15 -10 -21 -10 -35 3 -12 11 -25 13 -45 7 -26 -7 -27 -8 -5 -11
26 -5 30 -22 5 -25 -10 0 -23 -2 -30 -2 -6 -1 -21 -13 -32 -28 -20 -26 -21
-26 -1 -31 20 -5 29 -37 10 -37 -5 0 -10 7 -10 15 0 8 -5 15 -11 15 -6 0 -9
-6 -7 -12 2 -7 -11 -29 -30 -48 -18 -19 -30 -27 -26 -17 5 14 2 16 -12 11 -11
-4 -23 -11 -29 -15 -5 -4 -26 -10 -46 -14 -24 -4 -41 -15 -49 -31 -16 -28 -25
-30 -34 -8 -4 9 -13 14 -21 10 -8 -3 -15 -2 -15 3 0 16 -51 -2 -65 -22 -8 -12
-15 -16 -15 -8 0 7 -6 11 -12 9 -7 -3 -24 1 -37 8 -17 9 -27 10 -32 3 -4 -7
-8 -5 -12 5 -4 9 1 16 11 19 11 3 6 7 -16 12 -26 6 -31 11 -27 27 7 20 -13 22
-27 3 -5 -7 -14 -6 -28 3 -11 6 -28 12 -38 12 -10 0 -23 5 -29 11 -8 8 -13 8
-18 0 -3 -6 3 -15 16 -19 19 -7 20 -10 6 -15 -10 -4 -17 -2 -17 4 0 7 -11 9
-25 7 -13 -3 -22 -1 -19 3 11 19 -13 8 -46 -21 -40 -34 -43 -35 -60 -15 -7 8
-19 15 -26 15 -8 0 -14 7 -14 16 0 16 8 16 55 -1 17 -6 17 -5 -3 10 -17 12
-33 15 -65 10 -39 -6 -41 -6 -21 9 11 8 33 18 47 21 36 9 34 20 -4 22 -21 2
-37 -4 -48 -17 -13 -16 -19 -17 -32 -7 -31 23 -27 41 13 60 54 27 41 32 -26 9
-31 -10 -56 -15 -56 -10 0 4 -7 8 -15 8 -18 0 -19 -12 -4 -27 7 -7 3 -12 -15
-15 -28 -6 -35 9 -14 30 9 9 7 12 -11 12 -12 0 -20 -4 -17 -8 3 -5 -8 -9 -25
-10 -37 -1 -47 -8 -31 -24 16 -16 15 -28 -3 -28 -10 0 -15 -10 -15 -28 0 -31
-24 -39 -47 -16 -16 15 0 29 22 20 29 -11 14 3 -20 20 -33 15 -37 15 -61 -1
-28 -18 -40 -15 -30 11 4 10 12 14 22 10 10 -4 14 -1 11 6 -2 7 -12 12 -21 11
-13 -1 -16 4 -12 20 3 12 8 45 11 72 12 88 73 309 151 543 125 374 143 466
109 532 -18 35 -70 54 -120 44 -51 -9 -144 -74 -197 -137 -151 -176 -225 -353
-363 -869 -58 -215 -72 -258 -87 -258 -10 0 -18 -5 -18 -11 0 -5 5 -7 10 -4
16 10 12 -31 -5 -45 -8 -7 -13 -16 -10 -20 10 -17 -13 -56 -34 -57 -12 -1 -21
4 -20 10 1 7 1 18 0 26 -2 25 -14 3 -16 -30 -2 -17 -8 -35 -15 -39 -7 -5 -9
-13 -5 -21 6 -9 3 -11 -8 -6 -10 3 -17 2 -17 -3 0 -5 -7 -7 -16 -3 -10 4 -17
-1 -21 -16 -6 -22 -19 -26 -41 -13 -7 5 -10 16 -6 27 6 15 4 16 -11 7 -16 -8
-26 -3 -61 32 -120 122 -146 349 -68 590 88 275 175 445 418 827 l67 105 162
13 c89 7 179 16 200 19 l39 7 -46 90 c-49 99 -118 183 -198 242 -28 21 -115
70 -192 108 -140 70 -185 107 -173 139 10 26 74 19 164 -17z m1980 -1701 c-5
-16 -27 -19 -27 -3 0 7 7 14 15 14 9 0 14 -5 12 -11z m-51 -31 c-10 -31 -12
-32 -19 -13 -4 12 -3 26 4 34 20 24 26 15 15 -21z m104 -9 c0 -16 -27 -46 -41
-46 -5 0 -4 10 3 23 7 12 11 25 10 30 -1 4 5 7 13 7 8 0 15 -6 15 -14z m79
-37 c-16 -10 -23 -4 -14 10 3 6 11 8 17 5 6 -4 5 -9 -3 -15z m-118 -88 c-14
-25 -21 -26 -47 -7 -18 14 -18 14 9 12 22 -3 27 1 27 17 0 15 3 18 11 10 8 -8
8 -17 0 -32z m-261 -8 c0 -14 -28 -29 -47 -25 -18 3 -21 8 -13 17 9 11 60 18
60 8z m-996 -31 c3 -5 -1 -9 -9 -9 -8 0 -12 4 -9 9 3 4 7 8 9 8 2 0 6 -4 9 -8z
m-310 -117 c-4 -8 -8 -15 -10 -15 -2 0 -4 7 -4 15 0 8 4 15 10 15 5 0 7 -7 4
-15z m206 -15 c0 -5 -2 -10 -4 -10 -3 0 -8 5 -11 10 -3 6 -1 10 4 10 6 0 11
-4 11 -10z m330 0 c0 -13 -11 -13 -30 0 -12 8 -11 10 8 10 12 0 22 -4 22 -10z
m191 -13 c-10 -9 -11 -8 -5 6 3 10 9 15 12 12 3 -3 0 -11 -7 -18z m-575 -13
c-4 -11 -1 -14 12 -11 54 15 73 17 67 7 -3 -5 -17 -10 -31 -10 -13 0 -24 -5
-24 -11 0 -8 -14 -10 -45 -6 -25 4 -47 2 -50 -3 -8 -13 -75 -13 -75 0 0 6 6
10 13 9 24 -3 62 3 50 8 -28 11 -11 20 23 13 27 -6 37 -5 41 6 3 8 10 14 15
14 6 0 7 -7 4 -16z m-706 -52 c0 -20 -28 -45 -44 -39 -14 6 -14 10 -4 27 12
19 48 28 48 12z m795 -2 c3 -5 1 -10 -4 -10 -6 0 -11 5 -11 10 0 6 2 10 4 10
3 0 8 -4 11 -10z m-64 -17 c13 -15 11 -16 -11 -10 -14 4 -32 7 -40 7 -13 0
-13 1 0 10 22 14 36 12 51 -7z m155 0 c-3 -7 2 -17 11 -22 12 -6 6 -10 -26
-13 -42 -4 -42 -4 -19 14 13 10 17 18 11 18 -22 0 -14 16 7 16 12 0 19 -5 16
-13z m34 7 c0 -5 -5 -10 -11 -10 -5 0 -7 5 -4 10 3 6 8 10 11 10 2 0 4 -4 4
-10z m-120 -54 c0 -2 -7 -7 -16 -10 -8 -3 -12 -2 -9 4 6 10 25 14 25 6z"/>
<path d="M7953 13855 c-29 -19 -59 -35 -68 -35 -8 0 -15 -4 -15 -9 0 -21 66 9
123 56 43 35 18 27 -40 -12z"/>
<path d="M7836 13785 c-11 -8 -17 -17 -14 -20 2 -3 13 4 23 15 21 23 18 25 -9
5z"/>
<path d="M7980 13620 c0 -5 7 -7 15 -4 8 4 15 8 15 10 0 2 -7 4 -15 4 -8 0
-15 -4 -15 -10z"/>
<path d="M7600 13430 c0 -5 5 -10 11 -10 5 0 7 5 4 10 -3 6 -8 10 -11 10 -2 0
-4 -4 -4 -10z"/>
<path d="M7710 13429 c0 -5 5 -7 10 -4 6 3 10 8 10 11 0 2 -4 4 -10 4 -5 0
-10 -5 -10 -11z"/>
<path d="M7478 13423 c7 -3 16 -2 19 1 4 3 -2 6 -13 5 -11 0 -14 -3 -6 -6z"/>
<path d="M7568 13402 c-16 -3 -16 -5 -3 -18 18 -18 46 -15 53 6 3 8 1 12 -3 8
-5 -4 -13 -4 -19 0 -6 5 -19 7 -28 4z"/>
<path d="M6578 13378 c-16 -5 -28 -14 -28 -18 0 -5 14 -4 30 1 17 6 30 15 30
20 0 5 -1 9 -2 8 -2 0 -15 -5 -30 -11z"/>
<path d="M7468 13354 c-21 -19 -42 -33 -48 -29 -5 3 -10 1 -10 -4 0 -20 31
-11 55 15 14 15 36 27 49 27 17 0 23 4 19 13 -8 22 -26 16 -65 -22z"/>
<path d="M7658 13376 c-19 -14 -25 -46 -9 -46 5 0 11 9 14 20 3 11 11 19 17
18 7 -2 15 3 17 10 6 16 -17 15 -39 -2z"/>
<path d="M6860 13366 c0 -9 7 -16 16 -16 9 0 14 5 12 12 -6 18 -28 21 -28 4z"/>
<path d="M7450 13369 c0 -5 5 -7 10 -4 6 3 10 8 10 11 0 2 -4 4 -10 4 -5 0
-10 -5 -10 -11z"/>
<path d="M6607 13363 c-20 -5 -18 -25 4 -31 11 -3 11 -2 -1 7 -13 9 -13 11 3
11 9 0 17 5 17 10 0 6 -1 9 -2 9 -2 -1 -11 -3 -21 -6z"/>
<path d="M7536 13335 c4 -8 1 -15 -7 -15 -7 0 -10 -3 -7 -6 8 -8 48 14 48 26
0 6 -9 10 -20 10 -13 0 -18 -5 -14 -15z"/>
<path d="M7497 13333 c-4 -3 -7 -11 -7 -17 0 -6 5 -5 12 2 6 6 9 14 7 17 -3 3
-9 2 -12 -2z"/>
<path d="M7685 13330 c-3 -5 1 -10 9 -10 9 0 16 5 16 10 0 6 -4 10 -9 10 -6 0
-13 -4 -16 -10z"/>
<path d="M7065 13320 c-3 -5 -1 -10 4 -10 6 0 11 5 11 10 0 6 -2 10 -4 10 -3
0 -8 -4 -11 -10z"/>
<path d="M6990 13309 c0 -5 5 -7 10 -4 6 3 10 8 10 11 0 2 -4 4 -10 4 -5 0
-10 -5 -10 -11z"/>
<path d="M7017 13301 c-4 -17 -3 -21 5 -13 5 5 8 16 6 23 -3 8 -7 3 -11 -10z"/>
<path d="M7510 13287 c14 -8 27 -12 30 -10 7 6 -23 23 -40 23 -8 0 -4 -6 10
-13z"/>
<path d="M7295 13270 c3 -5 12 -10 20 -10 7 0 16 -9 20 -19 8 -26 52 -34 58
-11 3 13 0 16 -14 13 -21 -6 -52 14 -43 28 3 5 -7 9 -21 9 -15 0 -24 -4 -20
-10z"/>
<path d="M5902 13262 c-10 -3 -8 -8 5 -18 22 -17 37 -18 27 -2 -5 8 -2 9 10 5
9 -4 15 -3 12 2 -7 11 -38 19 -54 13z"/>
<path d="M7355 13260 c-3 -5 -1 -10 4 -10 6 0 11 5 11 10 0 6 -2 10 -4 10 -3
0 -8 -4 -11 -10z"/>
<path d="M5853 13182 c-8 -5 -8 -13 1 -31 13 -24 13 -24 12 8 0 17 -1 31 -1
31 0 0 -5 -4 -12 -8z"/>
<path d="M5790 13140 c0 -5 5 -10 11 -10 6 0 9 -9 6 -20 -3 -11 -2 -20 3 -20
15 0 18 26 5 43 -14 19 -25 22 -25 7z"/>
</g>
</svg>
