<svg width="509" height="113" viewBox="0 0 509 113" fill="none" xmlns="http://www.w3.org/2000/svg">
<line x1="0.0357132" y1="87.5001" x2="504.036" y2="91.5001" stroke="black" stroke-opacity="0.29" stroke-width="9"/>
<line x1="3.11634" y1="35.5015" x2="235.116" y2="41.5015" stroke="#F638DC" stroke-width="9"/>
<line x1="235.116" y1="41.5015" x2="467.116" y2="47.5015" stroke="#C83660" stroke-width="9"/>
<line x1="2" y1="40" x2="2" y2="89" stroke="black" stroke-width="4"/>
<line x1="360" y1="40" x2="360" y2="89" stroke="black" stroke-width="4"/>
<line x1="234" y1="40" x2="234" y2="89" stroke="black" stroke-width="4"/>
<path d="M25.106 17.17C23.9047 17.17 22.8167 16.9093 21.842 16.388C20.8787 15.8553 20.1193 15.1243 19.564 14.195C19.02 13.2657 18.748 12.2173 18.748 11.05C18.748 9.88267 19.0257 8.83433 19.581 7.905C20.1363 6.97567 20.8957 6.25033 21.859 5.729C22.8337 5.19633 23.9217 4.93 25.123 4.93C26.0977 4.93 26.9873 5.1 27.792 5.44C28.5967 5.78 29.2767 6.273 29.832 6.919L28.404 8.262C27.5427 7.33267 26.483 6.868 25.225 6.868C24.409 6.868 23.678 7.04933 23.032 7.412C22.386 7.76333 21.8817 8.25633 21.519 8.891C21.1563 9.52567 20.975 10.2453 20.975 11.05C20.975 11.8547 21.1563 12.5743 21.519 13.209C21.8817 13.8437 22.386 14.3423 23.032 14.705C23.678 15.0563 24.409 15.232 25.225 15.232C26.483 15.232 27.5427 14.7617 28.404 13.821L29.832 15.181C29.2767 15.827 28.591 16.32 27.775 16.66C26.9703 17 26.0807 17.17 25.106 17.17ZM33.7686 9.248C34.3806 8.296 35.4572 7.82 36.9986 7.82V9.843C36.8172 9.809 36.6529 9.792 36.5056 9.792C35.6782 9.792 35.0322 10.0357 34.5676 10.523C34.1029 10.999 33.8706 11.6903 33.8706 12.597V17H31.7456V7.922H33.7686V9.248ZM42.7982 17.119C41.8802 17.119 41.0529 16.9207 40.3162 16.524C39.5796 16.1273 39.0016 15.5777 38.5822 14.875C38.1742 14.161 37.9702 13.3563 37.9702 12.461C37.9702 11.5657 38.1742 10.7667 38.5822 10.064C39.0016 9.36133 39.5796 8.81167 40.3162 8.415C41.0529 8.01833 41.8802 7.82 42.7982 7.82C43.7276 7.82 44.5606 8.01833 45.2972 8.415C46.0339 8.81167 46.6062 9.36133 47.0142 10.064C47.4336 10.7667 47.6432 11.5657 47.6432 12.461C47.6432 13.3563 47.4336 14.161 47.0142 14.875C46.6062 15.5777 46.0339 16.1273 45.2972 16.524C44.5606 16.9207 43.7276 17.119 42.7982 17.119ZM42.7982 15.3C43.5802 15.3 44.2262 15.0393 44.7362 14.518C45.2462 13.9967 45.5012 13.311 45.5012 12.461C45.5012 11.611 45.2462 10.9253 44.7362 10.404C44.2262 9.88267 43.5802 9.622 42.7982 9.622C42.0162 9.622 41.3702 9.88267 40.8602 10.404C40.3616 10.9253 40.1122 11.611 40.1122 12.461C40.1122 13.311 40.3616 13.9967 40.8602 14.518C41.3702 15.0393 42.0162 15.3 42.7982 15.3ZM57.9262 7.922L53.6762 17.731C53.2796 18.717 52.7979 19.4083 52.2312 19.805C51.6646 20.213 50.9789 20.417 50.1742 20.417C49.7209 20.417 49.2732 20.3433 48.8312 20.196C48.3892 20.0487 48.0266 19.8447 47.7432 19.584L48.5932 18.02C48.7972 18.2127 49.0352 18.3657 49.3072 18.479C49.5906 18.5923 49.8739 18.649 50.1572 18.649C50.5312 18.649 50.8372 18.5527 51.0752 18.36C51.3246 18.1673 51.5512 17.8443 51.7552 17.391L51.9082 17.034L47.9472 7.922H50.1572L53.0132 14.637L55.8862 7.922H57.9262ZM67.8963 4.386V17H65.8563V15.827C65.505 16.2577 65.0687 16.5807 64.5473 16.796C64.0373 17.0113 63.4707 17.119 62.8473 17.119C61.9747 17.119 61.187 16.9263 60.4843 16.541C59.793 16.1557 59.249 15.6117 58.8523 14.909C58.4557 14.195 58.2573 13.379 58.2573 12.461C58.2573 11.543 58.4557 10.7327 58.8523 10.03C59.249 9.32733 59.793 8.78333 60.4843 8.398C61.187 8.01267 61.9747 7.82 62.8473 7.82C63.448 7.82 63.9977 7.922 64.4963 8.126C64.995 8.33 65.42 8.636 65.7713 9.044V4.386H67.8963ZM63.1023 15.3C63.6123 15.3 64.0713 15.1867 64.4793 14.96C64.8873 14.722 65.2103 14.3877 65.4483 13.957C65.6863 13.5263 65.8053 13.0277 65.8053 12.461C65.8053 11.8943 65.6863 11.3957 65.4483 10.965C65.2103 10.5343 64.8873 10.2057 64.4793 9.979C64.0713 9.741 63.6123 9.622 63.1023 9.622C62.5923 9.622 62.1333 9.741 61.7253 9.979C61.3173 10.2057 60.9943 10.5343 60.7563 10.965C60.5183 11.3957 60.3993 11.8943 60.3993 12.461C60.3993 13.0277 60.5183 13.5263 60.7563 13.957C60.9943 14.3877 61.3173 14.722 61.7253 14.96C62.1333 15.1867 62.5923 15.3 63.1023 15.3ZM74.7562 17.119C73.8382 17.119 73.0109 16.9207 72.2742 16.524C71.5376 16.1273 70.9596 15.5777 70.5402 14.875C70.1322 14.161 69.9282 13.3563 69.9282 12.461C69.9282 11.5657 70.1322 10.7667 70.5402 10.064C70.9596 9.36133 71.5376 8.81167 72.2742 8.415C73.0109 8.01833 73.8382 7.82 74.7562 7.82C75.6856 7.82 76.5186 8.01833 77.2552 8.415C77.9919 8.81167 78.5642 9.36133 78.9722 10.064C79.3916 10.7667 79.6012 11.5657 79.6012 12.461C79.6012 13.3563 79.3916 14.161 78.9722 14.875C78.5642 15.5777 77.9919 16.1273 77.2552 16.524C76.5186 16.9207 75.6856 17.119 74.7562 17.119ZM74.7562 15.3C75.5382 15.3 76.1842 15.0393 76.6942 14.518C77.2042 13.9967 77.4592 13.311 77.4592 12.461C77.4592 11.611 77.2042 10.9253 76.6942 10.404C76.1842 9.88267 75.5382 9.622 74.7562 9.622C73.9742 9.622 73.3282 9.88267 72.8182 10.404C72.3196 10.9253 72.0702 11.611 72.0702 12.461C72.0702 13.311 72.3196 13.9967 72.8182 14.518C73.3282 15.0393 73.9742 15.3 74.7562 15.3ZM86.7843 7.82C87.9289 7.82 88.8469 8.15433 89.5383 8.823C90.2296 9.49167 90.5753 10.4833 90.5753 11.798V17H88.4503V12.07C88.4503 11.2767 88.2633 10.6817 87.8893 10.285C87.5153 9.877 86.9826 9.673 86.2913 9.673C85.5093 9.673 84.8916 9.911 84.4383 10.387C83.9849 10.8517 83.7583 11.526 83.7583 12.41V17H81.6333V7.922H83.6563V9.095C84.0076 8.67567 84.4496 8.35833 84.9823 8.143C85.5149 7.92767 86.1156 7.82 86.7843 7.82ZM103.681 17.17C102.48 17.17 101.392 16.9093 100.417 16.388C99.4539 15.8553 98.6945 15.1243 98.1392 14.195C97.5952 13.2657 97.3232 12.2173 97.3232 11.05C97.3232 9.88267 97.6009 8.83433 98.1562 7.905C98.7115 6.97567 99.4709 6.25033 100.434 5.729C101.409 5.19633 102.497 4.93 103.698 4.93C104.673 4.93 105.563 5.1 106.367 5.44C107.172 5.78 107.852 6.273 108.407 6.919L106.979 8.262C106.118 7.33267 105.058 6.868 103.8 6.868C102.984 6.868 102.253 7.04933 101.607 7.412C100.961 7.76333 100.457 8.25633 100.094 8.891C99.7315 9.52567 99.5502 10.2453 99.5502 11.05C99.5502 11.8547 99.7315 12.5743 100.094 13.209C100.457 13.8437 100.961 14.3423 101.607 14.705C102.253 15.0563 102.984 15.232 103.8 15.232C105.058 15.232 106.118 14.7617 106.979 13.821L108.407 15.181C107.852 15.827 107.166 16.32 106.35 16.66C105.546 17 104.656 17.17 103.681 17.17ZM114.069 17.119C113.151 17.119 112.323 16.9207 111.587 16.524C110.85 16.1273 110.272 15.5777 109.853 14.875C109.445 14.161 109.241 13.3563 109.241 12.461C109.241 11.5657 109.445 10.7667 109.853 10.064C110.272 9.36133 110.85 8.81167 111.587 8.415C112.323 8.01833 113.151 7.82 114.069 7.82C114.998 7.82 115.831 8.01833 116.568 8.415C117.304 8.81167 117.877 9.36133 118.285 10.064C118.704 10.7667 118.914 11.5657 118.914 12.461C118.914 13.3563 118.704 14.161 118.285 14.875C117.877 15.5777 117.304 16.1273 116.568 16.524C115.831 16.9207 114.998 17.119 114.069 17.119ZM114.069 15.3C114.851 15.3 115.497 15.0393 116.007 14.518C116.517 13.9967 116.772 13.311 116.772 12.461C116.772 11.611 116.517 10.9253 116.007 10.404C115.497 9.88267 114.851 9.622 114.069 9.622C113.287 9.622 112.641 9.88267 112.131 10.404C111.632 10.9253 111.383 11.611 111.383 12.461C111.383 13.311 111.632 13.9967 112.131 14.518C112.641 15.0393 113.287 15.3 114.069 15.3ZM129.735 7.922V17H127.712V15.844C127.372 16.252 126.947 16.5693 126.437 16.796C125.927 17.0113 125.377 17.119 124.788 17.119C123.575 17.119 122.617 16.7847 121.915 16.116C121.223 15.436 120.878 14.433 120.878 13.107V7.922H123.003V12.818C123.003 13.634 123.184 14.246 123.547 14.654C123.921 15.0507 124.448 15.249 125.128 15.249C125.887 15.249 126.488 15.0167 126.93 14.552C127.383 14.076 127.61 13.396 127.61 12.512V7.922H129.735ZM137.668 7.82C138.813 7.82 139.731 8.15433 140.422 8.823C141.113 9.49167 141.459 10.4833 141.459 11.798V17H139.334V12.07C139.334 11.2767 139.147 10.6817 138.773 10.285C138.399 9.877 137.866 9.673 137.175 9.673C136.393 9.673 135.775 9.911 135.322 10.387C134.869 10.8517 134.642 11.526 134.642 12.41V17H132.517V7.922H134.54V9.095C134.891 8.67567 135.333 8.35833 135.866 8.143C136.399 7.92767 136.999 7.82 137.668 7.82ZM148.403 17.119C147.462 17.119 146.618 16.9207 145.87 16.524C145.122 16.1273 144.538 15.5777 144.119 14.875C143.699 14.161 143.49 13.3563 143.49 12.461C143.49 11.5657 143.699 10.7667 144.119 10.064C144.538 9.36133 145.116 8.81167 145.853 8.415C146.601 8.01833 147.451 7.82 148.403 7.82C149.298 7.82 150.08 8.00133 150.749 8.364C151.429 8.72667 151.939 9.248 152.279 9.928L150.647 10.88C150.386 10.4607 150.057 10.149 149.661 9.945C149.275 9.72967 148.85 9.622 148.386 9.622C147.592 9.622 146.935 9.88267 146.414 10.404C145.892 10.914 145.632 11.5997 145.632 12.461C145.632 13.3223 145.887 14.0137 146.397 14.535C146.918 15.045 147.581 15.3 148.386 15.3C148.85 15.3 149.275 15.198 149.661 14.994C150.057 14.7787 150.386 14.4613 150.647 14.042L152.279 14.994C151.927 15.674 151.412 16.201 150.732 16.575C150.063 16.9377 149.287 17.119 148.403 17.119ZM154.116 7.922H156.241V17H154.116V7.922ZM155.187 6.426C154.801 6.426 154.478 6.307 154.218 6.069C153.957 5.81967 153.827 5.51367 153.827 5.151C153.827 4.78833 153.957 4.488 154.218 4.25C154.478 4.00067 154.801 3.876 155.187 3.876C155.572 3.876 155.895 3.995 156.156 4.233C156.416 4.45967 156.547 4.74867 156.547 5.1C156.547 5.474 156.416 5.79133 156.156 6.052C155.906 6.30133 155.583 6.426 155.187 6.426ZM159.03 4.386H161.155V17H159.03V4.386Z" fill="white"/>
<path d="M101.942 103.9H98.933V106.875H97.114V103.9H94.105V102.2H97.114V99.225H98.933V102.2H101.942V103.9ZM112.145 107.13V109H103.373V107.521L108.099 103.033C108.632 102.523 108.989 102.081 109.17 101.707C109.363 101.322 109.459 100.942 109.459 100.568C109.459 100.013 109.272 99.5877 108.898 99.293C108.524 98.9983 107.975 98.851 107.249 98.851C106.037 98.851 105.107 99.2647 104.461 100.092L102.914 98.902C103.379 98.2787 104.002 97.797 104.784 97.457C105.578 97.1057 106.462 96.93 107.436 96.93C108.728 96.93 109.76 97.236 110.53 97.848C111.301 98.46 111.686 99.293 111.686 100.347C111.686 100.993 111.55 101.599 111.278 102.166C111.006 102.733 110.485 103.379 109.714 104.104L106.535 107.13H112.145ZM118.335 109.17C117.383 109.17 116.533 108.932 115.785 108.456C115.037 107.969 114.448 107.266 114.017 106.348C113.586 105.419 113.371 104.319 113.371 103.05C113.371 101.781 113.586 100.687 114.017 99.769C114.448 98.8397 115.037 98.137 115.785 97.661C116.533 97.1737 117.383 96.93 118.335 96.93C119.287 96.93 120.137 97.1737 120.885 97.661C121.644 98.137 122.239 98.8397 122.67 99.769C123.101 100.687 123.316 101.781 123.316 103.05C123.316 104.319 123.101 105.419 122.67 106.348C122.239 107.266 121.644 107.969 120.885 108.456C120.137 108.932 119.287 109.17 118.335 109.17ZM118.335 107.249C119.185 107.249 119.854 106.898 120.341 106.195C120.84 105.492 121.089 104.444 121.089 103.05C121.089 101.656 120.84 100.608 120.341 99.905C119.854 99.2023 119.185 98.851 118.335 98.851C117.496 98.851 116.828 99.2023 116.329 99.905C115.842 100.608 115.598 101.656 115.598 103.05C115.598 104.444 115.842 105.492 116.329 106.195C116.828 106.898 117.496 107.249 118.335 107.249ZM128.841 97.1V109H126.631V98.953H124.115V97.1H128.841ZM136.607 101.656C137.389 101.656 138.092 101.809 138.715 102.115C139.338 102.41 139.826 102.835 140.177 103.39C140.528 103.945 140.704 104.586 140.704 105.311C140.704 106.082 140.511 106.762 140.126 107.351C139.741 107.929 139.219 108.377 138.562 108.694C137.905 109.011 137.168 109.17 136.352 109.17C134.72 109.17 133.451 108.66 132.544 107.64C131.649 106.62 131.201 105.158 131.201 103.254C131.201 101.917 131.445 100.778 131.932 99.837C132.419 98.885 133.099 98.1653 133.972 97.678C134.856 97.1793 135.876 96.93 137.032 96.93C137.644 96.93 138.216 96.998 138.749 97.134C139.293 97.2587 139.763 97.4457 140.16 97.695L139.344 99.361C138.755 98.9757 138.001 98.783 137.083 98.783C135.938 98.783 135.043 99.1343 134.397 99.837C133.751 100.54 133.428 101.554 133.428 102.88V102.897C133.779 102.489 134.227 102.183 134.771 101.979C135.315 101.764 135.927 101.656 136.607 101.656ZM136.233 107.436C136.924 107.436 137.485 107.255 137.916 106.892C138.347 106.518 138.562 106.025 138.562 105.413C138.562 104.79 138.347 104.297 137.916 103.934C137.485 103.571 136.907 103.39 136.182 103.39C135.468 103.39 134.884 103.583 134.431 103.968C133.989 104.353 133.768 104.841 133.768 105.43C133.768 106.008 133.983 106.49 134.414 106.875C134.856 107.249 135.462 107.436 136.233 107.436ZM146.745 103.39H151.42V105.158H146.745V103.39ZM161.469 107.13V109H152.697V107.521L157.423 103.033C157.955 102.523 158.312 102.081 158.494 101.707C158.686 101.322 158.783 100.942 158.783 100.568C158.783 100.013 158.596 99.5877 158.222 99.293C157.848 98.9983 157.298 98.851 156.573 98.851C155.36 98.851 154.431 99.2647 153.785 100.092L152.238 98.902C152.702 98.2787 153.326 97.797 154.108 97.457C154.901 97.1057 155.785 96.93 156.76 96.93C158.052 96.93 159.083 97.236 159.854 97.848C160.624 98.46 161.01 99.293 161.01 100.347C161.01 100.993 160.874 101.599 160.602 102.166C160.33 102.733 159.808 103.379 159.038 104.104L155.859 107.13H161.469ZM167.658 109.17C166.706 109.17 165.856 108.932 165.108 108.456C164.36 107.969 163.771 107.266 163.34 106.348C162.91 105.419 162.694 104.319 162.694 103.05C162.694 101.781 162.91 100.687 163.34 99.769C163.771 98.8397 164.36 98.137 165.108 97.661C165.856 97.1737 166.706 96.93 167.658 96.93C168.61 96.93 169.46 97.1737 170.208 97.661C170.968 98.137 171.563 98.8397 171.993 99.769C172.424 100.687 172.639 101.781 172.639 103.05C172.639 104.319 172.424 105.419 171.993 106.348C171.563 107.266 170.968 107.969 170.208 108.456C169.46 108.932 168.61 109.17 167.658 109.17ZM167.658 107.249C168.508 107.249 169.177 106.898 169.664 106.195C170.163 105.492 170.412 104.444 170.412 103.05C170.412 101.656 170.163 100.608 169.664 99.905C169.177 99.2023 168.508 98.851 167.658 98.851C166.82 98.851 166.151 99.2023 165.652 99.905C165.165 100.608 164.921 101.656 164.921 103.05C164.921 104.444 165.165 105.492 165.652 106.195C166.151 106.898 166.82 107.249 167.658 107.249ZM178.164 97.1V109H175.954V98.953H173.438V97.1H178.164ZM184.536 96.93C186.168 96.93 187.432 97.44 188.327 98.46C189.234 99.48 189.687 100.942 189.687 102.846C189.687 104.183 189.444 105.328 188.956 106.28C188.469 107.221 187.783 107.94 186.899 108.439C186.027 108.926 185.012 109.17 183.856 109.17C183.244 109.17 182.666 109.108 182.122 108.983C181.59 108.847 181.125 108.654 180.728 108.405L181.544 106.739C182.134 107.124 182.887 107.317 183.805 107.317C184.95 107.317 185.845 106.966 186.491 106.263C187.137 105.56 187.46 104.546 187.46 103.22V103.203C187.109 103.611 186.661 103.923 186.117 104.138C185.573 104.342 184.961 104.444 184.281 104.444C183.499 104.444 182.797 104.297 182.173 104.002C181.55 103.696 181.063 103.265 180.711 102.71C180.36 102.155 180.184 101.514 180.184 100.789C180.184 100.018 180.377 99.344 180.762 98.766C181.148 98.1767 181.669 97.7233 182.326 97.406C182.984 97.0887 183.72 96.93 184.536 96.93ZM184.706 102.71C185.42 102.71 185.998 102.517 186.44 102.132C186.894 101.747 187.12 101.259 187.12 100.67C187.12 100.092 186.899 99.616 186.457 99.242C186.027 98.8567 185.426 98.664 184.655 98.664C183.964 98.664 183.403 98.851 182.972 99.225C182.542 99.5877 182.326 100.075 182.326 100.687C182.326 101.31 182.542 101.803 182.972 102.166C183.403 102.529 183.981 102.71 184.706 102.71Z" fill="white"/>
<path d="M247.367 107.13V109H238.595V107.521L243.321 103.033C243.854 102.523 244.211 102.081 244.392 101.707C244.585 101.322 244.681 100.942 244.681 100.568C244.681 100.013 244.494 99.5877 244.12 99.293C243.746 98.9983 243.196 98.851 242.471 98.851C241.258 98.851 240.329 99.2647 239.683 100.092L238.136 98.902C238.601 98.2787 239.224 97.797 240.006 97.457C240.799 97.1057 241.683 96.93 242.658 96.93C243.95 96.93 244.981 97.236 245.752 97.848C246.523 98.46 246.908 99.293 246.908 100.347C246.908 100.993 246.772 101.599 246.5 102.166C246.228 102.733 245.707 103.379 244.936 104.104L241.757 107.13H247.367ZM253.557 109.17C252.605 109.17 251.755 108.932 251.007 108.456C250.259 107.969 249.669 107.266 249.239 106.348C248.808 105.419 248.593 104.319 248.593 103.05C248.593 101.781 248.808 100.687 249.239 99.769C249.669 98.8397 250.259 98.137 251.007 97.661C251.755 97.1737 252.605 96.93 253.557 96.93C254.509 96.93 255.359 97.1737 256.107 97.661C256.866 98.137 257.461 98.8397 257.892 99.769C258.322 100.687 258.538 101.781 258.538 103.05C258.538 104.319 258.322 105.419 257.892 106.348C257.461 107.266 256.866 107.969 256.107 108.456C255.359 108.932 254.509 109.17 253.557 109.17ZM253.557 107.249C254.407 107.249 255.075 106.898 255.563 106.195C256.061 105.492 256.311 104.444 256.311 103.05C256.311 101.656 256.061 100.608 255.563 99.905C255.075 99.2023 254.407 98.851 253.557 98.851C252.718 98.851 252.049 99.2023 251.551 99.905C251.063 100.608 250.82 101.656 250.82 103.05C250.82 104.444 251.063 105.492 251.551 106.195C252.049 106.898 252.718 107.249 253.557 107.249ZM264.062 97.1V109H261.852V98.953H259.336V97.1H264.062ZM270.435 96.93C272.067 96.93 273.33 97.44 274.226 98.46C275.132 99.48 275.586 100.942 275.586 102.846C275.586 104.183 275.342 105.328 274.855 106.28C274.367 107.221 273.682 107.94 272.798 108.439C271.925 108.926 270.911 109.17 269.755 109.17C269.143 109.17 268.565 109.108 268.021 108.983C267.488 108.847 267.023 108.654 266.627 108.405L267.443 106.739C268.032 107.124 268.786 107.317 269.704 107.317C270.848 107.317 271.744 106.966 272.39 106.263C273.036 105.56 273.359 104.546 273.359 103.22V103.203C273.007 103.611 272.56 103.923 272.016 104.138C271.472 104.342 270.86 104.444 270.18 104.444C269.398 104.444 268.695 104.297 268.072 104.002C267.448 103.696 266.961 103.265 266.61 102.71C266.258 102.155 266.083 101.514 266.083 100.789C266.083 100.018 266.275 99.344 266.661 98.766C267.046 98.1767 267.567 97.7233 268.225 97.406C268.882 97.0887 269.619 96.93 270.435 96.93ZM270.605 102.71C271.319 102.71 271.897 102.517 272.339 102.132C272.792 101.747 273.019 101.259 273.019 100.67C273.019 100.092 272.798 99.616 272.356 99.242C271.925 98.8567 271.324 98.664 270.554 98.664C269.862 98.664 269.301 98.851 268.871 99.225C268.44 99.5877 268.225 100.075 268.225 100.687C268.225 101.31 268.44 101.803 268.871 102.166C269.301 102.529 269.879 102.71 270.605 102.71Z" fill="white"/>
<path d="M239.598 12.1H241.808V22.13H248.03V24H239.598V12.1ZM258.022 19.512C258.022 19.6593 258.01 19.869 257.988 20.141H250.865C250.989 20.8097 251.312 21.3423 251.834 21.739C252.366 22.1243 253.024 22.317 253.806 22.317C254.803 22.317 255.625 21.9883 256.271 21.331L257.41 22.64C257.002 23.1273 256.486 23.4957 255.863 23.745C255.239 23.9943 254.537 24.119 253.755 24.119C252.757 24.119 251.879 23.9207 251.12 23.524C250.36 23.1273 249.771 22.5777 249.352 21.875C248.944 21.161 248.74 20.3563 248.74 19.461C248.74 18.577 248.938 17.7837 249.335 17.081C249.743 16.367 250.304 15.8117 251.018 15.415C251.732 15.0183 252.536 14.82 253.432 14.82C254.316 14.82 255.103 15.0183 255.795 15.415C256.497 15.8003 257.041 16.35 257.427 17.064C257.823 17.7667 258.022 18.5827 258.022 19.512ZM253.432 16.52C252.752 16.52 252.174 16.724 251.698 17.132C251.233 17.5287 250.95 18.0613 250.848 18.73H255.999C255.908 18.0727 255.63 17.54 255.166 17.132C254.701 16.724 254.123 16.52 253.432 16.52ZM282.356 12.1L278.412 24H276.066L273.125 15.194L270.133 24H267.77L263.826 12.1H266.121L269.079 21.144L272.156 12.1H274.196L277.205 21.195L280.248 12.1H282.356ZM286.74 14.82C288.077 14.82 289.097 15.143 289.8 15.789C290.514 16.4237 290.871 17.387 290.871 18.679V24H288.865V22.895C288.604 23.2917 288.23 23.5977 287.743 23.813C287.267 24.017 286.689 24.119 286.009 24.119C285.329 24.119 284.734 24.0057 284.224 23.779C283.714 23.541 283.317 23.218 283.034 22.81C282.762 22.3907 282.626 21.9203 282.626 21.399C282.626 20.583 282.926 19.9313 283.527 19.444C284.139 18.9453 285.097 18.696 286.4 18.696H288.746V18.56C288.746 17.9253 288.553 17.438 288.168 17.098C287.794 16.758 287.233 16.588 286.485 16.588C285.975 16.588 285.471 16.6673 284.972 16.826C284.485 16.9847 284.071 17.2057 283.731 17.489L282.898 15.942C283.374 15.5793 283.946 15.3017 284.615 15.109C285.284 14.9163 285.992 14.82 286.74 14.82ZM286.451 22.572C286.984 22.572 287.454 22.453 287.862 22.215C288.281 21.9657 288.576 21.6143 288.746 21.161V20.107H286.553C285.329 20.107 284.717 20.5093 284.717 21.314C284.717 21.6993 284.87 22.0053 285.176 22.232C285.482 22.4587 285.907 22.572 286.451 22.572ZM302.691 14.922V22.623C302.691 25.819 301.059 27.417 297.795 27.417C296.922 27.417 296.095 27.3037 295.313 27.077C294.531 26.8617 293.885 26.5443 293.375 26.125L294.327 24.527C294.724 24.8557 295.222 25.1163 295.823 25.309C296.435 25.513 297.053 25.615 297.676 25.615C298.673 25.615 299.404 25.3883 299.869 24.935C300.334 24.4817 300.566 23.7903 300.566 22.861V22.385C300.203 22.7817 299.761 23.082 299.24 23.286C298.719 23.49 298.146 23.592 297.523 23.592C296.662 23.592 295.88 23.4107 295.177 23.048C294.486 22.674 293.936 22.1527 293.528 21.484C293.131 20.8153 292.933 20.0503 292.933 19.189C292.933 18.3277 293.131 17.5683 293.528 16.911C293.936 16.2423 294.486 15.7267 295.177 15.364C295.88 15.0013 296.662 14.82 297.523 14.82C298.18 14.82 298.775 14.9277 299.308 15.143C299.852 15.3583 300.305 15.687 300.668 16.129V14.922H302.691ZM297.846 21.79C298.651 21.79 299.308 21.552 299.818 21.076C300.339 20.5887 300.6 19.9597 300.6 19.189C300.6 18.4297 300.339 17.812 299.818 17.336C299.308 16.86 298.651 16.622 297.846 16.622C297.03 16.622 296.361 16.86 295.84 17.336C295.33 17.812 295.075 18.4297 295.075 19.189C295.075 19.9597 295.33 20.5887 295.84 21.076C296.361 21.552 297.03 21.79 297.846 21.79ZM309.565 24.119C308.647 24.119 307.819 23.9207 307.083 23.524C306.346 23.1273 305.768 22.5777 305.349 21.875C304.941 21.161 304.737 20.3563 304.737 19.461C304.737 18.5657 304.941 17.7667 305.349 17.064C305.768 16.3613 306.346 15.8117 307.083 15.415C307.819 15.0183 308.647 14.82 309.565 14.82C310.494 14.82 311.327 15.0183 312.064 15.415C312.8 15.8117 313.373 16.3613 313.781 17.064C314.2 17.7667 314.41 18.5657 314.41 19.461C314.41 20.3563 314.2 21.161 313.781 21.875C313.373 22.5777 312.8 23.1273 312.064 23.524C311.327 23.9207 310.494 24.119 309.565 24.119ZM309.565 22.3C310.347 22.3 310.993 22.0393 311.503 21.518C312.013 20.9967 312.268 20.311 312.268 19.461C312.268 18.611 312.013 17.9253 311.503 17.404C310.993 16.8827 310.347 16.622 309.565 16.622C308.783 16.622 308.137 16.8827 307.627 17.404C307.128 17.9253 306.879 18.611 306.879 19.461C306.879 20.311 307.128 20.9967 307.627 21.518C308.137 22.0393 308.783 22.3 309.565 22.3ZM321.593 14.82C322.738 14.82 323.656 15.1543 324.347 15.823C325.038 16.4917 325.384 17.4833 325.384 18.798V24H323.259V19.07C323.259 18.2767 323.072 17.6817 322.698 17.285C322.324 16.877 321.791 16.673 321.1 16.673C320.318 16.673 319.7 16.911 319.247 17.387C318.794 17.8517 318.567 18.526 318.567 19.41V24H316.442V14.922H318.465V16.095C318.816 15.6757 319.258 15.3583 319.791 15.143C320.324 14.9277 320.924 14.82 321.593 14.82Z" fill="white"/>
<path d="M362.451 24.17C361.692 24.17 360.989 24.0227 360.343 23.728C359.708 23.422 359.187 22.997 358.779 22.453L360.037 20.94C360.694 21.8467 361.482 22.3 362.4 22.3C363.635 22.3 364.253 21.569 364.253 20.107V13.953H360.02V12.1H366.463V19.988C366.463 21.382 366.123 22.4303 365.443 23.133C364.763 23.8243 363.766 24.17 362.451 24.17ZM378.148 14.922V24H376.125V22.844C375.785 23.252 375.36 23.5693 374.85 23.796C374.34 24.0113 373.79 24.119 373.201 24.119C371.988 24.119 371.031 23.7847 370.328 23.116C369.637 22.436 369.291 21.433 369.291 20.107V14.922H371.416V19.818C371.416 20.634 371.597 21.246 371.96 21.654C372.334 22.0507 372.861 22.249 373.541 22.249C374.3 22.249 374.901 22.0167 375.343 21.552C375.796 21.076 376.023 20.396 376.023 19.512V14.922H378.148ZM386.081 14.82C387.226 14.82 388.144 15.1543 388.835 15.823C389.526 16.4917 389.872 17.4833 389.872 18.798V24H387.747V19.07C387.747 18.2767 387.56 17.6817 387.186 17.285C386.812 16.877 386.279 16.673 385.588 16.673C384.806 16.673 384.188 16.911 383.735 17.387C383.282 17.8517 383.055 18.526 383.055 19.41V24H380.93V14.922H382.953V16.095C383.304 15.6757 383.746 15.3583 384.279 15.143C384.812 14.9277 385.412 14.82 386.081 14.82ZM392.568 14.922H394.693V24H392.568V14.922ZM393.639 13.426C393.253 13.426 392.93 13.307 392.67 13.069C392.409 12.8197 392.279 12.5137 392.279 12.151C392.279 11.7883 392.409 11.488 392.67 11.25C392.93 11.0007 393.253 10.876 393.639 10.876C394.024 10.876 394.347 10.995 394.608 11.233C394.868 11.4597 394.999 11.7487 394.999 12.1C394.999 12.474 394.868 12.7913 394.608 13.052C394.358 13.3013 394.035 13.426 393.639 13.426ZM401.562 24.119C400.644 24.119 399.817 23.9207 399.08 23.524C398.343 23.1273 397.765 22.5777 397.346 21.875C396.938 21.161 396.734 20.3563 396.734 19.461C396.734 18.5657 396.938 17.7667 397.346 17.064C397.765 16.3613 398.343 15.8117 399.08 15.415C399.817 15.0183 400.644 14.82 401.562 14.82C402.491 14.82 403.324 15.0183 404.061 15.415C404.798 15.8117 405.37 16.3613 405.778 17.064C406.197 17.7667 406.407 18.5657 406.407 19.461C406.407 20.3563 406.197 21.161 405.778 21.875C405.37 22.5777 404.798 23.1273 404.061 23.524C403.324 23.9207 402.491 24.119 401.562 24.119ZM401.562 22.3C402.344 22.3 402.99 22.0393 403.5 21.518C404.01 20.9967 404.265 20.311 404.265 19.461C404.265 18.611 404.01 17.9253 403.5 17.404C402.99 16.8827 402.344 16.622 401.562 16.622C400.78 16.622 400.134 16.8827 399.624 17.404C399.125 17.9253 398.876 18.611 398.876 19.461C398.876 20.311 399.125 20.9967 399.624 21.518C400.134 22.0393 400.78 22.3 401.562 22.3ZM410.462 16.248C411.074 15.296 412.151 14.82 413.692 14.82V16.843C413.511 16.809 413.346 16.792 413.199 16.792C412.372 16.792 411.726 17.0357 411.261 17.523C410.796 17.999 410.564 18.6903 410.564 19.597V24H408.439V14.922H410.462V16.248ZM420.48 12.1H425.682C426.951 12.1 428.079 12.3493 429.065 12.848C430.051 13.3353 430.816 14.0323 431.36 14.939C431.904 15.8343 432.176 16.8713 432.176 18.05C432.176 19.2287 431.904 20.2713 431.36 21.178C430.816 22.0733 430.051 22.7703 429.065 23.269C428.079 23.7563 426.951 24 425.682 24H420.48V12.1ZM425.58 22.13C426.453 22.13 427.218 21.9657 427.875 21.637C428.544 21.297 429.054 20.821 429.405 20.209C429.768 19.5857 429.949 18.866 429.949 18.05C429.949 17.234 429.768 16.52 429.405 15.908C429.054 15.2847 428.544 14.8087 427.875 14.48C427.218 14.14 426.453 13.97 425.58 13.97H422.69V22.13H425.58ZM442.855 19.512C442.855 19.6593 442.843 19.869 442.821 20.141H435.698C435.822 20.8097 436.145 21.3423 436.667 21.739C437.199 22.1243 437.857 22.317 438.639 22.317C439.636 22.317 440.458 21.9883 441.104 21.331L442.243 22.64C441.835 23.1273 441.319 23.4957 440.696 23.745C440.072 23.9943 439.37 24.119 438.588 24.119C437.59 24.119 436.712 23.9207 435.953 23.524C435.193 23.1273 434.604 22.5777 434.185 21.875C433.777 21.161 433.573 20.3563 433.573 19.461C433.573 18.577 433.771 17.7837 434.168 17.081C434.576 16.367 435.137 15.8117 435.851 15.415C436.565 15.0183 437.369 14.82 438.265 14.82C439.149 14.82 439.936 15.0183 440.628 15.415C441.33 15.8003 441.874 16.35 442.26 17.064C442.656 17.7667 442.855 18.5827 442.855 19.512ZM438.265 16.52C437.585 16.52 437.007 16.724 436.531 17.132C436.066 17.5287 435.783 18.0613 435.681 18.73H440.832C440.741 18.0727 440.463 17.54 439.999 17.132C439.534 16.724 438.956 16.52 438.265 16.52ZM453.23 14.922L449.337 24H447.144L443.251 14.922H445.461L448.283 21.654L451.19 14.922H453.23ZM462.843 19.512C462.843 19.6593 462.832 19.869 462.809 20.141H455.686C455.811 20.8097 456.134 21.3423 456.655 21.739C457.188 22.1243 457.845 22.317 458.627 22.317C459.624 22.317 460.446 21.9883 461.092 21.331L462.231 22.64C461.823 23.1273 461.307 23.4957 460.684 23.745C460.061 23.9943 459.358 24.119 458.576 24.119C457.579 24.119 456.7 23.9207 455.941 23.524C455.182 23.1273 454.592 22.5777 454.173 21.875C453.765 21.161 453.561 20.3563 453.561 19.461C453.561 18.577 453.759 17.7837 454.156 17.081C454.564 16.367 455.125 15.8117 455.839 15.415C456.553 15.0183 457.358 14.82 458.253 14.82C459.137 14.82 459.925 15.0183 460.616 15.415C461.319 15.8003 461.863 16.35 462.248 17.064C462.645 17.7667 462.843 18.5827 462.843 19.512ZM458.253 16.52C457.573 16.52 456.995 16.724 456.519 17.132C456.054 17.5287 455.771 18.0613 455.669 18.73H460.82C460.729 18.0727 460.452 17.54 459.987 17.132C459.522 16.724 458.944 16.52 458.253 16.52ZM464.884 11.386H467.009V24H464.884V11.386ZM473.878 24.119C472.96 24.119 472.133 23.9207 471.396 23.524C470.66 23.1273 470.082 22.5777 469.662 21.875C469.254 21.161 469.05 20.3563 469.05 19.461C469.05 18.5657 469.254 17.7667 469.662 17.064C470.082 16.3613 470.66 15.8117 471.396 15.415C472.133 15.0183 472.96 14.82 473.878 14.82C474.808 14.82 475.641 15.0183 476.377 15.415C477.114 15.8117 477.686 16.3613 478.094 17.064C478.514 17.7667 478.723 18.5657 478.723 19.461C478.723 20.3563 478.514 21.161 478.094 21.875C477.686 22.5777 477.114 23.1273 476.377 23.524C475.641 23.9207 474.808 24.119 473.878 24.119ZM473.878 22.3C474.66 22.3 475.306 22.0393 475.816 21.518C476.326 20.9967 476.581 20.311 476.581 19.461C476.581 18.611 476.326 17.9253 475.816 17.404C475.306 16.8827 474.66 16.622 473.878 16.622C473.096 16.622 472.45 16.8827 471.94 17.404C471.442 17.9253 471.192 18.611 471.192 19.461C471.192 20.311 471.442 20.9967 471.94 21.518C472.45 22.0393 473.096 22.3 473.878 22.3ZM485.787 14.82C486.671 14.82 487.459 15.0127 488.15 15.398C488.853 15.7833 489.403 16.3273 489.799 17.03C490.196 17.7327 490.394 18.543 490.394 19.461C490.394 20.379 490.196 21.195 489.799 21.909C489.403 22.6117 488.853 23.1557 488.15 23.541C487.459 23.9263 486.671 24.119 485.787 24.119C484.563 24.119 483.594 23.711 482.88 22.895V27.298H480.755V14.922H482.778V16.112C483.13 15.6813 483.56 15.3583 484.07 15.143C484.592 14.9277 485.164 14.82 485.787 14.82ZM485.549 22.3C486.331 22.3 486.972 22.0393 487.47 21.518C487.98 20.9967 488.235 20.311 488.235 19.461C488.235 18.611 487.98 17.9253 487.47 17.404C486.972 16.8827 486.331 16.622 485.549 16.622C485.039 16.622 484.58 16.741 484.172 16.979C483.764 17.2057 483.441 17.5343 483.203 17.965C482.965 18.3957 482.846 18.8943 482.846 19.461C482.846 20.0277 482.965 20.5263 483.203 20.957C483.441 21.3877 483.764 21.722 484.172 21.96C484.58 22.1867 485.039 22.3 485.549 22.3ZM500.944 19.512C500.944 19.6593 500.932 19.869 500.91 20.141H493.787C493.911 20.8097 494.234 21.3423 494.756 21.739C495.288 22.1243 495.946 22.317 496.728 22.317C497.725 22.317 498.547 21.9883 499.193 21.331L500.332 22.64C499.924 23.1273 499.408 23.4957 498.785 23.745C498.161 23.9943 497.459 24.119 496.677 24.119C495.679 24.119 494.801 23.9207 494.042 23.524C493.282 23.1273 492.693 22.5777 492.274 21.875C491.866 21.161 491.662 20.3563 491.662 19.461C491.662 18.577 491.86 17.7837 492.257 17.081C492.665 16.367 493.226 15.8117 493.94 15.415C494.654 15.0183 495.458 14.82 496.354 14.82C497.238 14.82 498.025 15.0183 498.717 15.415C499.419 15.8003 499.963 16.35 500.349 17.064C500.745 17.7667 500.944 18.5827 500.944 19.512ZM496.354 16.52C495.674 16.52 495.096 16.724 494.62 17.132C494.155 17.5287 493.872 18.0613 493.77 18.73H498.921C498.83 18.0727 498.552 17.54 498.088 17.132C497.623 16.724 497.045 16.52 496.354 16.52ZM505.008 16.248C505.62 15.296 506.696 14.82 508.238 14.82V16.843C508.056 16.809 507.892 16.792 507.745 16.792C506.917 16.792 506.271 17.0357 505.807 17.523C505.342 17.999 505.11 18.6903 505.11 19.597V24H502.985V14.922H505.008V16.248Z" fill="white"/>
</svg>
