<svg width="58" height="58" viewBox="0 0 58 58" fill="none" xmlns="http://www.w3.org/2000/svg">
<g clip-path="url(#clip0)">
<path d="M29 4.83333C35.6628 4.83333 41.0833 10.2539 41.0833 16.9191C41.0833 23.5794 35.6628 29.0024 29 29.0024C22.3373 29.0024 16.9167 23.5794 16.9167 16.9191C16.9167 10.2539 22.3373 4.83333 29 4.83333ZM29 0C19.6572 0 12.0833 7.57383 12.0833 16.9191C12.0833 26.2595 19.6572 33.8358 29 33.8358C38.3428 33.8358 45.9167 26.2595 45.9167 16.9191C45.9167 7.57383 38.3428 0 29 0V0ZM44.3918 32.2697C43.1907 33.4733 41.8373 34.5197 40.3849 35.4163C47.3256 39.9451 50.9651 47.7002 52.4006 53.1691H5.54867C6.931 47.6349 10.5222 39.8702 17.5668 35.3872C16.1095 34.4834 14.7586 33.4273 13.5599 32.2166C3.26975 39.6406 0 52.7728 0 58H58C58 52.8235 54.52 39.7373 44.3918 32.2697Z" fill="#C83660"/>
</g>
<defs>
<clipPath id="clip0">
<rect width="58" height="58" fill="white"/>
</clipPath>
</defs>
</svg>
