<svg width="58" height="58" viewBox="0 0 58 58" fill="none" xmlns="http://www.w3.org/2000/svg">
<path d="M39.875 0H18.125C8.11638 0 0 8.11638 0 18.125V39.875C0 49.8836 8.11638 58 18.125 58H39.875C49.8836 58 58 49.8836 58 39.875V18.125C58 8.11638 49.8836 0 39.875 0ZM52.5624 39.875C52.5624 46.8712 46.8712 52.5624 39.875 52.5624H18.125C11.1288 52.5624 5.4375 46.8712 5.4375 39.875V18.125C5.4375 11.1288 11.1288 5.4375 18.125 5.4375H39.875C46.8712 5.4375 52.5624 11.1288 52.5624 18.125V39.875Z" fill="#C83660"/>
<path d="M29 14.5C20.9924 14.5 14.5 20.9924 14.5 29C14.5 37.0076 20.9924 43.5 29 43.5C37.0076 43.5 43.5 37.0076 43.5 29C43.5 20.9924 37.0076 14.5 29 14.5ZM29 38.0624C24.0048 38.0624 19.9375 33.9952 19.9375 29C19.9375 24.0011 24.0048 19.9375 29 19.9375C33.9952 19.9375 38.0624 24.0011 38.0624 29C38.0624 33.9952 33.9952 38.0624 29 38.0624Z" fill="#C83660"/>
<path d="M44.5879 15.3448C45.6551 15.3448 46.5201 14.4797 46.5201 13.4126C46.5201 12.3456 45.6551 11.4805 44.5879 11.4805C43.5207 11.4805 42.6556 12.3456 42.6556 13.4126C42.6556 14.4797 43.5207 15.3448 44.5879 15.3448Z" fill="#C83660"/>
</svg>
