<svg width="58" height="58" viewBox="0 0 58 58" fill="none" xmlns="http://www.w3.org/2000/svg">
<path fill-rule="evenodd" clip-rule="evenodd" d="M58 45.9167H55.5833V40.6C51.1053 50.8394 40.8828 58 29 58C12.9944 58 0 45.0056 0 29H2.41667C2.41667 43.6716 14.3284 55.5833 29 55.5833C40.2617 55.5833 49.8969 48.5653 53.7684 38.6667H48.3333V36.25H58V45.9167ZM31.3297 45.9167H26.7718C25.9502 43.6039 25.7158 42.1201 23.9274 41.3782H23.925C22.1294 40.6338 20.9018 41.5256 18.7002 42.572L15.4788 39.3506C16.5107 37.178 17.4218 35.931 16.6726 34.1233C15.9283 32.335 14.4348 32.0957 12.1341 31.2789V26.7211C14.4396 25.9018 15.9283 25.665 16.6726 23.8743C17.4169 22.0787 16.5276 20.8583 15.4788 18.6494L18.7002 15.428C20.9187 16.4817 22.1343 17.3638 23.925 16.6218L23.9274 16.6194C25.7158 15.8775 25.9526 14.3864 26.7718 12.0833H31.3297C32.1513 14.3985 32.3857 15.8775 34.1741 16.6194L34.1765 16.6218C35.9721 17.3662 37.2022 16.472 39.4013 15.428L42.6227 18.6494C41.5715 20.8655 40.687 22.0835 41.4289 23.8718V23.8743C42.1708 25.6602 43.6402 25.8922 45.9674 26.7211V31.2789C43.6643 32.0957 42.1708 32.335 41.4289 34.1258C40.6846 35.9213 41.5739 37.1442 42.6227 39.3506L39.4013 42.572C37.178 41.5135 35.9697 40.6338 34.1886 41.3733C32.3858 42.1225 32.1489 43.6112 31.3297 45.9167ZM29.0508 34.6381C25.9357 34.6381 23.4127 32.1151 23.4127 29C23.4127 25.8849 25.9357 23.3595 29.0508 23.3595C32.1658 23.3595 34.6888 25.8849 34.6888 29C34.6888 32.1151 32.1658 34.6381 29.0508 34.6381ZM9.66667 21.75H0V12.0833H2.41667V17.4C6.89475 7.16058 17.1173 0 29 0C45.0056 0 58 12.9944 58 29H55.5833C55.5833 14.3284 43.6716 2.41667 29 2.41667C17.7383 2.41667 8.10308 9.43467 4.23158 19.3333H9.66667V21.75Z" fill="#C83660"/>
</svg>
