<svg width="58" height="58" viewBox="0 0 58 58" fill="none" xmlns="http://www.w3.org/2000/svg">
<g clip-path="url(#clip0)">
<path fill-rule="evenodd" clip-rule="evenodd" d="M37.4994 58.0002H9.35493C10.6164 50.6656 11.5227 43.1087 8.3351 38.5992C4.30893 32.9031 2.4626 27.1393 2.41668 21.9653C2.30793 9.42275 12.6416 -0.0602483 27.0739 0.000168334C44.5609 0.0726683 49.6166 14.8772 50.692 19.1958C51.5137 22.5042 48.5218 23.7125 50.2908 25.7256C51.7312 27.3665 52.7921 29.0219 54.6143 30.9867C55.3199 31.7479 55.593 32.5478 55.5833 33.2656C55.5688 34.3144 54.8801 35.1941 53.7757 35.5807C52.7389 35.9432 51.939 36.3541 50.8394 36.6513C50.489 39.4547 49.5803 42.867 48.9109 45.2474C47.1298 51.5791 41.9123 47.8067 39.5318 51.5477C38.5023 53.162 37.9852 55.7478 37.4994 58.0002ZM28.2098 12.0835H24.9569C24.3697 13.7293 24.2029 14.795 22.9221 15.3243C21.6413 15.8559 20.7761 15.2252 19.1883 14.4712L16.8877 16.7718C17.6393 18.3523 18.2724 19.2248 17.7408 20.5056C17.2115 21.7864 16.1458 21.9532 14.5 22.538V25.7933C16.1433 26.3781 17.2115 26.5473 17.7408 27.8281C18.2773 29.1186 17.6272 30.0079 16.8877 31.5594L19.1883 33.8601C20.764 33.1133 21.6413 32.4753 22.9221 33.007V33.0094C24.2005 33.5387 24.3697 34.5972 24.9569 36.2502H28.2098C28.797 34.602 28.9662 33.5411 30.2518 33.0046H30.2543C31.5254 32.4753 32.3882 33.1061 33.9783 33.8601L36.279 31.5594C35.5298 29.9862 34.8943 29.1089 35.4235 27.8281C35.9528 26.5497 37.0233 26.3781 38.6667 25.7933V22.538C37.004 21.9483 35.9528 21.7816 35.4259 20.5056C34.8943 19.2248 35.525 18.3548 36.279 16.7718L33.9783 14.4712C32.4051 15.2203 31.5278 15.8559 30.2446 15.3243C28.9662 14.795 28.7994 13.7365 28.2098 12.0835ZM26.5833 28.1954C24.36 28.1954 22.5548 26.3902 22.5548 24.1668C22.5548 21.9411 24.36 20.1383 26.5833 20.1383C28.8067 20.1383 30.6119 21.9411 30.6119 24.1668C30.6119 26.3902 28.8067 28.1954 26.5833 28.1954Z" fill="#C83660"/>
</g>
<defs>
<clipPath id="clip0">
<rect width="58" height="58" fill="white"/>
</clipPath>
</defs>
</svg>
