<?xml version="1.0" standalone="no"?>
<!DOCTYPE svg PUBLIC "-//W3C//DTD SVG 20010904//EN"
 "http://www.w3.org/TR/2001/REC-SVG-20010904/DTD/svg10.dtd">
<svg version="1.0" xmlns="http://www.w3.org/2000/svg"
 width="1208.000000pt" height="1208.000000pt" viewBox="0 0 1208.000000 1208.000000"
 preserveAspectRatio="xMidYMid meet">
<metadata>
Created by potrace 1.11, written by Peter Selinger 2001-2013
</metadata>
<g transform="translate(0.000000,1208.000000) scale(0.100000,-0.100000)"
fill="#000000" stroke="none">
<path d="M920 11420 l0 -660 118 0 c127 0 191 -14 242 -52 27 -20 29 -23 13
-30 -10 -3 -98 -7 -195 -7 l-178 -1 0 -840 0 -840 48 5 47 5 -47 -17 c-27 -9
-48 -21 -47 -27 2 -28 38 -71 63 -76 21 -4 31 -14 43 -45 8 -22 14 -52 14 -66
-1 -15 6 -32 14 -39 8 -7 15 -18 15 -24 0 -7 20 -35 45 -62 25 -27 45 -44 45
-39 0 6 -9 57 -20 115 -21 108 -25 163 -12 144 4 -5 21 -16 38 -23 17 -7 36
-22 42 -34 9 -19 11 -19 11 -4 1 16 6 17 34 12 17 -4 37 -13 43 -21 6 -7 15
-10 19 -6 5 4 4 -2 0 -13 -8 -19 -10 -84 -5 -165 1 -19 4 -29 7 -22 2 6 9 10
14 6 5 -3 13 6 18 19 6 14 14 28 19 31 6 3 8 32 5 66 -6 65 -3 68 55 52 22 -7
23 -10 24 -153 1 -107 5 -152 15 -165 21 -29 29 -7 42 115 19 169 21 179 43
184 18 5 19 2 14 -41 -49 -397 -40 -375 -150 -388 -50 -6 -56 -5 -50 10 3 9 1
16 -5 16 -6 0 -11 -4 -11 -10 0 -5 -9 -14 -20 -20 -26 -14 -113 26 -119 55 -2
11 -23 45 -46 75 -23 30 -55 76 -70 102 -15 27 -31 50 -36 53 -9 6 9 -54 22
-71 11 -14 1 -24 -22 -24 -13 0 -16 -5 -12 -16 3 -9 0 -20 -8 -25 -12 -7 -11
-11 3 -25 12 -12 36 -18 75 -19 32 -1 56 -6 53 -11 -6 -11 -86 -7 -121 7 -22
9 -27 19 -38 87 -16 96 -58 263 -76 305 -13 28 -14 -7 -15 -290 l0 -322 43 -4
42 -4 -43 -1 -42 -2 0 -1169 c0 -1100 1 -1170 18 -1174 16 -4 16 -5 0 -6 -16
-1 -18 -16 -18 -165 l0 -163 457 0 c251 0 469 3 484 7 24 7 94 57 204 146 l40
33 1 -39 c3 -103 33 -120 213 -120 l118 0 30 33 c16 18 34 40 39 49 10 18 87
109 120 142 23 23 58 147 52 186 -4 32 -39 41 -159 41 -85 0 -96 2 -92 17 4
15 -11 17 -144 20 -101 2 -150 7 -155 15 -28 48 -32 50 -65 20 -17 -15 -49
-37 -70 -47 -21 -11 -51 -32 -68 -47 -40 -35 -207 -161 -209 -157 -43 78 -99
230 -127 348 -18 75 -36 130 -46 137 -12 9 -19 45 -29 135 -21 197 -18 259 21
408 6 24 6 24 -9 6 -9 -11 -16 -23 -16 -28 0 -21 -19 -2 -60 60 -25 37 -43 74
-41 82 1 8 16 45 32 82 35 81 36 88 5 88 -28 0 -46 20 -19 20 12 1 6 7 -16 18
-44 22 -62 49 -41 62 9 5 19 5 26 -1 7 -5 22 -12 34 -14 13 -2 30 -10 39 -18
9 -7 52 -31 96 -52 68 -33 92 -40 160 -43 44 -2 85 -8 91 -13 6 -5 43 -11 80
-14 202 -13 327 -24 331 -29 14 -13 -23 -36 -68 -42 -49 -7 -59 -24 -13 -24
13 0 32 -8 43 -19 34 -34 25 -241 -11 -241 -16 0 -8 -15 15 -25 17 -8 21 -17
19 -40 -1 -17 0 -40 3 -51 5 -21 6 -21 39 -6 25 11 36 23 40 46 13 79 19 97
30 93 6 -2 12 -31 14 -64 3 -53 6 -62 25 -67 12 -3 200 -6 418 -6 344 0 398
-2 403 -15 3 -8 16 -15 30 -15 33 0 35 -5 43 -96 4 -54 9 -72 14 -59 6 14 8 7
8 -25 0 -25 2 -65 5 -90 4 -25 3 -39 0 -32 -3 6 -9 10 -14 7 -5 -3 -11 21 -15
52 -11 105 -19 128 -43 131 -18 3 -22 10 -22 37 0 19 5 37 10 40 20 13 -2 25
-46 25 -48 0 -54 -7 -25 -32 26 -22 17 -58 -14 -58 -12 0 -27 -6 -32 -12 -11
-14 -59 -155 -68 -201 -3 -15 -9 -25 -14 -22 -5 2 -11 -1 -14 -9 -5 -12 -44
-14 -224 -13 -120 1 -189 5 -153 8 65 6 65 6 13 7 -28 1 -58 5 -67 8 -11 4
-16 1 -16 -10 0 -14 -19 -16 -149 -16 -89 0 -152 4 -156 10 -3 6 -25 10 -48 9
-33 0 -38 -2 -22 -9 13 -6 -16 -9 -82 -9 -62 -1 -103 -5 -103 -11 0 -7 177
-10 511 -10 l511 0 -2 -32 c-1 -18 -2 -38 -1 -45 1 -12 59 -36 70 -28 4 2 51
5 104 6 l97 2 0 49 c0 66 25 66 34 1 4 -27 10 -56 12 -66 5 -17 -4 -18 -161
-13 -97 2 -179 0 -194 -5 -43 -16 -316 -295 -417 -427 -75 -97 -93 -126 -85
-140 5 -9 7 -29 4 -43 -8 -40 27 -50 252 -71 160 -14 641 -20 840 -10 88 4
161 8 162 7 1 0 -22 -27 -52 -59 -53 -57 -54 -58 -97 -53 -24 4 -629 9 -1345
13 l-1303 7 0 -2167 c0 -1731 3 -2166 12 -2160 11 6 11 4 1 -7 -7 -7 -13 -19
-13 -27 0 -12 3 -12 18 -1 16 13 16 13 0 -7 -10 -11 -18 -30 -18 -42 0 -20 6
-21 88 -25 l87 -3 -87 -2 -88 -2 0 -415 0 -415 2131 0 2132 0 18 21 c9 11 52
78 94 148 73 124 77 129 114 134 21 2 75 21 119 41 66 30 91 36 148 36 106 1
259 24 289 44 15 10 24 13 21 7 -4 -6 -4 -11 1 -11 4 0 117 54 251 121 134 66
249 118 257 115 32 -12 15 -41 -36 -64 -28 -13 -49 -26 -46 -28 4 -4 195 81
205 91 11 11 -31 55 -63 66 -26 10 -35 19 -35 36 l0 23 171 0 170 0 -7 -22
c-3 -13 -22 -66 -41 -118 -19 -52 -76 -218 -127 -368 l-92 -272 2283 0 2283 0
0 2475 0 2475 -162 1 c-90 1 -206 5 -258 9 l-95 8 130 0 c72 0 187 1 258 1
l127 1 0 3555 0 3555 -911 0 -911 0 15 -22 c13 -20 23 -23 76 -22 58 1 61 0
55 -20 -8 -25 -1 -20 -51 -45 -24 -12 -43 -25 -43 -30 0 -5 16 -21 35 -35 34
-26 45 -46 26 -46 -5 0 -23 11 -39 25 -49 41 -68 34 -94 -37 l-23 -63 -3 60
c-3 63 -21 95 -54 95 -29 0 -21 15 15 25 30 9 32 14 37 63 l6 52 -287 0 c-221
0 -289 -3 -292 -12 -4 -10 -6 -10 -6 0 -1 9 -261 12 -1266 12 -1248 0 -1266 0
-1255 -19 5 -11 10 -31 10 -45 0 -28 -29 -96 -42 -96 -13 0 -32 43 -43 100
l-12 55 -1301 3 c-1235 2 -1302 1 -1302 -15 -1 -10 -8 -31 -16 -48 -8 -16 -12
-22 -9 -12 2 9 1 17 -3 17 -5 0 -17 7 -28 16 -18 15 -17 15 14 10 27 -5 32 -2
32 14 0 20 -12 20 -1285 20 l-1285 0 0 -660z m5941 633 c8 -9 16 -41 19 -72 5
-54 6 -55 40 -62 35 -8 80 -49 80 -74 0 -21 -53 -45 -105 -47 -40 -2 -46 -6
-51 -28 -3 -14 -12 -49 -20 -79 -15 -53 -15 -53 -36 -35 -25 24 -48 67 -48 93
0 24 -28 31 -55 15 -11 -7 -37 -16 -57 -19 -45 -8 -49 4 -18 50 21 32 27 80
10 90 -5 3 -10 21 -10 40 l0 34 48 -4 c58 -4 64 -1 91 52 31 62 82 83 112 46z
m-5396 -7 c14 -10 20 -30 23 -82 4 -60 8 -73 35 -101 28 -30 29 -33 11 -39
-30 -11 -64 -46 -64 -66 0 -20 -38 -78 -51 -78 -4 0 -15 22 -24 49 -21 63 -37
78 -71 62 -14 -6 -43 -11 -64 -11 -39 0 -39 0 -28 28 7 15 18 35 26 44 12 15
12 21 -7 51 -11 19 -21 42 -21 52 0 16 7 17 60 12 52 -4 60 -3 65 14 6 17 72
79 85 79 4 0 15 -6 25 -14z m7380 -26 c-8 -25 21 -40 75 -40 41 0 42 -1 36
-27 -10 -40 -31 -52 -87 -49 -38 1 -56 8 -75 28 -22 22 -24 29 -15 47 8 14 8
21 1 21 -22 0 -8 22 22 35 38 15 51 11 43 -15z m-6233 -58 c-12 -10 -27 -31
-31 -47 -7 -24 -9 -13 -10 50 l-1 80 33 -33 32 -33 -23 -17z m7136 33 c28 -5
31 -8 18 -20 -11 -12 -43 -15 -135 -15 -67 0 -121 3 -121 6 0 3 4 13 9 22 8
15 24 17 103 15 51 -1 108 -5 126 -8z m-6600 -23 c-49 -16 -64 -36 -53 -71 3
-10 17 -22 32 -25 14 -4 23 -9 21 -12 -3 -2 -17 0 -31 5 -30 12 -44 50 -29 77
10 18 64 43 92 42 8 0 -6 -7 -32 -16z m6839 -79 c-2 -21 -4 -6 -4 32 0 39 2
55 4 38 2 -18 2 -50 0 -70z m-6526 64 c-10 -9 -11 -8 -5 6 3 10 9 15 12 12 3
-3 0 -11 -7 -18z m4718 13 c10 -5 29 -35 41 -66 l23 -56 70 7 c58 5 72 4 88
-11 39 -35 11 -95 -51 -109 -35 -8 -36 -12 -10 -45 11 -14 20 -41 20 -62 0
-32 5 -40 31 -53 17 -9 28 -19 26 -22 -3 -3 -19 4 -34 15 -20 14 -34 18 -44
11 -23 -15 -55 -10 -83 12 -30 24 -56 19 -56 -10 0 -38 -66 -55 -91 -24 -8 9
-16 41 -19 72 -6 67 -24 76 -71 37 -16 -14 -48 -31 -69 -37 -30 -9 -40 -18
-41 -33 0 -19 -1 -19 -10 3 -6 15 -6 34 0 50 6 17 10 20 10 9 1 -10 8 -18 16
-18 24 0 79 25 94 44 12 14 10 19 -13 41 -21 19 -27 33 -24 58 3 28 10 35 54
56 49 22 52 26 57 67 7 68 38 90 86 64z m526 -20 c-3 -5 -12 -10 -18 -10 -7 0
-6 4 3 10 19 12 23 12 15 0z m-3105 -4 c0 -2 -8 -10 -17 -17 -16 -13 -17 -12
-4 4 13 16 21 21 21 13z m-2930 -45 c11 -16 20 -33 19 -38 -4 -21 2 -33 16
-33 22 0 18 -17 -7 -34 -12 -9 -18 -17 -13 -17 6 -1 15 -2 20 -4 6 -1 15 -3
22 -3 6 -1 19 -10 29 -19 9 -10 29 -17 43 -16 22 2 20 1 -6 -8 -40 -12 -42
-30 -12 -93 12 -24 19 -51 16 -60 -9 -24 -50 -19 -77 9 -36 38 -90 29 -90 -15
0 -9 -14 -31 -31 -50 l-30 -35 5 83 c5 76 4 84 -16 100 -12 9 -36 30 -52 46
l-31 29 60 17 c57 16 60 18 69 56 29 130 31 133 66 85z m816 -3 l29 -33 -32
29 c-18 17 -33 31 -33 33 0 8 8 1 36 -29z m5617 -8 c9 0 17 -5 17 -11 0 -7
-12 -9 -36 -4 -56 10 -84 23 -84 39 0 13 7 12 43 -4 23 -11 50 -20 60 -20z
m-3638 -59 c-9 -51 -48 -107 -94 -133 -38 -22 -39 -24 -35 -68 5 -41 1 -50
-35 -98 -46 -58 -47 -62 -27 -62 8 0 18 10 22 23 11 37 44 77 68 83 17 4 31
-2 50 -21 14 -14 26 -30 26 -35 0 -6 7 -10 15 -10 8 0 15 4 15 9 0 5 35 32 78
61 64 43 81 50 102 43 53 -18 65 -97 19 -118 -12 -5 -27 -19 -33 -30 -16 -30
-27 -35 -72 -35 -26 0 -47 7 -61 19 -20 19 -21 19 -54 -15 -18 -18 -47 -36
-65 -40 -25 -4 -33 -12 -37 -34 -8 -40 -33 -60 -73 -60 -65 0 -124 47 -124
100 -1 36 -22 60 -48 53 -26 -6 -82 15 -82 31 0 7 5 17 12 24 9 9 8 15 -7 26
-10 7 -16 20 -12 29 4 10 -2 17 -19 21 -14 4 -33 20 -43 36 -10 17 -21 27 -24
24 -3 -4 -9 6 -13 20 -9 39 33 114 83 150 35 24 47 27 78 22 48 -9 85 -46 85
-86 0 -23 5 -30 19 -30 28 0 42 23 47 76 2 26 10 51 17 56 17 11 55 10 78 -3
16 -8 25 -7 42 8 16 14 19 14 9 1 -7 -9 -9 -18 -5 -20 4 -3 2 -3 -5 -2 -9 3
-10 -1 -2 -16 13 -25 13 -76 -1 -102 -27 -51 28 -22 67 36 33 48 31 58 -10 55
-19 -2 -38 0 -42 4 -4 4 14 7 39 7 39 0 47 3 47 19 0 10 -9 31 -21 47 l-21 29
27 -29 c22 -24 26 -35 20 -65z m3139 74 c-4 -10 0 -15 12 -15 11 0 26 -5 34
-11 11 -8 7 -9 -19 -5 -19 4 -37 8 -39 11 -5 5 5 35 12 35 3 0 3 -7 0 -15z
m-3052 -24 c-9 -16 -13 -33 -10 -37 4 -4 37 3 73 15 72 23 84 25 70 12 -11
-10 -96 -37 -137 -44 -28 -4 -28 -4 -6 56 6 15 14 27 19 27 4 0 0 -13 -9 -29z
m3674 -28 c-10 -10 -19 5 -10 18 6 11 8 11 12 0 2 -7 1 -15 -2 -18z m-536 -22
c0 -23 6 -29 37 -39 32 -10 40 -9 56 6 11 9 -2 -14 -28 -51 -66 -95 -80 -90
-80 30 0 50 3 89 8 86 4 -2 7 -17 7 -32z m-5482 22 c-10 -2 -26 -2 -35 0 -10
3 -2 5 17 5 19 0 27 -2 18 -5z m303 -32 c-16 -30 -48 -35 -92 -15 -22 9 -37
19 -35 21 2 3 19 -3 36 -12 42 -22 78 -13 87 23 3 15 8 22 10 15 3 -7 0 -21
-6 -32z m-1463 8 c22 -2 39 -6 36 -11 -3 -4 -1 -8 3 -8 12 0 33 -60 33 -93 0
-20 5 -27 20 -27 26 0 105 -78 113 -112 6 -21 2 -31 -18 -46 -22 -17 -24 -24
-18 -70 11 -94 -13 -152 -63 -152 -17 0 -24 6 -24 19 0 20 -19 31 -54 31 -13
0 -35 9 -50 21 -26 21 -35 19 -71 -11 -25 -21 -56 -33 -52 -20 1 6 -9 16 -23
23 -34 17 -38 66 -10 113 l22 35 -24 19 c-17 13 -25 30 -26 55 -1 20 -4 40 -7
45 -8 13 54 50 83 50 17 0 22 6 22 25 0 30 26 84 49 103 9 8 10 10 2 6 -9 -5
-12 -3 -7 5 4 6 11 9 15 7 4 -3 26 -6 49 -7z m1189 -11 c-3 -8 -6 -5 -6 6 -1
11 2 17 5 13 3 -3 4 -12 1 -19z m-364 -32 c-2 -28 -17 -46 -37 -46 -6 0 -3 6
6 13 9 6 19 22 23 34 6 21 3 22 -57 26 l-63 3 65 0 65 -1 -2 -29z m4532 24
c-3 -5 -12 -10 -18 -10 -7 0 -6 4 3 10 19 12 23 12 15 0z m-4049 -49 c-14 -27
-51 -50 -62 -38 -3 2 6 7 20 11 17 4 29 18 38 42 7 19 14 31 16 25 2 -5 -4
-23 -12 -40z m-96 4 c0 -5 -5 -3 -10 5 -5 8 -10 20 -10 25 0 6 5 3 10 -5 5 -8
10 -19 10 -25z m4076 -54 c19 -17 31 -31 27 -31 -4 0 -22 14 -40 32 -24 24
-33 40 -31 62 l1 31 4 -32 c3 -21 16 -43 39 -62z m1534 53 c0 -2 -9 0 -20 6
-11 6 -20 13 -20 16 0 2 9 0 20 -6 11 -6 20 -13 20 -16z m-1167 -1 c-7 -2 -21
-2 -30 0 -10 3 -4 5 12 5 17 0 24 -2 18 -5z m11 -28 c-9 -14 -21 -25 -28 -25
-6 0 -4 5 4 10 8 5 11 10 6 10 -6 0 -1 7 10 15 26 20 27 19 8 -10z m-2846 -28
c15 -11 12 -39 -8 -85 -15 -33 -16 -34 -65 -27 -82 10 -96 38 -47 93 27 30 29
31 46 14 16 -16 17 -16 10 11 -6 27 -6 27 22 15 16 -6 35 -16 42 -21z m3052
-14 c-24 -17 -35 -12 -27 11 4 9 14 12 27 9 l21 -6 -21 -14z m-257 10 c-7 -2
-19 -2 -25 0 -7 3 -2 5 12 5 14 0 19 -2 13 -5z m162 -3 c4 -6 -7 -10 -25 -10
-18 0 -29 4 -25 10 3 6 15 10 25 10 10 0 22 -4 25 -10z m-4723 -78 c8 -10 13
-8 24 5 12 16 13 16 14 -9 0 -15 -4 -30 -10 -33 -5 -3 -10 -16 -10 -29 0 -18
10 -27 41 -39 33 -13 40 -20 37 -39 -2 -19 -10 -24 -48 -28 -44 -5 -45 -6 -45
-42 -1 -68 -47 -79 -76 -19 l-16 34 -11 -31 c-12 -35 -41 -43 -62 -17 -9 11
-9 22 -1 46 10 28 9 34 -10 47 -13 9 -19 23 -17 40 3 24 8 27 49 30 39 2 48 7
53 25 9 35 7 47 -9 47 -8 0 -15 7 -15 15 0 9 9 15 24 15 13 0 34 9 47 19 24
19 24 19 27 -2 2 -12 9 -28 14 -35z m4301 -44 c8 -5 6 -8 -5 -8 -15 0 -18 8
-16 43 1 40 1 40 5 7 3 -19 10 -38 16 -42z m1267 16 c0 -8 -9 -14 -20 -14 -11
0 -20 -2 -20 -4 0 -2 -3 -11 -6 -20 -4 -11 -1 -16 10 -16 9 0 16 -5 16 -11 0
-13 -36 -66 -61 -91 -16 -16 -17 -15 -23 14 -3 16 -18 39 -32 50 -20 16 -23
23 -12 30 9 6 6 7 -9 3 -13 -3 -23 -2 -23 3 0 12 46 32 75 32 14 0 25 4 25 9
0 5 14 11 31 15 17 3 28 10 24 16 -3 6 0 7 9 4 9 -3 16 -12 16 -20z m-1703 10
c-3 -3 -12 -4 -19 -1 -8 3 -5 6 6 6 11 1 17 -2 13 -5z m-5387 -14 c0 -5 -5
-10 -11 -10 -5 0 -7 5 -4 10 3 6 8 10 11 10 2 0 4 -4 4 -10z m5583 3 c-7 -2
-19 -2 -25 0 -7 3 -2 5 12 5 14 0 19 -2 13 -5z m-2668 -45 c17 -43 4 -68 -36
-68 -41 0 -59 38 -35 75 23 35 54 32 71 -7z m2448 -17 c-2 -3 -16 8 -31 24
l-27 28 31 -24 c17 -13 30 -26 27 -28z m-5359 24 c-4 -11 -2 -13 9 -9 8 3 18
1 22 -5 3 -6 19 -11 36 -11 43 0 35 -15 -10 -17 -40 -3 -80 25 -66 46 9 16 15
13 9 -4z m1396 5 c13 -8 13 -10 -2 -10 -9 0 -20 5 -23 10 -8 13 5 13 25 0z
m4927 -292 c-1 -57 -3 -11 -3 102 0 113 2 159 3 103 2 -57 2 -149 0 -205z
m-6416 266 c7 -8 26 -22 41 -30 21 -11 28 -21 26 -37 -4 -29 -43 -27 -92 5
-33 21 -47 54 -29 71 12 12 40 7 54 -9z m9157 4 c-6 -18 -28 -21 -28 -4 0 9 7
16 16 16 9 0 14 -5 12 -12z m-3982 -30 c9 -33 34 -58 56 -58 24 0 23 -27 -1
-35 -26 -8 -33 -28 -40 -119 -4 -50 -11 -81 -18 -84 -10 -3 -13 13 -13 58 0
66 -14 102 -54 139 -33 31 -33 51 -1 51 19 0 26 7 31 28 12 49 28 57 40 20z
m2172 -7 c8 -4 12 -19 10 -32 -4 -29 -45 -34 -61 -7 -19 30 19 60 51 39z
m-7693 -21 c-3 -5 -26 -10 -50 -10 -24 0 -47 5 -50 10 -4 6 15 10 50 10 35 0
54 -4 50 -10z m1506 -885 c2 -86 4 -120 6 -79 3 62 7 73 27 84 16 8 29 29 38
64 l15 51 -5 -71 -5 -71 44 -6 c72 -10 89 20 104 180 l7 72 -74 4 c-61 2 -56
3 33 5 l107 2 16 -34 c9 -19 16 -51 16 -73 0 -34 4 -41 34 -57 40 -21 66 -16
66 13 0 32 18 34 34 3 8 -16 26 -36 39 -45 22 -14 24 -14 35 4 7 11 23 24 35
30 13 6 28 23 35 38 12 27 48 51 78 51 8 0 31 -9 51 -20 37 -20 37 -20 10 -20
-15 0 -64 -14 -107 -31 -60 -23 -84 -38 -94 -57 -8 -15 -36 -49 -63 -77 l-48
-50 -92 9 c-76 7 -99 6 -132 -8 -62 -24 -207 -138 -293 -229 l-78 -82 0 98 c0
60 5 105 12 117 10 15 10 22 0 32 -14 14 -16 70 -3 83 5 6 11 19 14 30 3 11 5
-42 4 -118 -2 -112 0 -134 11 -120 6 9 12 26 12 37 0 15 3 17 9 8 16 -26 21
98 21 583 l0 490 33 23 32 22 6 -367 c3 -203 8 -435 10 -518z m4359 882 c0 -2
-15 -16 -32 -33 l-33 -29 29 33 c28 30 36 37 36 29z m-2175 -108 c20 -21 19
-29 -15 -69 -17 -19 -30 -42 -30 -52 0 -23 -19 -23 -26 0 -3 9 -14 34 -24 54
-25 47 -25 50 6 100 l27 42 24 -30 c13 -16 30 -36 38 -45z m2668 5 c72 -70 83
-90 41 -74 -14 6 -51 10 -83 10 -45 0 -58 -3 -58 -15 0 -12 16 -15 80 -15 63
0 78 -3 74 -14 -4 -10 0 -12 16 -8 12 3 25 10 28 15 4 5 12 6 19 2 9 -6 9 -10
-1 -17 -11 -8 -10 -9 3 -5 9 3 24 -3 34 -14 18 -20 6 -27 -14 -7 -7 7 -12 8
-12 4 0 -4 20 -27 44 -51 24 -24 53 -63 65 -87 18 -36 19 -45 7 -63 -20 -30
-55 -44 -134 -51 -66 -6 -74 -5 -134 26 -89 45 -135 93 -154 158 -27 93 8 237
64 259 42 17 43 16 115 -53z m1931 60 c20 -8 21 -38 1 -54 -21 -17 -45 -5 -45
23 0 35 12 43 44 31z m-698 -39 c-3 -8 -16 -14 -28 -14 l-23 2 23 4 c14 3 22
12 23 26 0 12 3 16 6 9 3 -7 2 -19 -1 -27z m-58 0 c-3 -3 -9 2 -12 12 -6 14
-5 15 5 6 7 -7 10 -15 7 -18z m2279 3 c-3 -8 -6 -5 -6 6 -1 11 2 17 5 13 3 -3
4 -12 1 -19z m-2381 -28 c4 -12 6 -13 14 0 5 8 12 11 16 7 12 -12 -11 -28 -29
-21 -10 4 -17 17 -16 33 0 14 3 19 6 11 2 -8 7 -22 9 -30z m-6887 4 c10 -9
-45 -3 -59 6 -11 7 -5 8 20 4 19 -4 37 -8 39 -10z m5428 -11 c4 -9 -8 -26 -28
-42 -94 -78 -258 -255 -288 -311 -34 -63 -47 -78 -31 -35 46 121 94 195 195
302 84 89 109 110 126 106 11 -3 23 -12 26 -20z m633 -9 c0 -3 -7 -1 -15 6 -8
7 -15 17 -15 22 0 5 7 3 15 -6 8 -8 15 -18 15 -22z m-2067 -8 c18 -13 43 -27
56 -31 22 -7 23 -10 18 -65 -4 -39 -3 -60 4 -62 7 -2 -1 -18 -16 -36 -52 -62
-106 -34 -136 71 -7 24 -5 30 11 34 15 4 18 11 13 34 -5 28 3 79 13 79 3 0 20
-11 37 -24z m-1403 -21 c21 -23 22 -26 8 -42 -9 -10 -22 -38 -28 -63 l-12 -45
-20 64 c-18 58 -18 65 -4 73 9 5 16 16 16 23 0 22 13 18 40 -10z m3412 -31
c69 -65 138 -178 138 -226 0 -41 -72 -166 -136 -236 -36 -40 -70 -72 -76 -72
-6 0 13 25 41 55 31 32 65 83 83 122 26 57 29 74 23 117 -3 28 -11 56 -17 63
-7 9 -7 13 1 13 23 0 9 20 -79 112 l-89 95 40 -7 c23 -4 53 -20 71 -36z
m-2155 14 c-3 -8 -6 -5 -6 6 -1 11 2 17 5 13 3 -3 4 -12 1 -19z m5155 -15 c21
-19 24 -34 6 -30 -7 1 -12 -5 -11 -13 26 -193 24 -430 -4 -430 -7 0 -13 7 -13
16 0 11 -5 14 -16 10 -8 -3 -33 -3 -55 0 -32 5 -39 11 -39 29 0 19 4 22 21 18
15 -4 25 0 33 13 17 30 36 103 46 179 5 39 12 87 16 108 8 50 -8 70 -50 61
-17 -3 -35 -10 -40 -15 -19 -17 -26 -9 -26 31 l0 40 57 0 c38 0 62 -5 75 -17z
m-1423 0 c-4 -22 3 -24 21 -8 18 16 20 16 20 2 0 -11 8 -17 23 -17 27 0 70
-28 62 -41 -4 -5 -1 -9 4 -9 6 0 11 7 11 15 0 8 -4 15 -10 15 -15 0 -12 27 4
33 11 4 13 1 8 -11 -6 -16 -4 -16 21 1 46 30 55 21 32 -35 -5 -12 -1 -16 12
-15 15 2 17 -4 15 -35 -4 -48 13 -49 30 -2 10 28 16 34 33 30 11 -3 26 -6 33
-6 16 0 6 -39 -13 -55 -9 -8 -9 -15 1 -34 12 -24 13 -24 19 13 5 23 17 43 31
53 15 9 24 25 24 41 0 24 -1 25 -13 8 -12 -17 -14 -17 -20 -3 -7 19 8 31 29
23 15 -6 44 7 77 33 9 8 17 10 17 5 0 -14 -16 -36 -26 -36 -5 0 -8 -5 -6 -10
4 -15 -29 -98 -54 -136 -42 -61 -65 -120 -67 -169 -2 -44 -5 -49 -37 -64 -19
-10 -57 -19 -83 -22 -39 -4 -47 -2 -43 10 15 39 -50 54 -93 21 -29 -22 -64
-23 -81 -3 -11 13 -15 12 -39 -4 -26 -19 -27 -19 -65 0 -22 10 -55 19 -73 19
-63 0 -104 72 -73 130 13 24 80 64 103 61 26 -3 21 14 -8 27 -28 13 -32 30
-10 38 8 4 15 12 15 18 0 11 52 56 64 56 2 0 6 -8 8 -17 2 -12 14 -2 41 35 32
46 59 67 56 45z m-2673 -27 c8 -21 -14 -56 -31 -50 -15 6 -21 45 -8 57 11 12
33 8 39 -7z m3691 -139 c-2 -23 -3 -1 -3 48 0 50 1 68 3 42 2 -26 2 -67 0 -90z
m-8903 57 c8 -21 -11 -44 -36 -44 -21 0 -33 22 -24 45 7 20 52 19 60 -1z
m7196 -15 c0 -12 -7 -19 -20 -19 -24 0 -38 29 -20 40 19 12 40 1 40 -21z
m-6350 -85 c0 -94 -10 -114 -55 -114 -54 0 -66 21 -63 104 l3 71 40 6 c80 12
75 17 75 -67z m2575 -120 c50 -34 114 -85 144 -114 51 -50 52 -52 35 -71 -23
-26 -32 -24 -80 14 -146 114 -299 250 -271 241 25 -9 22 23 -5 48 -13 11 2 3
32 -18 30 -21 96 -66 145 -100z m185 106 c8 -15 8 -30 -1 -55 -7 -19 -16 -35
-19 -35 -6 0 -40 64 -40 75 0 7 32 35 40 35 5 0 14 -9 20 -20z m3789 -19 c14
-26 32 -44 58 -55 21 -8 55 -31 76 -50 30 -27 34 -35 21 -40 -26 -10 -116 -6
-154 7 l-35 12 0 82 c0 46 3 83 7 83 4 0 16 -17 27 -39z m-7439 -32 c0 -31 -4
-48 -10 -44 -5 3 -10 13 -10 22 0 9 -6 13 -15 9 -10 -4 -15 1 -15 16 0 17 2
19 16 8 8 -8 14 -9 13 -4 -4 21 2 44 11 44 6 0 10 -23 10 -51z m-144 -58 c-4
-6 -23 -15 -44 -21 -48 -13 -135 -13 -127 0 3 6 16 10 28 11 12 0 47 9 77 19
53 17 80 14 66 -9z m6819 -36 c0 -33 -21 -41 -38 -14 -14 22 -1 51 20 47 13
-2 18 -13 18 -33z m2298 -86 c4 -52 12 -95 17 -97 6 -2 10 -10 10 -18 0 -8 5
-14 10 -14 6 0 19 -9 30 -20 24 -24 27 -87 6 -104 -17 -13 -22 -170 -18 -558
l2 -247 30 11 c43 15 88 -6 106 -48 18 -44 18 -44 -14 -44 -61 0 -103 -70 -66
-111 16 -18 16 -19 0 -19 -9 0 -27 11 -40 25 l-23 25 -2 -120 c-2 -102 0 -120
13 -120 15 0 120 -62 201 -119 22 -16 96 -58 165 -94 l125 -66 5 -44 6 -44
-26 12 c-36 17 -134 62 -210 97 -36 16 -85 39 -110 50 -25 12 -56 29 -70 38
-61 41 -61 41 -55 -82 3 -61 8 -114 10 -118 2 -3 5 -48 6 -98 2 -51 6 -92 10
-92 5 0 11 -17 14 -37 10 -61 25 -92 41 -86 19 7 46 -17 39 -34 -7 -20 26 -46
118 -93 l77 -40 2 -108 c1 -94 2 -100 8 -47 5 42 7 12 8 -102 l2 -163 -73 0
c-58 0 -83 5 -118 23 -42 22 -44 26 -51 78 -3 30 -6 138 -7 240 -1 153 -4 189
-16 199 -13 11 -15 3 -15 -64 0 -44 -4 -76 -10 -76 -5 0 -10 21 -10 48 -1 26
-3 71 -6 101 -4 39 -2 56 8 62 10 6 10 9 1 9 -8 0 -13 16 -14 43 -1 41 -1 42
-11 12 -5 -16 -13 -114 -16 -216 -5 -126 -12 -192 -20 -202 -9 -11 -12 -46 -8
-123 l4 -109 49 -40 c27 -22 75 -66 106 -97 32 -31 64 -55 70 -52 7 2 73 -49
148 -113 74 -65 150 -130 167 -145 32 -27 32 -27 31 -117 -1 -50 -3 -91 -4
-91 -8 0 -164 125 -250 200 -215 188 -319 277 -367 315 l-50 39 8 126 c4 69 6
134 5 145 -2 11 -5 609 -7 1328 -3 1052 -2 1308 8 1305 9 -3 16 -38 21 -99z
m-8093 66 c19 -22 27 -210 10 -230 -15 -18 -59 -19 -82 -1 -15 11 -18 30 -18
119 0 90 3 108 18 116 25 15 58 13 72 -4z m8141 -73 c1 -40 -1 -75 -4 -79 -4
-3 -7 31 -7 77 0 101 8 103 11 2z m-7026 22 c30 -33 31 -38 4 -65 -22 -22 -55
-19 -76 9 -17 21 -17 25 8 56 26 33 34 33 64 0z m6052 11 c-18 -13 -70 -9 -62
5 3 4 22 8 42 8 33 0 35 -2 20 -13z m-4765 -20 c10 -22 9 -29 -8 -46 -25 -24
-52 -16 -60 17 -13 50 47 75 68 29z m3671 -2 c-7 -2 -19 -2 -25 0 -7 3 -2 5
12 5 14 0 19 -2 13 -5z m-5786 -195 c-2 -35 -3 -7 -3 62 0 69 1 97 3 63 2 -35
2 -91 0 -125z m1263 157 c0 -14 -2 -25 -4 -25 -2 0 -6 11 -8 25 -3 14 -1 25 3
25 5 0 9 -11 9 -25z m690 6 c0 -27 -19 -36 -37 -18 -18 18 -9 37 18 37 12 0
19 -7 19 -19z m2172 -118 l3 -138 55 -115 c29 -63 61 -126 69 -139 9 -13 16
-39 17 -57 0 -18 7 -40 14 -49 22 -27 109 -67 131 -60 10 4 29 -1 41 -9 61
-43 121 -7 177 108 42 85 96 146 128 146 9 0 45 16 81 35 35 20 67 33 70 30 7
-6 21 -282 21 -408 0 -96 5 -114 26 -97 22 19 51 -5 80 -64 32 -66 30 -90 -8
-94 -22 -3 -31 3 -45 28 -9 18 -25 42 -34 54 -16 21 -17 20 -28 -26 l-12 -48
-120 0 c-93 0 -124 3 -144 16 -24 16 -27 16 -52 -3 l-28 -21 -27 24 c-21 18
-40 24 -72 24 -44 0 -44 0 -39 29 5 23 1 35 -20 56 -30 30 -60 28 -129 -7 -23
-11 -53 -18 -74 -16 -31 3 -37 7 -40 31 -6 45 50 126 118 172 72 47 39 86 -59
70 -26 -5 -74 -7 -107 -6 -53 2 -65 -2 -102 -29 -28 -21 -47 -46 -59 -77 -25
-64 -12 -86 74 -130 2 -1 -8 -21 -22 -46 -14 -24 -26 -53 -26 -65 0 -21 -4
-22 -100 -22 l-99 0 -11 43 c-38 142 -79 209 -118 188 -14 -7 -23 -8 -27 -1
-11 18 -25 11 -79 -40 -30 -28 -69 -55 -87 -60 -18 -5 -33 -9 -33 -7 -1 1 -10
20 -21 41 -26 52 -63 78 -110 78 -20 0 -53 7 -72 15 -42 17 -96 11 -163 -19
-74 -33 -150 -56 -155 -47 -3 4 -20 11 -38 14 -17 4 -56 18 -85 32 -99 47
-170 43 -252 -12 -31 -21 -50 -29 -50 -20 0 39 -56 127 -100 158 -48 33 -151
10 -179 -41 -8 -14 -26 -17 -104 -17 -87 0 -97 -2 -136 -29 -37 -26 -104 -102
-73 -82 8 5 10 2 6 -8 -3 -9 -10 -13 -15 -10 -5 3 -7 -1 -4 -8 3 -7 1 -19 -4
-27 -7 -11 -20 -6 -68 23 -76 47 -140 50 -172 10 -11 -14 -23 -41 -27 -60 -3
-19 -7 -34 -8 -34 0 0 -19 7 -41 15 -87 31 -164 8 -200 -61 l-20 -39 -155 0
c-85 0 -235 -3 -332 -6 -126 -4 -175 -3 -171 5 4 6 25 35 47 65 87 119 142
269 132 357 l-6 53 42 12 c24 7 51 19 61 27 23 21 23 92 -2 123 -30 39 -18 47
67 42 56 -4 89 -1 114 10 36 15 37 15 53 -10 13 -19 22 -23 41 -19 23 6 24 4
24 -39 0 -35 6 -52 25 -70 32 -33 48 -31 85 5 31 31 58 33 84 9 6 -5 22 -9 37
-9 33 0 40 -9 46 -59 10 -75 60 -122 115 -108 12 3 17 2 12 -3 -5 -5 -22 -10
-38 -12 l-28 -3 22 -27 c25 -32 64 -36 95 -10 24 20 107 127 124 160 l12 23
24 -23 c62 -59 63 -60 80 -35 12 18 15 18 15 4 0 -21 13 -22 30 -2 11 13 10
18 -4 28 -14 10 -15 17 -5 45 13 39 18 39 152 10 88 -20 132 -23 325 -23 199
0 225 2 236 17 11 15 15 12 35 -30 35 -73 109 -180 135 -197 22 -15 28 -15 62
0 46 19 165 115 209 169 40 50 95 158 95 186 0 12 -5 31 -12 43 -10 19 -9 20
3 10 8 -7 26 -17 40 -23 22 -10 22 -10 2 -6 -19 3 -23 0 -23 -22 -1 -15 -7
-38 -15 -52 -20 -34 -19 -38 10 -32 31 5 32 -5 3 -35 -20 -21 -20 -23 -4 -17
15 6 17 4 11 -6 -5 -7 -4 -11 1 -8 5 4 26 9 47 12 35 6 38 4 54 -30 16 -33 16
-37 1 -65 -10 -16 -13 -29 -8 -29 6 0 10 4 10 9 0 5 13 14 29 19 40 14 47 44
22 88 -23 38 -20 54 8 54 14 0 20 -10 24 -40 12 -93 58 -113 131 -58 73 55
165 212 150 253 -3 8 6 29 20 46 22 26 24 34 15 52 -11 18 -7 25 25 53 31 27
34 33 19 36 -10 2 -28 -8 -41 -24 -19 -22 -32 -28 -60 -26 l-37 1 37 4 c25 3
44 13 58 30 16 21 30 27 62 27 34 1 45 6 54 25 15 30 32 41 64 41 14 0 41 11
60 25 25 17 49 24 81 25 l47 0 4 -137z m282 -72 c-7 -20 -18 -27 -49 -32 -22
-4 -42 -5 -44 -3 -7 6 -16 137 -13 177 2 22 7 35 13 31 19 -12 79 6 81 24 0 9
6 -25 11 -77 6 -57 6 -104 1 -120z m176 173 c-6 16 -9 30 -7 32 2 2 22 -18 45
-45 26 -30 63 -60 97 -76 48 -24 66 -27 145 -26 50 0 95 3 100 6 5 3 27 8 50
11 l42 6 -23 -27 c-31 -35 -115 -89 -162 -105 -42 -13 -172 -23 -200 -14 -9 3
-15 10 -12 15 3 5 -1 6 -10 3 -37 -15 -88 64 -100 153 -3 26 -9 62 -12 78 l-5
30 31 -35 c31 -35 31 -35 21 -6z m1387 -4 c5 -19 14 -20 137 -21 505 -5 519
-5 559 -28 21 -11 45 -21 55 -21 9 0 30 -8 45 -19 l28 -18 -68 -6 c-90 -9
-803 -7 -923 3 -52 3 -84 7 -71 8 l24 2 -23 25 c-13 14 -38 30 -54 35 -27 8
-22 9 29 8 134 -4 205 2 205 15 0 35 49 50 57 17z m-4732 -18 c-53 -42 -60
-46 -33 -19 16 15 31 27 35 27 4 0 3 -3 -2 -8z m2108 -134 c6 -4 27 -8 45 -8
44 0 40 -12 -10 -35 l-43 -20 -8 -70 c-12 -110 -34 -113 -39 -5 -3 54 -4 55
-46 74 -49 23 -52 45 -8 57 36 10 41 18 63 94 l18 60 7 -70 c5 -38 14 -73 21
-77z m2075 79 c2 -36 0 -47 -12 -47 -8 0 -17 -10 -19 -22 -2 -13 -5 3 -6 34 0
31 2 64 5 73 12 29 29 9 32 -38z m-5969 -212 c0 -71 -4 -137 -9 -145 -6 -10
-10 44 -10 163 0 116 -3 176 -10 172 -6 -4 -10 5 -10 20 0 15 4 24 10 20 6 -3
11 2 12 12 3 47 16 -126 17 -242z m6076 228 c9 -43 20 -58 44 -61 28 -4 27
-20 -3 -32 -30 -11 -41 -31 -51 -87 -6 -41 -28 -63 -24 -25 3 34 -1 50 -26 86
-28 42 -32 66 -10 66 8 0 22 18 31 40 19 47 31 51 39 13z m-2910 -32 c-3 -6 5
-15 17 -22 37 -20 51 -49 22 -49 -8 0 -31 11 -50 24 l-35 24 22 16 c27 18 33
20 24 7z m-1644 -18 c13 -16 12 -17 -3 -4 -17 13 -22 21 -14 21 2 0 10 -8 17
-17z m2670 -10 c10 -11 10 -14 2 -9 -10 5 -13 -7 -13 -53 0 -87 -28 -145 -85
-173 -11 -5 -5 3 14 18 45 37 61 80 61 164 0 38 2 70 4 70 2 0 10 -8 17 -17z
m-2494 -35 c-3 -7 -5 -2 -5 12 0 14 2 19 5 13 2 -7 2 -19 0 -25z m-124 -24
c29 -7 24 -9 -58 -30 -49 -13 -93 -23 -97 -23 -5 -1 -8 -8 -8 -18 0 -14 -2
-14 -20 2 -11 10 -17 21 -15 25 3 5 37 14 75 21 63 11 71 15 77 38 5 18 8 21
11 9 2 -9 17 -20 35 -24z m-1346 4 c21 -27 35 -110 31 -177 -4 -84 -14 -98
-60 -85 l-33 10 -3 118 c-3 122 3 146 38 146 10 0 22 -6 27 -12z m1423 2 c0
-5 -8 -10 -17 -10 -15 0 -16 2 -3 10 19 12 20 12 20 0z m4151 -88 c1 -42 2
-194 3 -337 3 -370 4 -384 18 -360 11 18 36 424 37 599 1 53 3 58 14 41 8 -10
19 -15 25 -11 9 5 12 -17 12 -80 0 -136 18 -89 27 71 l8 140 14 -155 c9 -113
10 -163 2 -183 -13 -33 -14 -223 -2 -286 5 -24 18 -52 29 -63 19 -19 19 -20 1
-58 -11 -23 -19 -61 -19 -93 0 -52 1 -54 24 -50 22 5 23 8 18 74 -5 75 8 118
50 156 48 44 95 37 85 -13 -3 -16 1 -37 10 -50 8 -13 13 -31 10 -41 -4 -14 -5
-13 -6 5 0 12 -3 22 -6 22 -19 0 -95 -109 -91 -130 1 -8 9 -27 16 -42 11 -23
10 -31 -4 -53 -18 -28 -53 -45 -92 -45 -19 0 -24 -5 -24 -26 0 -24 2 -25 44
-19 51 8 63 -3 35 -33 -22 -24 -49 -28 -67 -10 -9 9 -12 8 -12 -5 0 -14 11
-17 73 -17 49 0 67 3 57 10 -12 8 -13 12 -2 27 7 10 20 35 29 56 19 45 33 48
33 7 0 -19 7 -34 20 -42 24 -15 26 -34 5 -42 -42 -16 0 -22 153 -23 198 -2
356 -13 327 -23 -18 -6 -17 -8 10 -26 23 -15 54 -20 144 -25 76 -3 8 -6 -192
-7 l-308 -2 22 -29 c25 -34 22 -65 -8 -69 -24 -4 -103 61 -103 84 0 11 -16 14
-65 14 -36 0 -65 -3 -65 -8 0 -4 36 -43 80 -87 44 -44 80 -85 80 -92 0 -7 5
-13 11 -13 6 0 9 9 6 20 -5 19 -4 19 27 3 31 -17 37 -19 56 -22 13 -2 60 -54
60 -67 0 -6 7 -11 16 -11 11 0 14 7 10 26 -5 21 -1 18 19 -14 29 -44 28 -90
-2 -112 -24 -18 -74 -16 -103 3 -14 9 9 -15 50 -54 121 -114 123 -116 133 -88
4 9 -1 17 -11 19 -9 3 0 5 20 6 21 0 56 -7 77 -16 34 -15 41 -23 45 -53 8 -66
6 -149 -4 -155 -6 -3 -10 3 -10 16 0 18 -2 19 -15 9 -9 -7 -27 -10 -45 -7 -16
4 -32 3 -34 -2 -3 -5 -26 -14 -51 -20 -55 -14 -85 -2 -85 34 0 13 -4 27 -10
30 -16 10 -12 75 4 75 13 0 33 37 24 44 -1 2 -23 18 -48 35 -61 44 -234 202
-238 217 -6 25 20 25 61 0 l43 -25 -4 30 c-2 16 -10 29 -17 29 -23 0 -183 159
-202 200 -23 51 -45 51 -61 0 -11 -36 -10 -46 13 -100 29 -69 30 -74 11 -67
-16 6 -30 -82 -20 -132 4 -18 0 -46 -8 -68 -12 -30 -15 -108 -17 -383 -1 -190
2 -358 7 -375 l8 -30 119 -3 c133 -3 154 6 26 12 -45 2 -85 6 -88 10 -4 3 416
6 932 6 516 0 936 -2 934 -4 -2 -2 -96 -6 -208 -10 -113 -4 -207 -9 -210 -13
-4 -3 120 -3 274 0 203 4 275 3 261 -5 -13 -7 -328 -11 -1043 -12 -902 -1
-1024 1 -1028 14 -2 8 -3 186 -2 396 l1 380 -43 45 c-23 24 -50 61 -58 82 -8
20 -19 37 -24 37 -5 0 -10 -71 -11 -157 l-3 -158 -38 -3 c-32 -3 -38 0 -47 22
-6 16 -7 140 -3 323 l7 298 45 30 46 30 3 -120 c1 -66 6 -123 11 -128 24 -24
26 489 2 530 -8 14 -10 8 -11 -30 l0 -49 -31 31 c-17 17 -41 34 -54 37 -16 4
-28 18 -35 40 -17 51 -16 164 1 194 10 18 14 59 14 143 0 114 1 120 24 139 14
10 32 17 41 15 11 -3 17 4 18 23 2 24 -1 27 -23 22 -44 -8 -55 12 -55 104 0
85 10 126 37 156 12 13 20 15 34 7 16 -8 19 -22 20 -87z m-4064 34 c-5 -13
-10 -12 -33 9 -15 14 -32 25 -38 26 -6 1 0 4 14 9 30 9 66 -19 57 -44z m-1160
-113 c-2 -32 -3 -8 -3 52 0 61 1 87 3 58 2 -29 2 -78 0 -110z m8068 138 c216
-80 285 -115 285 -142 0 -12 9 -33 21 -47 12 -15 16 -28 10 -30 -6 -2 -61 19
-123 46 -62 27 -133 56 -158 66 -65 24 -69 27 -79 79 -4 26 -8 47 -7 47 1 0
24 -8 51 -19z m-8191 -113 c-11 -17 19 -38 52 -38 24 0 34 -5 34 -15 0 -8 -6
-15 -14 -15 -22 0 -55 -48 -61 -89 -13 -77 -20 -78 -44 -5 -13 38 -32 78 -42
90 -25 27 -24 34 5 34 30 0 42 15 52 65 l7 40 8 -29 c5 -16 6 -33 3 -38z m908
35 c22 -20 23 -52 2 -60 -24 -9 -47 9 -49 38 -4 43 14 52 47 22z m3956 -20
c-26 -14 -45 -29 -43 -33 7 -11 -44 -42 -55 -35 -20 12 23 55 73 74 72 28 81
25 25 -6z m-3859 -17 c0 -14 -2 -16 -6 -6 -3 8 -10 21 -16 28 -7 9 -6 11 7 6
9 -3 16 -16 15 -28z m7538 12 c-3 -8 -6 -5 -6 6 -1 11 2 17 5 13 3 -3 4 -12 1
-19z m3 -250 c0 -127 -3 -228 -7 -224 -4 4 -6 79 -4 166 1 87 -1 165 -5 172
-13 21 -3 118 12 118 2 0 4 -104 4 -232z m-3938 205 c22 -20 23 -36 3 -53 -13
-10 -19 -10 -35 5 -25 22 -27 65 -3 65 9 0 25 -7 35 -17z m-169 -21 c-1 -5 6
-8 16 -5 20 5 71 -23 71 -38 0 -5 -7 -9 -14 -9 -13 0 -13 -4 0 -35 24 -58 20
-72 -22 -67 -38 5 -55 23 -77 87 -16 43 -7 90 15 82 7 -2 12 -9 11 -15z
m-5388 -12 c0 -8 -8 -16 -17 -18 -13 -2 -18 3 -18 18 0 15 5 20 18 18 9 -2 17
-10 17 -18z m-191 -29 c35 -36 41 -61 15 -61 -15 0 -76 49 -83 66 -7 19 1 34
18 34 6 0 29 -18 50 -39z m-147 -3 c-3 -7 -5 -2 -5 12 0 14 2 19 5 13 2 -7 2
-19 0 -25z m4653 18 c0 -2 -7 -6 -15 -10 -8 -3 -15 -1 -15 4 0 6 7 10 15 10 8
0 15 -2 15 -4z m-2390 -27 c0 -5 -10 -14 -22 -18 -31 -12 -47 5 -23 23 20 14
45 11 45 -5z m2150 -7 c0 -16 -48 -72 -62 -72 -3 0 -18 17 -34 38 -15 20 -21
31 -12 24 14 -11 18 -11 25 1 16 28 83 35 83 9z m-4501 -6 c9 -11 9 -20 2 -34
-13 -25 -31 -32 -53 -20 -22 11 -23 32 -2 52 19 20 38 20 53 2z m4354 -79 c41
-49 41 -67 2 -67 -19 0 -29 11 -49 56 -30 64 -30 68 -14 58 8 -5 9 -1 5 12 -6
17 -5 17 5 3 7 -8 30 -36 51 -62z m2837 32 c0 -5 -4 -9 -10 -9 -5 0 -10 7 -10
16 0 8 5 12 10 9 6 -3 10 -10 10 -16z m-4945 -41 c31 -67 33 -108 5 -108 -11
0 -20 1 -20 3 0 1 -11 32 -24 69 -13 37 -20 65 -16 63 5 -3 10 2 14 10 9 24
15 18 41 -37z m-1315 -23 c6 -4 10 -141 10 -365 0 -334 -1 -360 -18 -369 -13
-7 -24 -4 -42 11 l-25 20 27 -16 28 -16 -4 32 c-2 18 -9 34 -15 36 -15 5 -16
602 -1 602 6 0 10 30 11 68 1 58 2 63 10 35 5 -18 14 -35 19 -38z m220 55 c22
-12 44 -98 37 -143 -14 -82 -24 -124 -31 -135 -11 -18 -41 -15 -60 7 -15 17
-17 36 -14 136 3 102 6 118 22 131 23 17 22 17 46 4z m-712 -89 c32 -25 42
-39 42 -61 0 -21 10 -37 35 -57 19 -15 35 -34 35 -42 0 -11 -5 -10 -20 4 -11
10 -20 14 -20 9 0 -5 -7 1 -15 13 -8 11 -23 23 -34 26 -17 4 -17 2 5 -31 34
-49 30 -61 -9 -26 -18 16 -9 5 21 -24 29 -29 57 -50 61 -48 4 3 8 0 8 -7 0 -7
8 -25 18 -41 l19 -28 18 40 c24 49 60 67 118 57 127 -21 91 -225 -40 -225 -15
0 -20 -7 -20 -25 0 -20 5 -25 25 -25 14 0 25 -2 25 -5 0 -2 -11 -15 -25 -29
-19 -19 -25 -35 -25 -70 0 -61 -17 -67 -26 -9 -5 33 -16 56 -35 76 -35 35 -35
37 -5 37 36 0 42 40 14 90 -28 49 -68 57 -68 14 0 -22 -3 -24 -14 -15 -12 10
-15 8 -19 -11 -2 -13 -5 -3 -6 23 0 25 -6 50 -13 57 -17 17 -45 15 -58 -5 -11
-17 -11 -17 -6 1 5 13 2 17 -8 13 -10 -4 -13 -1 -10 7 3 8 -6 23 -21 34 -20
16 -22 21 -9 24 11 2 -14 32 -81 98 -53 52 -107 115 -120 139 -14 24 -19 39
-12 33 7 -6 31 -12 54 -15 45 -4 47 -5 133 -77 l55 -45 -38 45 c-21 25 -33 46
-27 48 7 3 7 9 -2 20 -7 10 2 4 20 -12 33 -31 43 -26 17 8 -19 25 -19 40 0 32
18 -7 19 5 3 24 -16 17 -2 8 60 -39z m7817 0 c3 -5 1 -12 -5 -16 -5 -3 -10 1
-10 9 0 18 6 21 15 7z m1235 -6 c15 -18 5 -35 -20 -35 -22 0 -34 15 -26 35 7
19 30 19 46 0z m-1821 -30 c9 -16 31 -50 49 -74 39 -54 40 -74 5 -109 -16 -15
-47 -52 -71 -82 -59 -77 -156 -173 -160 -161 -2 6 -13 9 -25 5 -27 -6 -48 15
-138 138 -78 106 -109 155 -109 174 0 22 79 132 98 137 9 3 88 4 176 3 l159
-1 16 -30z m649 -29 c2 -23 -1 -24 -33 -19 -27 4 -35 2 -35 -9 0 -10 7 -14 23
-11 40 8 55 -22 57 -122 3 -103 -1 -200 -7 -170 -4 22 -43 53 -43 34 0 -5 -4
-7 -10 -4 -5 3 -11 -4 -12 -17 -2 -36 -16 149 -17 235 -1 68 1 77 17 77 14 0
43 15 57 30 0 0 2 -11 3 -24z m242 -71 c0 -49 4 -94 8 -100 4 -5 44 -43 90
-84 96 -86 111 -107 89 -128 -20 -20 -43 -11 -117 43 -33 24 -62 44 -65 44 -3
0 -5 -34 -5 -75 l0 -75 -20 20 c-11 11 -29 20 -40 20 -30 0 -40 31 -40 122 0
84 0 84 -46 147 -43 59 -51 91 -22 91 7 0 22 -7 32 -15 31 -23 36 -18 36 34
l0 49 50 -1 50 -2 0 -90z m109 -2 c52 -42 111 -103 111 -115 0 -4 -28 14 -63
40 -35 26 -76 56 -92 68 -17 12 -26 25 -21 32 10 17 14 16 65 -25z m-2131 2
c18 -40 15 -65 -8 -65 -21 0 -40 34 -40 71 0 28 35 24 48 -6z m3210 13 c34
-34 -13 -82 -57 -59 -37 21 -20 71 24 71 12 0 26 -5 33 -12z m-2698 -16 c0
-16 -48 -54 -59 -47 -17 10 -13 33 7 44 21 13 52 14 52 3z m-6850 -22 c0 -11
-7 -20 -15 -20 -8 0 -15 9 -15 20 0 11 7 20 15 20 8 0 15 -9 15 -20z m3612
-24 c6 -11 14 -35 19 -53 l7 -33 -54 50 c-30 27 -55 53 -55 57 0 13 45 21 59
10 7 -6 18 -20 24 -31z m-247 -28 c18 -64 31 -69 72 -25 l35 39 46 -39 c25
-22 47 -44 49 -50 2 -6 -10 -16 -26 -23 -16 -6 -51 -33 -77 -58 -42 -42 -52
-47 -98 -49 -38 -1 -61 4 -93 23 -52 30 -113 31 -188 3 -42 -16 -92 -22 -212
-28 -148 -7 -243 -5 -243 6 0 16 25 45 50 58 38 20 84 19 141 -1 58 -21 75
-15 83 31 17 88 58 98 155 35 34 -22 68 -40 75 -40 16 0 42 28 50 56 4 12 24
40 45 63 36 39 43 42 82 39 41 -3 44 -5 54 -40z m-1416 -10 c-11 -22 -11 -22
7 -7 43 36 45 29 6 -27 -59 -87 -111 -143 -112 -121 0 10 -5 15 -11 11 -15 -9
37 72 79 124 38 47 49 53 31 20z m1956 16 c11 -5 0 -12 -37 -25 -29 -9 -54
-16 -56 -14 -2 2 6 13 17 24 21 21 46 26 76 15z m1060 -28 c9 -13 25 -57 36
-96 23 -81 20 -90 -38 -90 -33 0 -83 18 -83 30 0 4 4 20 9 36 5 16 17 55 26
87 8 31 20 57 25 57 5 0 17 -11 25 -24z m-342 -19 c15 -25 28 -57 22 -57 -2 0
-17 20 -34 44 -16 25 -23 42 -16 40 8 -3 20 -15 28 -27z m5094 -4 c-3 -10 -5
-4 -5 12 0 17 2 24 5 18 2 -7 2 -21 0 -30z m-4849 -52 c-25 -65 -41 -78 -46
-39 -3 24 59 129 65 111 2 -6 -7 -38 -19 -72z m-5078 39 l25 -20 -27 10 c-15
5 -35 7 -43 4 -10 -4 -15 0 -15 10 0 22 30 20 60 -4z m1180 -29 c13 -49 14
-89 4 -214 -6 -84 -10 -99 -27 -109 -17 -9 -24 -6 -44 16 -22 26 -23 35 -23
175 0 159 4 171 52 171 23 0 29 -6 38 -39z m8246 -36 c-3 -9 -14 -15 -23 -13
-22 4 -30 38 -11 49 18 11 43 -15 34 -36z m-5367 32 c-2 -1 -13 -9 -24 -17
-19 -14 -19 -14 -6 3 7 9 18 17 24 17 6 0 8 -1 6 -3z m-4079 -37 c0 -47 23
-91 69 -133 34 -30 45 -36 56 -27 8 7 19 9 25 5 17 -10 11 6 -9 23 -10 10 -32
42 -49 74 -44 80 -21 85 66 13 63 -52 67 -54 89 -39 48 31 116 64 133 64 23 0
44 -26 34 -41 -5 -8 -3 -10 7 -4 8 4 -4 -9 -26 -29 -22 -20 -56 -46 -75 -57
-34 -19 -34 -20 -7 -16 26 4 27 3 12 -13 -12 -13 -34 -18 -91 -19 -93 -2 -151
13 -187 47 -50 48 -97 182 -63 182 11 0 16 -9 16 -30z m5889 -4 c-3 -3 -11 5
-18 17 -13 21 -12 21 5 5 10 -10 16 -20 13 -22z m-39 -1 c18 -21 4 -33 -45
-37 -46 -4 -61 21 -23 40 33 15 54 14 68 -3z m-5409 -38 c-10 -9 -11 -8 -5 6
3 10 9 15 12 12 3 -3 0 -11 -7 -18z m5097 -8 c-6 -16 -12 -28 -14 -26 -5 5 13
57 20 57 3 0 0 -14 -6 -31z m-1638 2 c-14 -5 -40 -22 -59 -40 -34 -32 -55 -39
-66 -21 -16 26 51 68 110 68 33 0 36 -1 15 -7z m1714 -32 c29 -35 35 -86 10
-96 -19 -7 -72 42 -80 74 -7 25 10 53 31 53 7 0 25 -14 39 -31z m67 -24 c1
-17 -18 -17 -25 0 -4 11 -1 15 10 13 8 -2 15 -7 15 -13z m-3799 -52 c6 -7 7
-21 3 -30 -5 -10 -7 -21 -7 -26 3 -11 -72 29 -88 47 -11 14 -10 20 5 36 17 19
19 19 47 2 16 -9 34 -23 40 -29z m4802 22 c113 -54 101 -193 -20 -246 -39 -18
-44 -24 -70 -99 -16 -48 -33 -80 -41 -80 -17 0 -13 14 27 109 l28 65 -25 19
c-23 19 -25 25 -21 98 3 73 5 80 38 113 39 41 41 41 84 21z m646 -10 c0 -19
-46 -49 -65 -41 -24 9 -18 25 17 46 33 20 48 18 48 -5z m-1130 -30 c0 -12 -14
-15 -57 -15 l-58 1 39 24 c41 25 76 20 76 -10z m-179 15 c23 -13 24 -38 3 -68
-18 -26 -42 -28 -70 -7 -16 12 -17 16 -5 24 8 5 16 17 17 27 2 9 9 21 16 25
17 11 16 11 39 -1z m361 -21 c20 0 82 -72 93 -107 5 -19 2 -25 -14 -29 -26 -7
-25 2 -26 -233 l0 -195 -36 -70 c-75 -146 -341 -568 -345 -549 -1 5 -5 21 -8
35 -7 32 -49 53 -76 39 -24 -13 -72 -74 -98 -125 -31 -63 -161 -225 -193 -244
-16 -9 -32 -25 -34 -36 -3 -11 -16 -68 -31 -127 l-26 -107 22 -88 c12 -48 37
-137 55 -198 19 -60 41 -141 49 -178 20 -86 10 -113 -67 -188 l-54 -54 -359 5
c-234 3 -365 9 -378 16 -17 10 -17 13 -2 42 9 17 16 33 16 37 0 3 -19 5 -42 5
-24 1 -61 8 -83 16 -170 66 -224 78 -290 63 -77 -17 -100 -13 -150 26 -26 19
-50 35 -55 35 -4 0 -13 14 -19 30 -11 33 -26 37 -55 15 -11 -8 -24 -15 -29
-15 -16 0 1 157 21 197 11 21 22 50 25 64 10 41 165 173 191 163 10 -4 26 2
39 12 12 10 16 12 10 4 -18 -19 -16 -33 2 -26 13 5 13 2 -1 -22 -14 -24 -14
-25 0 -8 13 16 20 17 40 8 29 -13 69 -5 62 13 -2 7 1 21 8 31 13 17 15 17 30
1 15 -15 20 -14 64 9 26 13 53 32 60 41 9 12 12 13 12 3 0 -7 9 -33 21 -57 12
-24 19 -50 16 -57 -3 -8 -28 -19 -56 -26 -31 -7 -57 -21 -66 -33 -20 -29 -19
-40 4 -27 33 17 35 11 7 -17 -26 -26 -28 -53 -4 -78 13 -14 38 22 38 57 0 23
4 28 26 28 35 0 91 28 109 54 17 24 20 79 5 107 -9 16 -6 24 19 45 34 28 56
84 47 119 -3 13 -18 38 -33 57 -15 18 -21 27 -12 21 9 -7 18 -10 21 -7 3 3 9
-7 12 -22 4 -14 10 -24 13 -21 3 4 15 0 27 -8 29 -21 38 -19 24 5 -16 26 -5
34 29 23 21 -7 37 -6 61 5 54 26 60 5 18 -70 -38 -68 -45 -102 -23 -111 10 -4
14 4 14 26 0 24 11 40 54 78 49 44 99 64 99 40 0 -25 -15 -41 -46 -51 -24 -8
-34 -17 -32 -28 4 -20 59 -28 85 -13 15 8 12 11 -17 19 l-35 9 35 16 c19 9 46
25 60 36 22 17 23 23 13 40 -21 34 -16 70 10 80 13 5 31 27 41 49 15 33 16 44
5 63 -6 13 -15 26 -18 29 -4 3 -14 16 -23 30 -15 24 -14 27 8 53 28 33 55 117
47 149 -6 23 -6 23 15 4 19 -17 22 -17 37 -2 21 21 55 21 55 0 0 -10 -20 -39
-45 -65 -35 -37 -45 -56 -45 -82 0 -49 25 -66 116 -80 97 -15 104 -33 32 -83
-97 -66 -129 -102 -127 -139 1 -16 2 -17 6 -3 4 18 37 33 51 24 4 -2 19 5 32
16 14 11 19 17 11 13 -10 -6 -11 -2 -6 16 10 31 11 33 31 25 14 -5 14 -9 3
-23 -8 -10 15 3 51 28 111 76 119 132 27 178 -28 14 -44 27 -38 31 8 4 4 13
-9 25 -20 18 -20 19 -1 39 25 28 41 61 41 85 0 30 -49 82 -98 103 -24 11 -42
24 -40 29 2 5 27 20 55 34 l52 24 22 -35 c13 -21 19 -45 16 -59 -7 -37 15 -50
62 -36 69 20 75 17 68 -34 -4 -25 -3 -45 2 -45 12 0 34 55 34 86 0 43 -24 50
-100 28 -18 -5 -23 -2 -23 11 0 10 -14 42 -31 71 -33 59 -51 66 -90 36 -35
-27 -58 -33 -80 -22 -34 19 -23 57 31 107 97 89 92 163 -18 272 -74 72 -75 67
21 85 36 7 38 6 28 -12 -7 -14 -7 -24 3 -38 11 -15 27 -19 75 -19 57 0 61 2
61 23 0 17 -6 22 -25 22 -14 0 -25 3 -25 6 0 3 11 19 25 36 29 34 32 60 9 82
-21 21 -70 20 -156 -4 -100 -27 -124 -26 -144 8 -9 15 -25 39 -35 54 -11 15
-19 36 -19 46 0 33 -44 86 -80 98 -27 9 29 11 248 8 155 -1 286 -5 290 -8 5
-3 -7 -78 -25 -168 -18 -90 -40 -221 -49 -293 -8 -71 -19 -134 -24 -140 -14
-17 4 -67 32 -88 38 -28 149 -56 197 -50 37 5 45 12 85 72 52 80 75 125 155
304 72 159 91 211 91 242 0 28 -49 73 -110 100 l-45 20 90 5 c84 5 90 7 93 28
2 12 13 27 25 33 12 7 26 18 30 26 14 22 49 33 92 28 22 -3 48 -5 57 -6z
m-4252 -6 c0 -3 -7 -14 -16 -24 -20 -23 -13 -34 28 -44 33 -8 32 -9 -17 -15
-27 -4 81 -8 241 -8 298 -2 396 -8 372 -23 -7 -5 -28 -9 -46 -9 -18 0 -46 -7
-61 -15 -30 -15 -97 -92 -88 -101 3 -3 18 11 34 31 36 47 71 65 124 65 24 0
50 7 59 15 15 14 20 13 44 -6 16 -13 35 -19 47 -16 15 4 19 1 17 -11 -4 -18
-11 -19 -73 -3 -68 17 -98 -11 -119 -111 -5 -20 -13 -28 -29 -29 -22 0 -22 0
2 -10 32 -13 48 2 56 53 4 22 15 48 25 58 17 17 22 17 75 4 52 -14 59 -14 75
1 10 9 21 27 24 39 5 22 8 23 58 14 33 -6 58 -16 67 -29 8 -11 25 -19 42 -19
16 0 29 -4 29 -9 0 -5 -18 -7 -39 -4 -57 8 -105 -4 -135 -32 -15 -13 -26 -28
-26 -32 0 -5 -10 -9 -23 -11 -39 -5 -64 -41 -69 -100 -3 -30 -1 -55 5 -59 6
-4 7 -1 2 8 -6 11 -5 11 4 3 10 -9 9 -19 -4 -45 -39 -76 -72 -92 -141 -67 -47
17 -66 6 -53 -31 7 -20 7 -36 1 -48 -9 -17 -6 -18 27 -15 21 2 59 -3 84 -12
56 -19 91 -9 109 29 8 19 19 25 42 25 29 0 96 39 68 40 -10 0 -10 5 -1 22 6
12 16 27 21 32 5 6 15 19 22 30 13 20 56 26 93 13 21 -8 21 -6 16 46 -10 95
35 134 140 123 62 -6 87 -18 87 -42 0 -10 -10 -13 -32 -12 -22 2 -32 -1 -31
-9 2 -7 -6 -17 -17 -23 -16 -9 -20 -21 -20 -63 0 -30 -6 -62 -15 -73 -12 -18
-20 -20 -54 -14 -47 8 -81 -8 -125 -61 -16 -19 -39 -41 -52 -49 -23 -16 -80
-82 -86 -102 -3 -8 -18 -7 -53 2 -62 15 -117 3 -161 -37 -16 -16 -23 -23 -15
-17 9 6 23 15 31 19 13 8 13 6 2 -7 -9 -11 -9 -17 -2 -20 6 -2 8 -11 4 -21 -3
-10 -12 -16 -18 -14 -6 3 -11 -6 -11 -19 l0 -23 20 24 c44 51 98 58 160 20 22
-13 34 -25 28 -25 -14 0 -18 -40 -5 -40 4 0 23 16 42 35 19 19 38 35 44 35 5
0 -8 -15 -30 -34 -21 -18 -50 -55 -62 -82 -26 -56 -27 -57 -65 -111 -21 -31
-30 -58 -37 -120 -5 -45 -16 -98 -24 -118 -22 -51 -20 -65 7 -65 12 0 28 -4
36 -9 8 -5 24 -6 37 -1 21 8 24 6 30 -25 3 -19 12 -39 20 -46 22 -18 17 -24
-43 -49 -57 -23 -133 -89 -133 -114 0 -7 12 -23 26 -37 l26 -24 -18 31 c-15
26 -16 35 -5 47 11 15 98 47 163 61 15 3 39 17 55 30 25 21 26 26 15 50 -18
40 -15 51 7 25 20 -24 20 -24 36 -4 9 11 1 -11 -18 -50 -19 -38 -32 -77 -29
-85 13 -42 37 -82 53 -91 18 -9 18 -8 -1 23 -23 38 -26 78 -6 78 7 0 16 9 19
20 4 14 14 20 35 20 40 0 62 9 62 26 0 8 10 14 25 14 32 0 40 -20 53 -135 12
-102 38 -180 84 -251 50 -76 199 -218 262 -249 57 -28 66 -39 66 -84 0 -32
-40 -81 -66 -81 -10 0 -30 12 -45 26 -26 24 -31 26 -68 17 -31 -8 -50 -7 -93
8 -29 10 -76 18 -104 19 -51 0 -51 0 -114 73 -34 39 -69 76 -76 80 -7 4 -34
36 -59 71 -25 35 -53 70 -62 77 -9 8 0 -8 19 -36 19 -27 44 -63 54 -80 l19
-30 -27 18 c-37 23 -35 10 7 -53 20 -29 34 -54 32 -56 -4 -4 -98 78 -249 217
-49 45 -88 77 -88 73 0 -4 7 -16 17 -26 12 -13 13 -18 3 -18 -9 0 -7 -7 6 -22
28 -32 -53 32 -94 75 -25 26 -30 36 -19 40 8 3 25 -2 38 -10 l24 -16 -21 23
c-17 18 -25 20 -41 11 -14 -7 -23 -7 -31 1 -8 8 -10 -7 -6 -53 6 -91 32 -272
49 -349 35 -156 47 -226 41 -258 -3 -22 1 -46 10 -64 12 -23 12 -29 2 -27 -7
1 -21 -1 -31 -6 -9 -4 -29 -4 -45 0 -15 4 -45 9 -67 11 -47 5 -151 56 -147 72
1 8 -14 12 -41 12 -40 0 -46 4 -78 46 -51 69 -102 89 -244 98 -44 3 -107 8
-140 12 -55 5 -66 3 -127 -30 -83 -43 -141 -61 -165 -51 -10 4 -36 8 -58 9
l-40 1 -3 98 c-2 89 -1 97 16 97 24 0 48 27 57 63 9 34 -15 74 -47 79 -23 3
-23 6 -29 178 -3 96 -4 263 -2 370 2 107 3 213 3 234 l0 39 23 -19 c69 -61 49
-34 -38 49 -55 53 -107 99 -115 102 -15 5 -194 191 -234 244 l-21 26 35 -26
c19 -14 40 -36 46 -48 16 -31 38 -52 28 -28 -4 12 0 22 11 30 15 12 14 20 -24
101 -22 48 -54 103 -71 122 -16 19 -30 38 -30 42 0 4 -12 21 -28 37 -35 40
-65 82 -87 125 -10 19 -29 48 -42 64 -38 46 -46 75 -28 102 19 30 47 30 94 2
l36 -21 -25 28 -25 28 25 -13 c14 -7 39 -24 56 -37 17 -12 37 -23 45 -23 16 0
35 -19 207 -200 119 -125 262 -292 282 -330 16 -30 -16 -103 -42 -94 -26 8
-44 -36 -32 -78 7 -24 23 -40 62 -63 35 -20 64 -48 85 -80 17 -28 39 -57 49
-66 10 -9 14 -20 10 -24 -4 -5 -2 -5 5 -1 6 3 14 3 17 -2 6 -11 66 -3 66 8 0
5 -4 20 -10 34 -9 24 -8 25 10 14 10 -7 30 -33 44 -58 25 -44 26 -44 19 -11
-6 31 -5 33 15 22 54 -29 113 -4 132 55 20 60 -4 184 -35 184 -16 0 -37 72
-25 84 25 25 0 88 -58 149 -20 20 -41 37 -46 37 -6 0 4 -12 21 -27 38 -34 86
-124 77 -146 -5 -14 -9 -14 -37 4 -18 10 -49 24 -70 30 -49 13 -67 0 -67 -51
0 -44 62 -175 87 -184 21 -8 60 19 89 62 l21 31 17 -35 c18 -40 21 -112 5
-147 -15 -33 -51 -51 -84 -43 -32 8 -112 80 -121 109 -11 36 -45 66 -83 73
-53 9 -79 29 -90 71 -16 56 -13 88 9 108 19 17 19 18 -21 64 -22 25 -67 80
-100 121 l-60 75 5 170 c3 94 8 209 12 258 5 82 7 87 29 87 28 0 51 -26 48
-54 -1 -15 0 -16 3 -3 7 23 14 22 54 -11 69 -56 124 -82 176 -82 43 0 56 6
104 43 30 24 91 82 135 130 70 76 105 102 105 80z m-1789 -64 c30 -21 30 -23
12 -30 -33 -12 -176 -4 -210 11 -18 8 -33 22 -33 30 0 13 17 15 100 13 86 -1
104 -4 131 -24z m1649 18 c0 -1 -24 -25 -52 -52 l-53 -50 50 53 c46 48 55 57
55 49z m7495 -27 c-16 -16 -32 -30 -36 -30 -11 0 44 57 55 59 6 0 -3 -12 -19
-29z m-7641 -12 c-6 -9 -3 -9 9 0 23 20 40 6 26 -21 -20 -38 -52 -67 -74 -67
-28 0 -75 36 -75 57 0 13 8 15 45 10 38 -6 46 -4 55 13 6 11 13 20 16 20 3 0
2 -6 -2 -12z m2674 -29 c-3 -8 -7 -3 -11 10 -4 17 -3 21 5 13 5 -5 8 -16 6
-23z m-3200 -22 c5 -22 18 -37 40 -47 37 -18 39 -26 11 -48 -14 -12 -23 -35
-28 -75 -9 -69 -17 -79 -32 -41 -6 16 -15 37 -20 46 -5 10 -9 23 -9 29 0 7
-11 27 -25 45 -30 39 -31 44 -6 44 26 0 44 26 37 53 -6 25 1 40 15 31 5 -3 12
-19 17 -37z m-134 -19 c12 -16 16 -48 16 -116 l0 -93 -45 37 -45 36 0 73 c0
39 3 75 7 78 14 15 53 6 67 -15z m3326 19 c0 -2 -10 -12 -22 -23 l-23 -19 19
23 c18 21 26 27 26 19z m4877 -89 c-3 -7 -5 -2 -5 12 0 14 2 19 5 13 2 -7 2
-19 0 -25z m-8831 7 c22 -17 71 -19 108 -6 22 9 26 7 35 -21 6 -17 11 -34 11
-38 0 -16 -140 -22 -337 -15 -113 4 -200 11 -193 15 8 5 6 11 -5 20 -24 20 -1
30 73 30 34 0 61 3 61 8 -1 4 -1 10 0 15 0 4 52 7 114 7 84 0 118 -4 133 -15z
m262 -125 c15 -11 152 -232 170 -273 21 -50 -4 -20 -81 95 -75 112 -157 267
-157 297 0 9 14 -13 31 -49 17 -35 33 -67 37 -70z m8682 126 c0 -3 -4 -8 -10
-11 -5 -3 -10 -1 -10 4 0 6 5 11 10 11 6 0 10 -2 10 -4z m-6445 -35 c14 -6 8
-9 -29 -14 -56 -8 -106 1 -84 14 16 11 86 10 113 0z m-145 -48 c-1 -16 -39
-57 -46 -50 -4 4 -13 2 -21 -4 -8 -8 -13 -8 -13 -1 0 6 14 22 31 36 30 26 49
33 49 19z m631 -45 c30 -12 68 -32 86 -45 35 -25 63 -22 63 8 0 16 8 13 51
-21 52 -41 95 -51 105 -26 7 19 40 26 59 12 14 -10 14 -15 1 -48 -9 -20 -25
-39 -36 -43 -11 -3 -68 3 -127 15 -62 13 -126 20 -151 17 -38 -4 -54 1 -113
35 -38 22 -67 44 -63 49 3 5 0 9 -5 9 -6 0 -11 7 -11 16 0 13 3 14 13 5 11 -8
16 -5 25 14 14 31 34 31 103 3z m6407 -390 c-2 -321 -2 -335 -8 -153 -6 186
-1 505 7 505 1 0 2 -159 1 -352z m-5962 287 c-16 -25 -16 -28 -1 -45 18 -20
17 -51 -2 -58 -8 -2 -13 5 -13 17 0 11 -11 28 -25 37 -30 20 -33 50 -4 59 12
4 18 13 15 20 -7 19 16 25 33 9 12 -11 12 -17 -3 -39z m-1093 -50 c-3 -9 -8
-14 -10 -11 -3 3 -2 9 2 15 9 16 15 13 8 -4z m765 -2 c-10 -2 -28 -2 -40 0
-13 2 -5 4 17 4 22 1 32 -1 23 -4z m292 -43 c-12 -8 -12 -10 -1 -10 8 0 12 -3
8 -6 -9 -9 -28 6 -22 17 4 5 12 9 18 9 7 0 6 -4 -3 -10z m190 -75 c-32 -34
-156 -95 -189 -94 -24 1 -24 2 6 9 17 4 46 16 65 28 18 11 54 33 81 48 26 15
47 32 47 37 0 6 3 7 7 4 3 -4 -4 -18 -17 -32z m-3841 12 c13 -16 5 -27 -21
-27 -18 0 -25 20 -11 33 10 10 19 8 32 -6z m3971 -22 c0 -13 -13 -40 -30 -58
-16 -19 -30 -44 -30 -55 0 -24 -25 -46 -41 -36 -7 4 -9 3 -6 -3 10 -16 -68
-44 -145 -52 -50 -5 -69 -4 -72 5 -5 14 43 60 81 77 12 5 20 14 16 20 -3 6 -1
7 5 3 7 -4 20 -2 29 4 17 11 17 11 0 6 -11 -4 -16 -2 -12 5 4 5 15 7 25 4 12
-4 37 11 81 49 71 61 99 70 99 31z m3801 10 c-1 -15 -24 -12 -29 3 -3 9 2 13
12 10 10 -1 17 -7 17 -13z m-7101 -117 c0 -37 7 -57 33 -94 l32 -46 -1 -196
c-1 -178 -3 -204 -24 -264 -12 -38 -27 -68 -31 -68 -5 0 -9 -22 -9 -48 0 -42
-3 -50 -24 -60 -13 -6 -48 -9 -78 -7 -29 2 -192 6 -362 9 -170 3 -311 8 -314
11 -3 3 166 5 376 5 351 0 407 4 373 24 -5 4 -10 155 -10 346 -1 190 -6 352
-11 366 -6 14 -10 35 -10 47 0 18 2 19 11 7 8 -11 9 -4 7 29 l-4 43 23 -28
c17 -21 23 -42 23 -76z m7508 79 c4 -21 -25 -34 -40 -19 -8 8 -8 16 2 27 16
19 34 15 38 -8z m-7838 -8 c0 -5 -7 -9 -15 -9 -15 0 -20 12 -9 23 8 8 24 -1
24 -14z m-367 -26 c-7 -2 -19 -2 -25 0 -7 3 -2 5 12 5 14 0 19 -2 13 -5z
m6191 -443 c0 -91 3 -140 6 -110 5 55 5 55 14 20 5 -19 10 -84 12 -145 2 -68
7 -111 14 -113 6 -2 16 -11 23 -19 7 -8 23 -25 35 -38 l24 -24 -38 -37 c-34
-34 -38 -36 -50 -20 -11 15 -13 10 -19 -41 -4 -32 -16 -72 -26 -89 -25 -41
-24 -70 4 -97 21 -22 22 -27 16 -152 -3 -72 -2 -135 3 -141 4 -6 -2 -24 -15
-41 -12 -17 -49 -83 -82 -147 l-60 -116 -157 0 c-87 0 -158 1 -158 3 0 10 63
224 80 272 48 135 63 250 42 315 -18 55 -41 183 -61 336 -10 78 -23 150 -29
160 -8 14 12 50 108 193 118 177 174 272 246 411 l38 75 15 -145 c8 -80 15
-219 15 -310z m-5393 393 c13 -16 12 -17 -3 -4 -10 7 -18 15 -18 17 0 8 8 3
21 -13z m6689 -65 c0 -4 -9 -8 -20 -8 -11 0 -20 4 -20 8 0 4 9 8 20 8 11 0 20
-4 20 -8z m-10 -57 c5 -11 10 -33 10 -50 0 -24 -4 -31 -20 -31 -13 0 -20 -7
-20 -20 0 -11 -4 -20 -10 -20 -5 0 -7 21 -3 50 l6 50 -30 0 c-38 0 -47 10 -25
26 27 21 79 17 92 -5z m-3680 5 c0 -2 -11 -6 -25 -8 -13 -3 -22 -1 -19 3 5 9
44 13 44 5z m-81 -42 c2 -2 -12 -4 -31 -4 -23 0 -38 -6 -42 -15 -4 -11 2 -15
24 -15 17 0 30 -5 30 -11 0 -6 -8 -8 -17 -6 -10 3 -30 8 -45 11 -26 6 -38 33
-22 49 6 6 95 -2 103 -9z m63 -14 c-18 -17 -40 -30 -50 -30 -10 1 -5 6 13 14
17 7 36 20 44 29 7 10 16 17 20 17 3 0 -9 -14 -27 -30z m2679 -30 c18 -10 19
-23 19 -175 l0 -165 -27 -6 c-60 -16 -72 18 -65 191 6 150 21 182 73 155z
m-5540 -27 c6 -16 13 -85 16 -156 5 -113 4 -129 -12 -147 -23 -25 -61 -26 -75
-1 -14 27 -13 274 2 306 16 35 55 34 69 -2z m744 -39 c0 -42 -3 -49 -20 -49
-21 0 -23 22 -9 83 9 42 29 18 29 -34z m2244 40 c10 -9 -65 -3 -78 5 -10 6 1
8 30 4 24 -3 46 -7 48 -9z m3721 5 c0 -5 5 -7 10 -4 6 3 10 -4 10 -17 0 -13 7
-33 15 -45 11 -16 12 -24 3 -29 -13 -8 -48 30 -48 52 0 8 -10 14 -23 14 -30 0
-40 -10 -26 -27 9 -9 8 -13 0 -13 -6 0 -11 -4 -11 -9 0 -10 58 -35 78 -34 6 0
12 -5 12 -12 0 -7 3 -27 6 -44 l7 -31 -49 0 c-54 1 -79 15 -79 45 0 16 -6 19
-26 17 l-26 -2 11 47 c15 64 50 101 99 102 20 1 37 -4 37 -10z m425 -9 c7 -23
-10 -50 -31 -50 -17 0 -18 42 -2 58 17 17 26 15 33 -8z m1389 4 c8 -21 -11
-44 -36 -44 -21 0 -33 22 -24 45 7 20 52 19 60 -1z m-1661 -129 c37 -7 67 -8
67 -4 0 5 5 9 11 9 6 0 9 -9 6 -19 -5 -21 10 -31 49 -31 15 0 24 -6 24 -15 0
-8 -5 -15 -10 -15 -16 0 52 -56 78 -64 22 -7 31 7 12 19 -15 9 -12 25 5 25 8
0 19 9 25 20 6 11 19 20 28 20 10 0 23 5 30 12 10 10 15 9 27 -2 20 -21 -1
-62 -40 -75 -48 -16 -58 -25 -45 -40 8 -10 8 -15 0 -20 -7 -4 -2 -18 15 -41
19 -25 21 -32 9 -27 -12 4 -15 3 -10 -5 5 -9 -25 -12 -117 -12 l-125 0 -34 39
c-43 47 -94 151 -103 210 -7 40 -6 43 11 36 11 -4 49 -13 87 -20z m1896 -372
c-1 -225 -4 -326 -10 -303 -9 32 -10 615 -1 633 2 4 5 7 8 7 2 0 4 -152 3
-337z m-2146 311 c17 -17 -80 -113 -101 -100 -4 2 -72 7 -152 11 -149 7 -263
25 -324 50 -62 26 -57 27 104 22 125 -3 359 4 388 13 33 10 77 12 85 4z
m-4856 -52 c-20 -22 -22 -33 -4 -26 7 2 19 -7 27 -21 10 -19 19 -24 34 -19 37
12 12 -4 -40 -24 l-51 -20 -14 26 c-21 39 -13 76 19 89 40 16 47 15 29 -5z
m2540 -9 c-7 -6 -46 10 -41 18 3 5 14 3 24 -3 11 -7 18 -13 17 -15z m4312 -16
c15 -3 18 -14 16 -53 -2 -54 13 -116 27 -108 4 3 8 -8 8 -25 0 -20 8 -35 25
-48 21 -15 26 -29 31 -91 8 -80 2 -92 -44 -92 -20 0 -22 -4 -16 -22 4 -13 10
-37 14 -54 7 -32 7 -32 -23 -23 -17 5 -38 15 -46 23 -21 22 -31 113 -31 276 0
141 11 287 18 244 2 -12 11 -24 21 -27z m-2994 -87 c0 -48 -3 -86 -7 -83 -5 2
-8 45 -8 95 0 50 3 88 8 84 4 -4 7 -47 7 -96z m-3665 -4 c-20 -20 -32 16 -12
37 17 19 17 19 20 -3 2 -12 -1 -27 -8 -34z m4300 27 c69 -3 132 -9 140 -14 10
-5 11 -8 3 -9 -7 0 -13 -5 -13 -11 0 -5 4 -8 9 -5 5 3 11 -3 14 -14 7 -27 -18
-33 -148 -32 -157 1 -169 1 -163 8 3 3 -5 17 -19 32 -14 15 -30 36 -35 46 -10
18 -7 18 38 12 27 -4 105 -10 174 -13z m-6264 -50 c4 -10 12 -31 19 -48 17
-39 20 -252 4 -271 -16 -19 -58 -18 -81 3 -16 14 -18 33 -18 149 0 153 8 184
45 184 16 0 28 -7 31 -17z m5578 -20 c3 -21 6 -95 6 -164 0 -134 -2 -141 -50
-152 -44 -11 -55 5 -55 82 0 62 3 73 28 98 31 34 35 72 10 113 -14 24 -14 31
-4 44 8 9 24 16 36 16 18 0 24 -7 29 -37z m-3704 17 c-8 -5 -22 -9 -30 -9 -10
0 -8 3 5 9 27 12 43 12 25 0z m1597 -37 c-3 -10 -5 -4 -5 12 0 17 2 24 5 18 2
-7 2 -21 0 -30z m4808 -13 c0 -22 -29 -18 -33 3 -3 14 1 18 15 15 10 -2 18
-10 18 -18z m-4798 -82 c-3 -7 -5 -2 -5 12 0 14 2 19 5 13 2 -7 2 -19 0 -25z
m41 -13 c-3 -3 -9 2 -12 12 -6 14 -5 15 5 6 7 -7 10 -15 7 -18z m-51 -27 c-3
-8 -6 -5 -6 6 -1 11 2 17 5 13 3 -3 4 -12 1 -19z m-16 -41 c-10 -9 -11 -8 -5
6 3 10 9 15 12 12 3 -3 0 -11 -7 -18z m149 -47 c0 -4 -9 -10 -20 -13 -21 -5
-24 1 -14 27 5 13 9 14 20 5 8 -6 14 -15 14 -19z m-196 -15 c-4 -8 -11 -15
-16 -15 -6 0 -5 6 2 15 7 8 14 15 16 15 2 0 1 -7 -2 -15z m1315 -65 c16 0 13
-57 -3 -63 -17 -7 -50 44 -61 94 l-8 34 31 -33 c16 -17 35 -32 41 -32z m-1339
-3 c0 -10 -6 -17 -12 -15 -7 1 -25 -6 -40 -16 -24 -16 -29 -16 -42 -3 -13 13
-13 16 2 30 9 8 30 21 47 30 32 16 45 9 45 -26z m-3438 -14 c22 -19 23 -48 4
-85 -11 -20 -11 -28 -3 -32 7 -2 -5 -5 -26 -5 -23 -1 -36 3 -32 9 4 6 -17 10
-55 10 -72 0 -94 10 -115 50 -29 56 -11 65 139 68 52 2 74 -2 88 -15z m5849 2
c17 -11 9 -52 -16 -75 -19 -17 -39 -24 -82 -27 -81 -6 -89 -9 -72 -29 15 -18
19 -15 -80 -80 -42 -29 -55 -33 -62 -23 -26 41 5 89 68 110 32 10 33 12 19 28
-19 21 -21 82 -3 100 9 9 40 11 115 7 57 -3 107 -8 113 -11z m-6116 -20 c6 -7
11 -48 10 -92 0 -73 -1 -78 -22 -81 -23 -3 -22 -4 5 -27 24 -20 30 -37 41
-104 12 -73 12 -83 -4 -107 -16 -25 -21 -26 -70 -21 -90 9 -95 15 -95 110 0
56 5 89 15 104 13 18 12 22 -5 38 -17 15 -20 31 -20 100 0 51 5 86 13 94 15
16 117 6 132 -14z m6290 1 c22 -34 10 -161 -18 -187 -12 -10 -16 -19 -10 -19
16 0 24 -30 33 -119 4 -42 10 -84 14 -93 5 -10 1 -23 -11 -35 -13 -13 -17 -26
-12 -39 16 -41 10 -74 -15 -84 -41 -15 -142 -23 -162 -12 -14 8 -20 6 -29 -11
-13 -26 -69 -56 -108 -57 -28 0 -77 38 -77 61 0 29 102 186 142 218 24 19 40
31 36 26 -5 -4 1 -14 12 -22 16 -11 20 -26 20 -74 l0 -60 29 22 c16 11 44 25
62 29 l34 8 -31 1 c-17 1 -44 11 -59 23 -26 20 -27 24 -21 81 5 46 14 70 42
108 23 32 43 49 57 49 16 0 18 3 9 12 -7 7 -12 21 -12 31 0 10 -14 32 -30 47
-35 32 -49 80 -28 97 11 10 38 16 100 21 10 1 24 -9 33 -22z m-5930 -46 c7
-31 -16 -66 -39 -57 -11 4 -16 18 -16 45 0 67 39 76 55 12z m6236 -60 c14 -63
16 -65 79 -72 14 -2 25 -9 25 -18 0 -11 -15 -16 -55 -20 l-55 -5 -3 -60 c-3
-74 -9 -92 -23 -78 -6 6 -11 43 -10 82 l1 71 -28 0 c-27 0 -52 15 -52 32 0 4
14 8 30 8 33 0 44 16 55 83 3 20 10 37 14 37 5 0 15 -27 22 -60z m2496 -47
c-2 -16 -4 -5 -4 22 0 28 2 40 4 28 2 -13 2 -35 0 -50z m-2927 39 c21 -17 22
-20 7 -48 -9 -16 -57 -69 -107 -119 -50 -49 -115 -124 -144 -165 -56 -80 -210
-350 -221 -388 -3 -12 -10 -20 -15 -17 -5 3 -8 -3 -7 -13 3 -48 -123 -336
-140 -319 -5 5 62 195 102 287 84 197 169 343 298 515 76 102 122 151 170 181
42 28 50 61 15 69 -13 3 -49 -3 -81 -14 -78 -25 -57 -5 25 24 79 29 72 28 98
7z m-6351 -36 c7 -8 15 -46 18 -85 5 -60 3 -74 -12 -91 -20 -22 -74 -27 -93
-8 -16 16 -16 185 0 190 30 10 76 7 87 -6z m503 -4 c7 -7 21 -12 31 -12 18 0
19 -7 15 -95 -2 -71 -7 -98 -18 -106 -19 -13 -236 -7 -249 6 -12 12 -30 202
-19 213 12 12 226 8 240 -6z m6120 -5 c13 -20 9 -162 -4 -175 -20 -20 -86 -15
-98 7 -13 25 -13 105 1 155 11 38 11 38 52 32 23 -4 45 -12 49 -19z m-6832
-134 c0 -15 7 -34 16 -44 15 -16 14 -22 -4 -70 -11 -29 -24 -55 -29 -56 -5 -2
-22 25 -37 59 -25 53 -26 63 -14 72 8 6 23 26 32 44 19 37 36 34 36 -5z m480
-77 c0 -3 -4 -8 -10 -11 -5 -3 -10 -1 -10 4 0 6 5 11 10 11 6 0 10 -2 10 -4z
m264 -47 c53 -25 33 -76 -26 -66 -97 16 -118 30 -91 59 19 21 79 24 117 7z
m256 -85 c0 -69 -11 -80 -34 -35 -13 25 -13 31 -1 41 9 8 12 23 8 48 -6 34 -5
36 10 23 13 -10 17 -30 17 -77z m-640 40 c24 -4 26 -9 25 -57 l0 -52 55 -22
c73 -30 169 -31 195 -3 13 15 16 29 11 59 l-6 39 43 -5 c79 -11 152 -63 163
-117 l5 -31 100 3 c56 2 117 1 137 -3 l36 -7 -42 -18 c-48 -22 -50 -27 -22
-63 50 -64 146 -60 309 12 61 27 111 48 111 46 0 -2 -18 -14 -40 -26 -53 -30
-44 -36 12 -8 48 25 153 35 203 19 56 -18 71 -78 16 -66 -21 5 -23 4 -8 -4 83
-51 -359 -100 -901 -100 -240 0 -285 3 -361 20 -362 84 -403 98 -380 126 18
22 107 44 168 43 31 -1 48 -3 39 -6 -35 -9 -20 -33 20 -33 20 0 75 -7 122 -15
47 -8 103 -17 125 -20 22 -4 50 -11 62 -17 26 -13 67 -6 127 22 25 11 58 20
74 20 15 0 37 7 48 15 52 40 -78 42 -202 4 -72 -22 -114 -17 -162 19 -27 20
-47 26 -110 29 -108 6 -118 9 -132 42 -16 39 -3 120 24 149 21 24 41 25 136 6z
m228 -24 c26 -38 24 -54 -5 -58 -24 -4 -53 31 -53 64 0 45 25 43 58 -6z m3164
3 c6 -42 1 -54 -11 -34 -7 10 -16 9 -47 -7 -69 -35 -144 -50 -311 -62 -121 -9
-166 -9 -180 0 -16 10 -15 10 5 5 13 -4 44 -2 70 4 26 5 83 15 127 21 96 13
223 51 285 85 25 13 48 24 51 25 4 0 9 -17 11 -37z m4651 -12 c4 -18 14 -32
27 -36 25 -8 26 -27 0 -50 -11 -10 -20 -23 -20 -30 0 -16 -35 -47 -43 -38 -4
3 -7 14 -7 23 0 10 -9 29 -20 43 -23 30 -25 37 -7 37 14 0 37 40 37 65 0 27
27 15 33 -14z m-5920 -37 c2 -25 12 -53 20 -61 13 -13 13 -20 2 -47 -7 -17
-16 -53 -20 -81 l-7 -50 -14 53 c-8 29 -21 66 -30 83 -15 29 -14 32 5 53 13
14 21 36 21 59 0 53 16 46 23 -9z m355 -15 c42 -12 104 -25 137 -30 52 -7 303
-39 314 -39 2 0 1 -3 -3 -7 -22 -22 -300 4 -400 37 -33 11 -66 20 -74 20 -26
0 -83 32 -94 53 -11 21 -11 21 16 4 15 -10 62 -27 104 -38z m-51 45 c-3 -3
-12 -4 -19 -1 -8 3 -5 6 6 6 11 1 17 -2 13 -5z m1037 -47 c-4 -7 -3 -9 1 -4
14 12 44 -24 51 -62 4 -20 13 -48 21 -63 8 -16 9 -28 4 -28 -6 0 -17 13 -25
28 -9 18 -27 32 -48 38 -38 11 -46 35 -26 72 10 20 10 26 1 29 -7 3 -13 9 -13
14 0 6 8 5 20 -1 12 -6 18 -16 14 -23z m-834 13 c21 -7 18 -8 -18 -9 -26 -1
-41 3 -37 9 7 11 19 11 55 0z m1318 -96 c47 -13 51 -17 42 -34 -6 -10 -15 -22
-20 -25 -6 -3 -10 -13 -10 -22 0 -9 -7 -24 -15 -34 -24 -25 -123 -180 -139
-215 -8 -17 -19 -35 -25 -38 -17 -11 -13 -55 14 -160 30 -116 31 -147 5 -171
-11 -10 -22 -16 -24 -14 -21 25 -45 127 -61 259 -4 30 -16 91 -27 135 -12 44
-22 97 -23 118 -1 21 -6 42 -12 45 -5 4 -12 15 -16 25 -4 10 -23 25 -42 33
-20 8 -33 19 -29 25 4 8 10 7 17 0 6 -6 19 -11 28 -11 21 0 203 90 208 103 4
10 50 3 129 -19z m-4213 -14 c-16 -4 -41 -8 -55 -9 -20 0 -22 1 -10 9 8 5 33
9 55 9 39 -1 39 -2 10 -9z m3752 -21 c23 -20 1 -27 -57 -19 -30 5 -87 9 -126
9 -39 1 -100 4 -135 9 l-64 7 75 6 c106 9 290 2 307 -12z m-1538 -18 c24 -25
31 -42 36 -96 9 -84 -2 -99 -42 -55 -28 32 -41 75 -42 143 -1 45 10 47 48 8z
m4137 -33 c-3 -29 -6 -87 -6 -129 0 -60 -4 -82 -19 -100 -15 -18 -22 -21 -33
-12 -9 8 -19 9 -28 3 -24 -15 -56 -11 -83 10 l-26 20 -3 -22 c-2 -15 -10 -23
-23 -23 -15 0 -21 8 -23 33 -5 48 4 68 23 52 13 -11 15 -1 15 77 0 56 5 96 13
106 17 24 60 35 136 36 l64 1 -7 -52z m-3464 -43 c-12 -27 -36 -26 -25 0 3 9
0 22 -6 29 -16 19 9 28 28 10 12 -11 12 -18 3 -39z m63 45 c3 -6 -1 -13 -10
-16 -19 -8 -30 0 -20 15 8 14 22 14 30 1z m-93 -115 c0 -5 -5 -11 -11 -13 -6
-2 -11 4 -11 13 0 9 5 15 11 13 6 -2 11 -8 11 -13z m513 -15 c0 -17 -43 -25
-64 -11 -22 14 -2 32 32 29 20 -2 32 -8 32 -18z m445 16 c0 -3 -4 -8 -10 -11
-5 -3 -10 -1 -10 4 0 6 5 11 10 11 6 0 10 -2 10 -4z m53 -2 c3 -4 -1 -21 -11
-38 -16 -30 -17 -30 -20 -8 -6 39 12 65 31 46z m4942 -14 c-3 -5 -21 -10 -38
-9 -31 1 -31 1 -7 9 36 11 52 11 45 0z m-6650 -66 c-10 -21 -22 -73 -27 -117
-4 -44 -11 -84 -14 -88 -3 -5 -16 -6 -30 -3 -14 4 -31 1 -39 -6 -12 -10 -15
-9 -15 9 0 11 -3 21 -7 21 -5 0 -25 37 -47 83 -21 45 -44 94 -51 109 l-13 27
81 -5 c58 -4 94 -2 122 8 52 19 62 8 40 -38z m2705 40 c0 -8 -29 -32 -120
-101 -41 -31 -96 -76 -123 -100 -35 -32 -54 -43 -73 -41 -22 3 -29 14 -59 106
-19 57 -40 112 -45 123 -10 19 -6 19 205 19 118 0 215 -3 215 -6z m830 4 c0
-2 -20 -59 -44 -128 l-44 -125 -36 1 c-20 0 -80 1 -134 2 l-98 2 40 125 41
125 138 0 c75 0 137 -1 137 -2z m-2298 -27 c96 -23 123 -40 150 -96 27 -54 17
-94 -24 -109 -24 -8 -33 -5 -68 23 l-41 33 -35 -21 c-46 -27 -68 -26 -108 4
-41 31 -45 31 -89 1 l-36 -25 -41 30 -42 30 18 27 c42 67 85 97 157 112 62 12
75 11 159 -9z m575 -271 c6 -129 0 -167 -53 -338 -32 -105 -37 -113 -52 -99
-10 8 -61 19 -121 26 -103 12 -118 17 -176 49 l-30 16 50 9 c29 5 58 17 69 29
25 27 196 401 225 493 13 39 25 77 28 85 12 33 54 -157 60 -270z m4841 261 c0
-9 1 -82 1 -162 1 -140 -10 -240 -28 -263 -4 -6 -14 -29 -21 -51 -15 -47 -25
-61 -35 -45 -4 7 -11 8 -19 1 -8 -7 -10 0 -8 30 2 21 7 39 11 39 12 0 29 119
41 280 6 80 15 154 20 166 9 24 36 28 38 5z m-7734 -36 c45 -48 94 -70 191
-86 33 -5 80 -16 105 -23 25 -8 82 -22 128 -32 46 -9 85 -20 87 -24 2 -4 -146
-8 -330 -9 l-335 -2 -2 80 c-1 45 -2 91 -2 104 -1 20 5 23 54 28 30 3 57 6 59
7 2 1 23 -18 45 -43z m2786 15 c0 -5 -4 -10 -10 -10 -5 0 -10 5 -10 10 0 6 5
10 10 10 6 0 10 -4 10 -10z m2438 -63 c10 -8 12 -28 7 -76 -13 -138 -13 -139
-59 -166 -61 -36 -101 -33 -127 8 -18 28 -20 43 -15 116 6 92 19 118 65 123
60 8 117 6 129 -5z m-3212 -97 c18 -12 35 -29 38 -38 8 -28 28 -243 23 -248
-3 -3 -16 -2 -31 2 -17 4 -26 13 -26 26 0 10 -13 73 -30 138 -16 65 -30 124
-30 129 0 17 19 13 56 -9z m192 -12 c16 -13 13 -46 -15 -200 -15 -85 -16 -88
-43 -88 l-27 0 -12 113 c-14 147 -14 157 6 180 19 20 63 18 91 -5z m156 3 c16
-17 14 -26 -34 -157 -27 -76 -50 -140 -50 -141 0 -2 -13 -3 -30 -3 -36 0 -36
-2 -10 149 11 63 17 117 15 121 -6 10 55 50 76 50 9 0 24 -8 33 -19z m70 -146
c-61 -120 -92 -160 -110 -142 -2 2 9 35 24 73 16 38 37 93 46 122 16 47 23 56
60 72 22 9 43 16 45 14 3 -2 -27 -65 -65 -139z m-3585 51 c-3 -3 -11 5 -18 17
-13 21 -12 21 5 5 10 -10 16 -20 13 -22z m2569 -17 c23 -20 42 -43 42 -52 0
-19 -15 -23 -25 -7 -3 6 -13 10 -22 10 -14 0 -14 -2 1 -19 16 -17 16 -23 3
-62 -8 -24 -19 -45 -24 -46 -5 -2 -18 16 -28 39 l-18 43 -7 -30 -8 -30 -1 27
c0 15 4 61 10 102 13 84 10 83 77 25z m5906 -32 c35 -46 111 -210 132 -285
l17 -63 -24 -25 c-17 -18 -32 -24 -54 -22 -66 6 -99 99 -100 283 0 61 -4 118
-9 128 -14 30 11 19 38 -16z m-1212 -19 c-13 -13 -26 8 -17 30 6 16 7 16 17
-1 7 -13 7 -22 0 -29z m-6128 6 c19 -18 20 -28 6 -55 -14 -26 -55 -24 -74 3
-9 12 -16 26 -16 30 0 14 32 38 50 38 10 0 26 -7 34 -16z m5111 -24 c-9 -15
-108 -80 -114 -75 -9 9 35 48 74 66 47 22 48 22 40 9z m-3486 -108 c14 -24 37
-61 52 -80 l25 -36 90 2 c96 2 92 -10 -8 -22 -32 -4 -58 -12 -58 -18 0 -12
-90 -3 -132 14 -33 12 -46 47 -54 151 l-7 81 33 -24 c18 -13 44 -43 59 -68z
m4441 78 c0 -12 -47 -36 -114 -60 -28 -9 -109 -39 -181 -65 -71 -26 -157 -58
-190 -70 -126 -46 -439 -214 -530 -284 -115 -89 -181 -121 -251 -121 -48 0
-55 3 -75 32 -21 29 -21 31 -3 23 10 -4 49 -10 85 -13 l66 -4 103 77 c98 75
312 205 335 205 6 0 54 21 106 46 100 49 273 113 321 119 62 8 91 17 78 25 -8
5 7 13 41 23 30 9 86 29 124 46 79 33 85 35 85 21z m-4250 -63 c0 -30 10 -40
27 -26 19 16 17 -6 -3 -25 -19 -19 -26 -20 -42 -4 -18 18 -16 78 3 78 9 0 15
-9 15 -23z m2877 1 c-3 -8 -6 -5 -6 6 -1 11 2 17 5 13 3 -3 4 -12 1 -19z m23
-32 c-22 -51 -25 -70 -11 -62 5 3 4 -13 -2 -35 -11 -44 -39 -63 -70 -47 -17 9
-15 12 15 46 19 21 44 63 57 95 13 32 25 56 28 54 2 -2 -6 -25 -17 -51z
m-2090 30 c0 -11 -19 -15 -25 -6 -3 5 1 10 9 10 9 0 16 -2 16 -4z m1618 -26
c18 -32 27 -36 38 -18 4 6 3 8 -3 5 -6 -4 -18 4 -27 18 -18 28 -8 32 27 13 14
-8 61 -13 127 -13 l105 0 12 -49 c7 -27 17 -53 24 -56 6 -4 15 -26 19 -49 11
-61 -2 -72 -98 -81 -45 -5 -91 -11 -102 -15 -48 -15 -90 30 -90 97 0 23 -3 29
-9 19 -9 -14 4 -79 20 -95 5 -6 9 -19 9 -29 0 -16 5 -18 28 -13 15 3 71 9 124
13 115 7 133 -1 125 -54 -6 -32 -5 -33 31 -35 66 -3 -200 -15 -308 -14 l-105
1 -17 64 c-10 36 -23 68 -30 73 -7 5 -30 7 -50 6 -21 -2 -38 -3 -38 -2 0 1 13
30 29 65 16 35 40 90 54 122 24 52 29 57 57 57 24 0 35 -7 48 -30z m722 23 c0
-1 -30 -23 -67 -49 -38 -26 -94 -72 -126 -103 -49 -48 -57 -52 -48 -28 6 16
11 42 11 58 0 16 11 52 25 79 l25 49 90 -2 c49 -1 90 -3 90 -4z m40 -17 c0 -2
-8 -10 -17 -17 -16 -13 -17 -12 -4 4 13 16 21 21 21 13z m-2432 -51 c-23 -24
-58 -27 -58 -4 0 4 7 6 15 3 8 -4 15 -1 15 4 0 19 32 44 43 33 6 -6 1 -18 -15
-36z m-663 16 c0 -8 -10 -16 -22 -17 -22 -4 -32 14 -16 30 11 11 38 2 38 -13z
m3055 5 c0 -2 -8 -10 -17 -17 -16 -13 -17 -12 -4 4 13 16 21 21 21 13z m-2475
-36 c3 -5 -3 -10 -14 -10 -12 0 -21 5 -21 10 0 6 6 10 14 10 8 0 18 -4 21 -10z
m5040 -37 c24 -37 31 -75 19 -107 -3 -9 -10 -16 -15 -16 -11 0 -46 81 -55 125
-9 48 17 47 51 -2z m-2695 -49 c-29 -31 -50 -48 -46 -38 6 15 2 13 -18 -5 -14
-14 -28 -22 -31 -19 -3 2 27 36 67 74 84 82 107 72 28 -12z m-168 -37 c28 4
38 2 38 -8 -1 -20 -64 -132 -77 -136 -23 -8 -43 28 -43 77 0 63 7 82 28 71 8
-5 33 -6 54 -4z m-4089 -62 c4 -33 6 -76 5 -95 -3 -32 -6 -35 -40 -41 -20 -3
-51 -4 -67 -1 -29 4 -31 7 -31 51 0 56 9 91 22 91 6 0 8 -7 4 -15 -3 -8 -1
-15 4 -15 6 0 6 -10 0 -26 -6 -14 -10 -32 -10 -41 0 -13 3 -13 15 -3 12 10 18
10 30 0 12 -10 19 -7 39 17 14 15 26 32 26 36 0 14 -30 20 -44 8 -10 -8 -16
-8 -26 4 -7 8 -9 15 -4 16 5 1 18 2 29 3 23 1 33 42 15 60 -9 8 -16 5 -31 -13
l-19 -23 2 26 c2 24 6 27 38 24 35 -3 35 -3 43 -63z m2502 -5 c31 -24 66 -57
78 -74 13 -20 15 -26 5 -18 -13 11 -20 11 -36 1 -16 -10 -26 -10 -47 -1 -31
14 -69 16 -61 3 3 -5 -15 -11 -40 -13 -25 -2 -48 0 -50 3 -4 8 9 40 50 118 22
42 30 51 37 39 4 -8 33 -34 64 -58z m3375 33 c0 -2 -41 -44 -92 -94 -93 -91
-128 -109 -128 -66 0 31 84 107 164 149 26 14 56 20 56 11z m1008 -83 c12 -12
22 -23 22 -26 0 -14 -23 -45 -41 -54 -39 -22 -65 32 -39 81 14 24 31 24 58 -1z
m-3478 -20 c-6 -11 -13 -20 -16 -20 -2 0 0 9 6 20 6 11 13 20 16 20 2 0 0 -9
-6 -20z m-1048 -73 c9 -9 47 -12 136 -10 68 2 127 5 131 7 4 3 21 -8 36 -24
28 -29 28 -30 7 -30 -18 0 -22 -6 -22 -30 0 -25 -4 -30 -25 -30 -21 0 -25 5
-25 30 0 25 -4 30 -25 30 -21 0 -25 -5 -25 -29 l0 -29 -99 -7 c-133 -9 -141
-6 -141 55 0 76 18 100 52 67z m1002 1 c-6 -10 -4 -10 7 0 22 20 29 14 29 -27
0 -45 11 -57 63 -66 67 -13 29 -20 -108 -20 -74 0 -132 1 -130 3 13 13 141
121 143 122 2 0 0 -6 -4 -12z m642 6 c59 -7 59 -7 98 -66 86 -130 181 -125
368 18 56 44 98 55 142 38 19 -7 21 -37 5 -67 -7 -11 -8 -22 -3 -24 30 -11 38
-22 25 -37 -11 -13 -9 -20 11 -45 20 -25 30 -29 69 -29 25 0 54 -4 63 -9 14
-8 2 -17 -65 -47 -82 -38 -83 -38 -143 -25 -56 11 -171 49 -339 113 -118 44
-283 55 -366 24 -13 -4 -43 -26 -68 -48 l-44 -39 -29 32 c-16 18 -24 34 -19
35 15 6 10 42 -6 42 -10 0 -15 11 -15 35 0 31 -3 35 -25 35 -22 0 -25 -4 -25
-34 0 -34 -1 -35 -29 -25 -29 10 -29 11 -10 30 12 12 19 33 19 59 l0 40 164 0
c89 0 190 -3 222 -6z m-1241 -116 c5 -5 -8 -8 -28 -8 -35 0 -37 2 -37 32 l0
31 28 -24 c15 -13 31 -27 37 -31z m-1667 17 c-12 -9 -68 -13 -68 -4 0 6 5 7
10 4 6 -3 10 -2 10 3 0 5 11 7 25 4 14 -2 25 -6 23 -7z m4315 -30 c18 -9 40
-27 51 -41 16 -23 17 -31 7 -65 -7 -21 -16 -39 -22 -39 -5 0 -2 16 6 36 15 36
15 37 -20 72 -29 30 -45 38 -88 43 l-52 6 43 2 c24 0 58 -6 75 -14z m427 -9
c75 -19 112 -34 132 -56 11 -12 50 -24 114 -35 100 -19 134 -37 134 -74 0 -11
5 -23 10 -26 16 -10 11 -33 -9 -40 -10 -3 -31 -17 -46 -31 -24 -22 -29 -24
-37 -10 -13 22 -74 37 -106 25 -15 -6 -43 -25 -62 -44 -19 -19 -47 -38 -61
-44 -23 -8 -27 -17 -32 -72 -7 -59 -5 -66 29 -127 20 -36 63 -104 96 -151 32
-47 80 -117 105 -156 26 -38 58 -82 71 -97 14 -15 25 -37 26 -50 1 -22 6 -23
86 -30 144 -11 371 -9 452 4 66 11 77 15 73 30 -7 20 34 148 72 224 l26 54 38
-80 c21 -44 42 -79 46 -78 20 4 61 -24 96 -65 20 -25 60 -59 87 -74 27 -15 50
-32 50 -36 0 -4 10 -12 23 -17 14 -6 -57 -8 -198 -7 -121 1 -406 1 -632 -1
-329 -3 -417 -1 -431 10 -34 23 -68 72 -111 158 -67 135 -24 121 -373 121
l-303 -1 40 33 c177 143 300 280 368 411 34 63 35 70 22 89 -8 12 -15 35 -15
51 0 19 -10 40 -27 58 l-27 28 59 60 c57 58 61 60 110 60 27 -1 75 -7 105 -14z
m-4015 -35 c52 -11 -151 -12 -245 -1 -54 6 -43 7 70 8 74 0 153 -3 175 -7z
m1011 -25 c-13 -52 26 -105 77 -106 15 0 27 -5 27 -11 0 -8 -14 -10 -40 -6
-27 3 -40 1 -40 -6 0 -8 23 -13 59 -15 47 -2 60 0 65 14 4 12 2 15 -9 10 -8
-3 -15 -2 -15 2 0 14 22 31 35 26 6 -3 17 2 24 10 11 13 15 13 34 -4 24 -23
96 -27 115 -8 9 9 14 6 21 -13 5 -13 7 -27 5 -31 -2 -3 11 -6 29 -6 17 1 46
-5 62 -13 29 -13 27 -14 -50 -19 -56 -5 -22 -7 115 -8 184 -2 198 -4 248 -27
60 -28 73 -60 22 -53 -22 3 -30 0 -31 -11 -4 -44 -7 -58 -16 -76 -6 -11 -13
-41 -17 -67 l-7 -46 68 0 c37 0 88 -7 113 -15 44 -15 44 -15 19 -25 -14 -5
-81 -13 -150 -17 -68 -4 -139 -13 -157 -21 -25 -10 -122 -13 -419 -14 l-387
-2 -10 24 c-43 103 -188 387 -205 402 -17 16 -21 31 -21 83 0 59 1 63 23 63
20 0 23 -5 23 -35 0 -64 62 -103 132 -81 19 6 22 14 22 62 0 51 2 54 25 54 22
0 24 -4 27 -57 l3 -58 51 -3 c47 -3 54 0 79 29 20 24 25 40 21 60 -5 26 3 36
28 38 4 1 5 -10 2 -23z m-715 -1 c25 -9 68 -150 75 -245 l7 -85 -25 23 c-13
12 -28 22 -32 22 -5 0 -69 30 -143 67 l-135 67 -29 -32 c-16 -18 -29 -37 -29
-43 0 -37 280 -193 347 -193 18 0 33 -5 33 -10 0 -6 -14 -62 -30 -125 -33
-124 -101 -280 -143 -325 -15 -16 -27 -36 -27 -45 0 -9 -7 -26 -15 -38 -14
-20 -13 -21 12 -28 15 -3 52 -32 81 -63 52 -54 54 -58 49 -101 -4 -36 -12 -51
-43 -78 -50 -42 -162 -98 -239 -119 -81 -21 -266 -30 -335 -15 -68 15 -240 96
-300 142 -64 50 -82 57 -35 15 l40 -36 -80 42 c-44 24 -105 60 -135 81 -77 53
-174 111 -253 152 -66 35 -205 75 -260 75 -16 0 -26 4 -22 10 4 6 -10 10 -34
10 -22 0 -43 -4 -46 -10 -3 -5 -16 -10 -28 -9 l-22 0 21 9 c23 9 41 30 27 30
-5 0 -14 -5 -21 -12 -7 -7 -12 -9 -12 -5 0 4 17 22 37 40 21 18 56 52 78 76
22 23 58 54 80 67 22 13 54 38 70 56 18 19 22 27 10 19 -11 -7 0 5 25 28 25
23 44 46 43 51 -3 12 86 86 99 82 5 -1 25 11 44 28 41 36 44 36 37 9 -5 -19
-3 -20 14 -11 11 6 26 19 34 28 13 15 12 16 -11 10 -19 -6 -21 -5 -10 3 8 6
23 8 32 5 9 -3 20 2 25 9 9 16 125 77 146 77 7 0 26 14 43 31 16 17 43 39 59
49 34 20 91 39 65 21 -12 -9 -13 -14 -2 -31 6 -11 12 -30 13 -42 0 -13 3 -18
5 -11 3 7 12 9 19 6 8 -2 70 13 137 36 68 22 157 48 198 56 158 33 256 108
205 159 -13 13 -11 15 15 21 17 4 45 4 63 1 26 -5 28 -4 12 4 -22 11 167 6
196 -5z m429 -25 c0 -26 -4 -40 -13 -40 -20 0 -37 21 -37 45 0 26 8 35 32 35
14 0 18 -8 18 -40z m198 12 c4 -26 -13 -52 -34 -52 -10 0 -14 13 -14 41 0 36
2 40 23 37 14 -2 23 -11 25 -26z m559 12 c-3 -3 -12 -4 -19 -1 -8 3 -5 6 6 6
11 1 17 -2 13 -5z m-364 -55 c-8 -8 -16 -8 -30 0 -16 9 -14 10 12 11 21 0 26
-3 18 -11z m177 1 c0 -5 -2 -10 -4 -10 -3 0 -8 5 -11 10 -3 6 -1 10 4 10 6 0
11 -4 11 -10z m3197 -47 c-3 -10 -5 -2 -5 17 0 19 2 27 5 18 2 -10 2 -26 0
-35z m-7553 10 c-13 -50 -51 -128 -73 -148 -25 -22 -127 -37 -140 -21 -16 20
8 55 52 76 24 11 70 43 102 70 33 28 61 50 62 50 2 0 0 -12 -3 -27z m6645 -29
c-85 -91 -484 -384 -642 -472 -29 -16 -69 -39 -89 -51 -21 -13 -38 -21 -38
-18 0 5 107 77 115 77 3 0 76 47 163 104 194 128 390 274 457 342 50 51 79 66
34 18z m-4569 -9 c0 -16 -87 -172 -137 -246 -77 -113 -106 -147 -140 -160 -41
-16 -182 -17 -191 -2 -5 7 -31 14 -59 15 -51 3 -52 3 -37 25 18 28 18 33 -3
33 -42 0 -70 64 -39 90 8 6 12 18 9 26 -7 20 10 17 41 -7 15 -12 36 -19 48
-16 21 3 20 5 -10 17 -21 8 -31 17 -28 26 3 8 2 14 -3 14 -5 0 -11 9 -14 20
-7 28 9 25 52 -9 34 -27 68 -41 134 -56 18 -3 26 -2 23 4 -4 6 5 6 26 1 64
-19 227 88 284 186 22 38 44 57 44 39z m5489 -60 c16 -20 16 -20 -6 -1 -13 11
-22 29 -22 40 1 20 2 20 6 1 3 -11 12 -29 22 -40z m-1314 -70 c-70 -125 -224
-205 -503 -260 -20 -4 -38 -2 -47 5 -8 7 -20 10 -27 8 -26 -10 -346 11 -412
26 -37 9 -101 32 -143 51 -85 39 -87 40 -77 23 4 -7 4 -10 0 -6 -4 3 -8 10 -8
15 -1 4 -14 16 -30 25 -52 32 -81 103 -62 152 5 12 11 7 26 -22 36 -73 128
-127 294 -173 134 -36 143 -37 359 -35 193 2 217 5 303 29 156 45 260 107 307
182 58 92 74 76 20 -20z m495 70 c0 -9 -7 -27 -16 -40 -17 -26 -105 -95 -120
-95 -5 0 -1 7 9 14 24 19 4 30 -25 15 -28 -14 -30 -17 57 60 70 62 95 74 95
46z m662 -90 c2 -21 0 -35 -7 -35 -7 0 -9 14 -7 35 2 19 5 35 7 35 2 0 5 -16
7 -35z m-205 -7 c-3 -8 -6 -5 -6 6 -1 11 2 17 5 13 3 -3 4 -12 1 -19z m448 2
c10 -11 16 -20 13 -20 -3 0 -13 9 -23 20 -10 11 -16 20 -13 20 3 0 13 -9 23
-20z m-371 -51 c29 -6 29 -7 5 -8 -14 -1 -34 6 -45 15 -10 8 -13 12 -5 8 8 -4
28 -11 45 -15z m417 -6 c13 -16 12 -17 -3 -4 -10 7 -18 15 -18 17 0 8 8 3 21
-13z m-7425 -38 c18 -9 56 -15 97 -15 43 0 66 -4 62 -10 -7 -11 -161 -12 -210
-1 -17 3 -31 14 -33 24 -4 22 43 23 84 2z m7033 -65 c11 -24 11 -24 -3 -6 -9
11 -16 24 -16 30 0 12 5 7 19 -24z m201 10 c0 -5 -5 -10 -11 -10 -5 0 -7 5 -4
10 3 6 8 10 11 10 2 0 4 -4 4 -10z m136 -29 c-3 -5 -15 -7 -26 -4 -28 7 -25
13 6 13 14 0 23 -4 20 -9z m-291 -19 c-3 -3 -11 0 -18 7 -9 10 -8 11 6 5 10
-3 15 -9 12 -12z m58 -9 c-7 -2 -19 -2 -25 0 -7 3 -2 5 12 5 14 0 19 -2 13 -5z
m-3953 -108 c5 3 12 -6 16 -20 7 -30 12 -31 30 -8 11 16 13 15 20 -11 13 -54
-16 -355 -42 -425 -3 -10 -22 2 -62 42 -33 32 -76 63 -102 73 -25 9 -46 18
-48 20 -2 1 12 26 31 55 41 66 75 138 113 243 23 61 30 72 32 52 2 -14 7 -24
12 -21z m1794 -11 c-21 -26 -51 -66 -66 -88 -16 -23 -28 -35 -28 -29 0 10
-132 13 -611 15 l-611 3 -13 40 c-8 21 -13 40 -12 41 1 2 272 5 602 8 681 6
729 9 753 42 9 12 19 20 21 18 2 -2 -14 -25 -35 -50z m2164 24 c-2 -8 21 -13
72 -16 41 -2 77 -6 80 -9 3 -3 -27 -3 -67 -1 -47 2 -69 0 -66 -7 4 -5 -3 -2
-15 9 -12 10 -19 23 -16 27 8 13 14 11 12 -3z m385 -12 c4 -10 1 -13 -8 -9 -8
3 -12 9 -9 14 7 12 11 11 17 -5z m-1997 -111 c-11 -8 -25 -15 -30 -15 -6 0 -2
7 8 15 11 8 25 15 30 15 6 0 2 -7 -8 -15z m-46 -20 c0 -3 -51 -31 -112 -62
-130 -67 -137 -70 -123 -55 8 8 220 119 233 121 1 1 2 -1 2 -4z m-2075 -193
c-7 -26 -25 -73 -39 -106 -30 -66 -30 -80 -1 -35 11 16 26 29 33 29 28 0 9
-65 -52 -185 -53 -104 -60 -121 -39 -108 13 9 36 36 50 61 36 62 41 36 8 -45
-33 -84 -169 -288 -223 -337 -21 -18 -59 -15 -47 4 4 6 12 7 18 4 8 -5 9 -4 2
4 -21 22 -54 17 -84 -12 -24 -23 -33 -27 -44 -17 -12 9 -16 7 -20 -9 -7 -28
-45 -26 -56 3 -11 29 -112 150 -119 143 -3 -3 -11 -1 -19 5 -10 9 -19 7 -38
-5 -21 -14 -29 -14 -48 -5 -22 12 -22 12 8 24 87 32 115 49 129 75 10 21 11
30 2 34 -6 2 -3 5 6 5 9 1 23 7 30 14 7 7 51 32 98 56 47 24 109 63 138 86 30
23 64 42 75 41 14 -1 28 9 37 25 8 14 37 63 63 110 44 76 66 111 112 177 25
35 35 17 20 -36z m1805 54 c0 -2 -9 -6 -20 -9 -11 -3 -18 -1 -14 4 5 9 34 13
34 5z m-53 -22 c-3 -3 -12 -4 -19 -1 -8 3 -5 6 6 6 11 1 17 -2 13 -5z m-40
-10 c-3 -3 -12 -4 -19 -1 -8 3 -5 6 6 6 11 1 17 -2 13 -5z m-44 -11 c-7 -2
-19 -2 -25 0 -7 3 -2 5 12 5 14 0 19 -2 13 -5z m1399 -7 c111 0 186 -4 185 -9
-1 -5 4 -12 11 -14 6 -3 12 2 12 11 0 9 3 16 8 16 4 0 16 3 27 6 16 4 22 0 25
-18 8 -45 3 -304 -8 -403 -6 -55 -11 -110 -12 -122 0 -13 -4 -23 -9 -23 -5 0
-9 56 -10 125 0 69 -3 130 -6 136 -4 5 -15 7 -24 4 -10 -3 -24 1 -31 10 -41
50 -84 -20 -138 -225 -11 -41 -23 -94 -27 -117 -16 -97 -22 -38 -20 192 1 207
-1 246 -14 264 -15 19 -30 20 -458 27 l-443 7 98 42 c53 24 122 57 152 75 l55
31 220 -8 c121 -4 304 -8 407 -7z m-1543 -68 l52 -68 -96 0 c-54 0 -95 -4 -95
-10 0 -21 44 -30 151 -30 93 0 116 -3 132 -17 25 -23 153 -23 247 1 55 13 141
16 584 16 l518 0 -6 -22 c-3 -13 -6 -54 -6 -93 0 -52 -3 -66 -11 -55 -8 11 -9
8 -4 -15 14 -61 17 -268 4 -307 l-12 -38 -111 1 c-61 1 -102 4 -90 6 20 4 21
12 27 196 6 157 4 194 -7 206 -23 22 -65 6 -80 -32 -13 -30 -37 -177 -51 -309
l-6 -57 48 -3 c26 -2 -340 -7 -815 -12 -818 -8 -864 -7 -882 9 -19 17 -20 32
-20 239 0 218 0 221 24 251 l24 30 133 5 c117 4 134 7 137 23 3 16 -9 17 -155
17 -87 0 -163 -4 -170 -8 -21 -13 -39 -122 -31 -192 4 -36 7 -136 6 -222 -1
-105 3 -162 11 -171 8 -11 7 -24 -4 -57 -12 -34 -15 -85 -13 -244 2 -129 -1
-201 -7 -201 -5 1 -58 7 -117 14 l-108 14 -2 346 c-4 594 -3 724 3 791 3 36 7
54 8 41 1 -23 2 -23 76 -16 42 4 205 10 362 14 215 5 288 10 291 20 2 7 5 11
7 9 1 -2 26 -33 54 -70z m-839 11 c0 -42 -3 -52 -20 -56 -11 -3 -20 -9 -20
-14 0 -5 -56 -9 -124 -9 -123 0 -124 0 -130 24 -3 14 -3 33 1 43 8 21 33 48
33 36 0 -5 56 -10 125 -11 120 -3 125 -2 125 17 0 12 2 21 5 21 3 0 5 -23 5
-51z m-834 -68 c-15 -28 -28 -51 -31 -51 -3 0 7 25 22 55 15 30 29 53 31 51 2
-2 -8 -27 -22 -55z m831 -515 c3 -253 2 -483 -2 -513 l-6 -53 -45 0 c-45 0
-45 0 -42 -32 3 -31 6 -33 46 -36 23 -2 42 -6 42 -10 0 -4 -20 -6 -44 -4 l-43
4 -6 -54 c-4 -29 -7 -72 -7 -94 0 -92 -109 -97 -111 -5 -1 34 -2 32 -22 -26
-34 -96 -65 -121 -117 -93 -17 9 -21 6 -26 -17 -4 -16 -14 -41 -22 -58 -19
-38 -81 -219 -77 -224 2 -2 17 6 33 18 35 25 42 26 42 7 0 -7 -15 -20 -32 -27
-18 -7 -51 -26 -72 -41 -21 -15 -52 -28 -67 -28 -15 0 -39 -4 -52 -9 -22 -8
-24 -7 -20 10 3 12 14 19 28 19 34 0 51 25 36 56 -18 40 1 125 84 374 64 193
83 263 111 408 3 13 9 20 14 17 5 -3 50 21 99 55 49 33 113 67 141 76 28 8 53
21 56 29 3 7 18 18 34 25 16 7 31 19 34 27 7 18 -3 63 -14 63 -5 0 -37 49 -72
110 -62 108 -78 127 -78 93 -1 -29 -69 124 -90 201 -21 75 -27 182 -10 171 6
-3 10 1 10 10 0 14 17 15 131 13 l132 -3 4 -459z m2736 404 c3 -11 2 -20 -3
-20 -4 0 -10 11 -12 25 -6 29 7 25 15 -5z m-3613 3 c0 -5 -12 -14 -28 -20
l-27 -13 24 20 c25 22 31 24 31 13z m-1060 -188 c14 -8 21 -14 15 -14 -5 0
-21 6 -35 14 -14 8 -20 14 -15 14 6 0 21 -6 35 -14z m1232 -47 c2 -15 -25 -70
-75 -153 -89 -148 -102 -165 -94 -118 4 18 34 81 68 140 34 60 67 118 73 130
14 29 24 29 28 1z m3345 -290 c-2 -29 -3 -8 -3 47 0 55 1 79 3 53 2 -26 2 -71
0 -100z m398 -7 c10 -14 22 -48 26 -77 8 -61 103 -266 172 -372 48 -73 109
-189 171 -329 47 -105 71 -214 56 -256 -5 -16 -10 -39 -10 -51 0 -12 -9 -50
-20 -86 -11 -36 -36 -117 -55 -180 -39 -126 -139 -315 -166 -315 -8 0 -23 -8
-33 -17 -10 -10 -23 -18 -29 -18 -7 0 -32 -23 -56 -51 -39 -46 -86 -77 -99
-65 -2 3 14 26 37 52 24 27 41 57 41 71 0 29 -41 69 -79 78 l-28 6 19 38 c15
31 16 43 7 69 -6 18 -20 37 -31 43 -16 8 -19 8 -13 -1 5 -8 3 -11 -6 -8 -8 3
-13 11 -12 17 4 17 -6 13 -39 -14 -22 -19 -42 -26 -72 -26 -22 0 -83 -2 -133
-5 -79 -5 -93 -4 -93 9 0 9 -7 23 -16 31 -8 9 -11 16 -5 16 21 0 11 28 -13 34
-34 8 -40 33 -10 40 37 10 29 23 -11 18 -41 -5 -46 10 -13 45 l21 23 -31 0
c-17 0 -34 5 -37 10 -3 6 2 10 13 10 11 0 30 8 43 19 13 10 56 36 94 56 39 21
102 61 140 90 96 71 114 80 121 60 9 -22 -1 -42 -33 -62 -15 -9 -48 -34 -73
-55 -25 -20 -84 -55 -131 -77 -48 -22 -89 -47 -92 -55 -6 -15 -3 -15 31 0 73
30 255 154 291 197 17 21 50 22 58 1 3 -8 -4 -28 -16 -44 -26 -36 -27 -44 -1
-30 27 14 44 49 42 83 -2 17 2 26 8 22 5 -3 10 0 10 9 0 9 15 17 40 21 26 4
40 12 40 22 0 27 25 7 57 -48 18 -30 35 -61 39 -69 15 -33 59 -70 90 -76 40
-7 92 18 98 49 22 105 22 148 2 188 -19 37 -20 42 -6 34 14 -9 12 12 -5 44 -8
16 -23 31 -34 34 -17 4 -61 76 -61 98 0 5 -13 27 -29 51 -16 24 -43 74 -61
113 -18 38 -39 83 -47 99 -13 25 -13 28 0 23 19 -7 -68 206 -100 247 -13 16
-23 43 -23 60 0 45 -33 94 -72 105 -25 7 -28 9 -10 10 18 1 22 7 22 36 0 31 3
36 30 41 33 7 31 24 -3 24 -17 0 -19 2 -8 9 16 10 60 -22 96 -68z m-1321 -10
c10 -16 105 -24 122 -10 13 10 17 10 24 -1 7 -11 14 -11 32 -3 14 6 36 9 51 6
31 -6 33 -23 17 -119 -22 -128 -30 -151 -56 -162 -13 -7 -24 -20 -24 -29 -1
-15 -5 -13 -23 9 -12 15 -31 28 -42 29 -45 3 -137 0 -150 -5 -25 -9 -18 -70
10 -104 29 -35 31 -45 10 -62 -8 -7 -15 -21 -15 -31 0 -17 13 -19 213 -22 116
-1 -178 -3 -655 -5 l-867 -2 -20 26 c-20 25 -21 39 -21 234 0 191 2 209 20
232 l19 25 675 2 c410 1 677 -2 680 -8z m653 -33 c-3 -7 -5 -2 -5 12 0 14 2
19 5 13 2 -7 2 -19 0 -25z m-215 -13 c-7 -37 -22 -41 -22 -6 0 20 5 31 14 31
9 0 12 -8 8 -25z m147 -7 l-1 -33 -7 30 c-7 29 -8 29 -22 -20 -14 -47 -17 -50
-48 -50 -32 0 -33 1 -27 35 3 19 6 43 6 53 0 14 9 17 50 17 50 0 50 0 49 -32z
m-223 -116 c-13 -12 -17 8 -9 44 l8 39 3 -39 c2 -21 1 -41 -2 -44z m231 -104
c-2 -35 -3 -9 -3 57 0 66 1 94 3 63 2 -32 2 -86 0 -120z m-169 -28 c70 -84
117 -124 142 -117 16 4 20 0 20 -20 0 -31 -17 -63 -33 -63 -8 0 -7 3 2 9 11 7
5 11 -24 17 -21 4 -56 17 -79 30 -28 17 -57 24 -93 24 -82 0 -85 2 -63 65 10
29 24 79 30 111 l12 59 17 -25 c9 -13 40 -54 69 -90z m250 -133 c-16 -33 -18
-33 -18 1 0 24 4 30 15 26 12 -5 12 -10 3 -27z m-2336 -117 c-2 -22 -6 -40 -8
-40 -2 0 -4 18 -4 40 0 22 3 40 8 40 4 0 6 -18 4 -40z m2191 33 c-7 -2 -19 -2
-25 0 -7 3 -2 5 12 5 14 0 19 -2 13 -5z m-1982 -13 c21 0 28 -7 36 -35 6 -19
7 -33 2 -29 -5 3 -9 12 -9 19 0 16 -9 19 -120 40 l-75 14 70 -4 c39 -3 82 -5
96 -5z m-3831 -108 c4 -41 9 -57 20 -58 8 -1 19 -2 24 -3 5 0 1 -10 -9 -21
-10 -12 -24 -46 -31 -78 l-12 -57 -1 50 c-1 45 -4 53 -31 68 -30 18 -42 57
-17 57 15 0 37 54 37 90 0 44 15 8 20 -48z m4803 61 c-166 -2 -440 -2 -610 0
-169 1 -33 2 302 2 336 0 474 -1 308 -2z m940 0 c-35 -2 -91 -2 -125 0 -35 2
-7 3 62 3 69 0 97 -1 63 -3z m-1231 -63 c-18 -4 -43 -17 -55 -28 -21 -19 -35
-21 -207 -23 -102 -1 -204 -6 -228 -10 -51 -11 -77 0 -86 36 -9 37 -26 31 -26
-9 0 -19 -3 -37 -7 -39 -5 -3 -8 15 -8 39 l0 44 325 -1 c181 -1 310 -5 292 -9z
m1425 -32 c-3 -7 -5 -2 -5 12 0 14 2 19 5 13 2 -7 2 -19 0 -25z m-2380 -110
c-2 -18 -4 -6 -4 27 0 33 2 48 4 33 2 -15 2 -42 0 -60z m60 -85 c-2 -32 -3 -6
-3 57 0 63 1 89 3 58 2 -32 2 -84 0 -115z m1823 146 c0 -5 -7 -9 -15 -9 -15 0
-20 12 -9 23 8 8 24 -1 24 -14z m-230 -34 c0 -8 -4 -15 -10 -15 -5 0 -10 7
-10 15 0 8 5 15 10 15 6 0 10 -7 10 -15z m-4301 -121 c-10 -13 -15 -12 -36 8
-19 17 -26 20 -32 9 -6 -10 -10 -9 -15 4 -18 49 16 86 43 45 14 -21 14 -21 30
12 l15 33 4 -48 c2 -28 -2 -55 -9 -63z m-591 54 c18 -18 14 -46 -7 -58 -37
-19 -70 38 -33 59 22 13 26 13 40 -1z m491 -19 c14 -40 14 -39 -4 -39 -7 0
-18 7 -23 16 -10 19 -32 11 -32 -12 0 -8 -5 -14 -11 -14 -6 0 -9 14 -7 32 3
30 16 40 60 47 3 1 11 -13 17 -30z m-99 -9 c0 -5 -4 -10 -9 -10 -5 0 -18 -3
-28 -6 -16 -5 -16 -4 1 10 23 18 36 20 36 6z m6 -98 c17 -27 21 -89 6 -104 -5
-5 -14 19 -20 52 -7 32 -18 62 -24 66 -7 5 -9 -1 -5 -17 3 -13 9 -44 13 -69 7
-41 6 -44 -9 -32 -9 8 -22 12 -28 10 -7 -2 1 -14 19 -27 24 -16 32 -30 32 -52
l0 -30 -37 26 c-21 14 -44 25 -51 25 -9 0 -11 7 -8 20 3 11 9 30 12 43 3 12
17 45 30 74 28 56 41 59 70 15z m-449 -115 c34 -35 64 -63 65 -62 2 2 27 -11
57 -29 61 -35 83 -78 56 -105 -18 -18 -102 -51 -109 -43 -14 13 -4 41 20 57
20 13 23 19 13 31 -6 8 -15 14 -20 14 -5 0 -29 20 -53 45 -25 24 -57 47 -73
51 -41 9 -93 46 -93 67 0 9 9 26 20 37 26 26 38 20 117 -63z m548 -67 c-4 -19
-6 -52 -6 -72 0 -31 -5 -42 -29 -60 -25 -18 -30 -29 -30 -63 0 -23 -7 -50 -15
-61 -13 -17 -14 -14 -15 38 0 31 4 59 9 62 4 3 7 16 4 28 -2 13 7 57 21 98 13
41 22 79 18 84 -3 5 -12 -15 -21 -45 -13 -41 -19 -50 -24 -36 -11 28 -9 53 9
108 l16 49 35 -47 c28 -40 33 -54 28 -83z m5520 110 c13 -22 -20 -52 -103 -94
-48 -24 -103 -55 -122 -68 -68 -46 -170 -62 -170 -27 0 8 4 8 13 1 18 -15 72
6 154 61 38 25 80 51 94 56 13 6 44 26 69 45 49 38 56 41 65 26z m-6258 -10
c11 0 14 -7 9 -25 -5 -18 -2 -25 9 -25 19 0 19 -24 0 -40 -8 -7 -15 -23 -15
-36 0 -13 -4 -24 -10 -24 -17 0 -29 36 -35 100 -4 53 -3 61 11 56 9 -3 23 -6
31 -6z m-75 -17 c21 -19 24 -43 5 -43 -19 0 -37 21 -37 42 0 22 8 23 32 1z
m6188 9 c0 -20 -131 -72 -195 -77 -46 -4 -48 -3 -25 9 14 7 42 17 64 20 21 4
62 18 90 31 55 26 66 29 66 17z m-5533 -117 c52 -29 63 -49 63 -111 0 -20 -5
-24 -30 -24 -38 0 -86 24 -100 49 -11 22 -14 104 -3 115 8 8 4 9 70 -29z
m5353 22 c0 -2 -12 -14 -27 -28 l-28 -24 24 28 c23 25 31 32 31 24z m-5864
-44 c-11 -11 -19 6 -11 24 8 17 8 17 12 0 3 -10 2 -21 -1 -24z m-326 12 c17
-20 5 -45 -20 -45 -11 0 -23 7 -26 15 -6 15 11 45 26 45 4 0 13 -7 20 -15z
m260 -58 c0 -5 9 -22 21 -38 11 -16 18 -29 16 -29 -3 0 -21 23 -41 50 -25 35
-30 46 -16 38 11 -7 20 -17 20 -21z m203 -37 c12 -11 -50 -30 -71 -23 -26 9
-42 24 -36 34 6 10 94 1 107 -11z m5447 -61 c0 -15 79 -191 91 -204 7 -7 8 -4
4 8 -4 9 -3 17 3 17 5 0 12 -10 15 -22 2 -13 8 -32 12 -42 6 -15 5 -17 -5 -11
-10 6 -12 3 -6 -16 13 -44 19 -108 11 -136 -6 -25 -9 -21 -32 47 -15 46 -35
84 -51 99 -22 20 -80 126 -124 223 -5 13 0 21 20 32 32 18 62 20 62 5z m358
-104 c23 -30 42 -57 42 -60 0 -10 -55 23 -74 44 -10 11 -16 27 -13 36 8 20
-19 20 -66 0 -25 -10 -39 -25 -51 -56 -19 -48 -31 -46 -22 5 8 44 60 78 131
85 6 0 29 -24 53 -54z m-6077 -220 c-1 -15 -24 -12 -29 3 -3 9 2 13 12 10 10
-1 17 -7 17 -13z m-61 -10 c0 -18 -45 -49 -60 -40 -19 12 -10 33 18 43 38 14
42 14 42 -3z m400 -5 c0 -13 -38 -32 -51 -25 -14 10 9 35 32 35 11 0 19 -4 19
-10z m-345 -135 c-22 -9 -258 -46 -262 -41 -5 5 81 31 127 39 32 5 148 7 135
2z m513 -30 c205 -31 222 -34 222 -46 0 -5 -11 -9 -25 -9 -36 0 -357 58 -386
69 l-24 10 23 0 c13 1 98 -10 190 -24z m-502 -34 c-26 -29 -195 -111 -241
-117 -36 -5 -32 -2 35 28 41 19 107 51 145 71 82 42 83 43 61 18z m449 -74
c39 -22 95 -50 125 -64 36 -17 49 -27 38 -30 -20 -5 -219 95 -263 132 l-30 25
30 -12 c17 -7 62 -30 100 -51z m490 -257 l142 0 13 -45 c13 -45 30 -69 30 -43
1 29 40 -64 64 -152 14 -52 30 -111 36 -130 5 -19 10 -35 10 -35 0 -2 -624 6
-627 9 -7 7 -21 111 -16 123 3 7 9 10 14 7 11 -6 6 86 -5 104 -3 5 0 13 6 15
8 3 -2 19 -27 42 -22 20 -33 33 -25 29 12 -6 13 -4 3 7 -18 18 -16 39 2 39 8
0 15 5 15 10 0 21 47 30 134 25 49 -3 153 -5 231 -5z m5010 -1 c30 1 64 -5 85
-15 20 -10 67 -19 113 -22 76 -5 78 -5 73 -28 -7 -25 -1 -53 38 -184 47 -159
37 -171 -139 -168 -122 3 -135 7 -148 53 -3 11 -21 64 -41 118 -38 102 -44
133 -25 121 7 -4 9 -2 6 7 -3 8 -12 33 -19 57 -7 23 -16 42 -20 42 -4 0 -8 7
-8 16 0 11 5 14 18 9 9 -4 40 -7 67 -6z m-3881 -36 c9 -55 7 -118 -3 -146 -5
-13 -60 -70 -121 -126 -101 -92 -115 -101 -150 -101 l-39 0 3 73 c4 83 36 248
47 241 8 -4 29 58 29 84 0 9 29 12 114 12 l113 0 7 -37z m2596 22 c0 -8 5 -15
11 -15 7 0 9 -9 5 -22 -29 -104 -76 -295 -76 -310 0 -10 -1 -18 -2 -19 -54
-15 -266 -22 -715 -25 -483 -3 -553 -1 -553 12 0 15 26 57 79 129 16 22 46 69
68 104 44 75 109 147 138 154 11 3 251 5 533 6 449 1 512 -1 512 -14z m-4512
-188 c16 -34 7 -67 -19 -67 -16 0 -19 7 -19 51 0 56 15 63 38 16z m-521 -129
c-3 -8 -6 -5 -6 6 -1 11 2 17 5 13 3 -3 4 -12 1 -19z m2439 -266 c-10 -182
-43 -327 -93 -399 -39 -57 -57 -64 -99 -37 -16 11 -37 15 -63 11 -30 -4 -44 0
-59 13 -11 11 -22 16 -26 13 -3 -3 -12 0 -21 7 -12 10 -15 38 -15 144 0 72 3
162 7 200 6 69 7 70 68 130 l63 61 122 -3 122 -3 -6 -137z m-2508 127 c-10 -5
-18 -16 -18 -23 0 -8 -27 -67 -59 -132 -59 -117 -94 -232 -104 -337 -3 -27 -9
-53 -15 -59 -7 -7 -8 2 -1 28 4 22 9 51 9 67 0 25 -3 27 -42 27 -24 0 -53 3
-66 6 -23 7 -22 8 20 51 24 24 62 53 86 63 23 10 42 23 42 28 0 12 -25 22 -55
22 -14 0 -29 9 -35 20 -6 11 -8 20 -4 20 4 0 5 2 3 4 -2 3 -51 12 -109 21 -58
9 -112 20 -120 24 -9 5 -29 11 -45 15 -26 5 -38 -2 -98 -54 -54 -48 -75 -60
-101 -60 -42 0 -86 34 -86 66 0 31 -17 30 -52 -3 -15 -15 -28 -24 -28 -20 0 4
30 35 67 70 63 61 74 87 36 87 -9 0 -38 -13 -65 -30 -26 -16 -51 -30 -53 -30
-8 0 -27 51 -31 83 -3 20 1 27 14 27 9 0 26 7 36 15 16 12 92 14 455 14 303 0
431 -3 419 -10z m6449 -214 c67 -235 75 -274 40 -182 -13 32 -25 55 -29 52 -8
-8 -35 74 -49 150 -6 33 -27 88 -46 122 -36 65 -36 86 0 81 19 -3 29 -30 84
-223z m-2752 185 c-7 -14 -54 -97 -104 -185 -50 -87 -91 -163 -91 -167 0 -12
-111 -211 -124 -223 -6 -5 -20 -23 -30 -39 l-18 -29 -92 7 c-102 8 -252 30
-278 41 -14 6 -18 2 -19 -16 -1 -13 -5 0 -10 30 -10 58 -36 121 -50 121 -5 0
4 24 21 53 21 38 33 77 40 130 9 76 18 101 67 209 17 37 30 55 39 51 8 -3 18
6 25 20 l11 25 313 -1 313 -2 -13 -25z m2852 -532 c-3 -8 -6 -5 -6 6 -1 11 2
17 5 13 3 -3 4 -12 1 -19z m-6777 -13 c-7 -9 -27 -25 -44 -37 -23 -15 -21 -11
9 16 43 38 55 45 35 21z m4098 -467 c-8 -13 -40 -36 -70 -53 -31 -16 -64 -37
-74 -46 -11 -9 -30 -22 -44 -28 -22 -11 -22 -9 4 11 34 27 189 136 195 137 2
1 -3 -9 -11 -21z m-61 -2 c1 -1 -46 -27 -106 -58 -60 -32 -136 -64 -173 -73
-37 -8 -75 -18 -85 -22 -40 -14 6 15 77 47 41 19 107 54 148 77 59 33 81 41
106 36 17 -3 32 -6 33 -7z m-3954 -34 c-9 -5 0 -13 25 -22 l37 -14 -40 -12
c-22 -7 -79 -13 -127 -13 -85 -1 -88 0 -88 22 0 21 5 22 74 23 41 1 82 7 93
13 21 12 44 15 26 3z"/>
<path d="M2640 11666 c0 -52 1 -53 25 -48 16 3 34 -2 47 -14 l22 -19 -20 27
c-10 15 -23 28 -27 28 -5 0 -6 4 -3 9 3 5 -1 14 -9 21 -8 7 -15 21 -15 31 0
11 -4 19 -10 19 -5 0 -10 -24 -10 -54z"/>
<path d="M2730 11640 c0 -13 12 -19 26 -13 21 8 17 19 -6 19 -11 0 -20 -3 -20
-6z"/>
<path d="M4240 11268 c0 -19 2 -20 10 -8 13 19 13 30 0 30 -5 0 -10 -10 -10
-22z"/>
<path d="M9340 11231 c0 -5 6 -14 14 -20 12 -10 13 -8 9 8 -5 21 -23 30 -23
12z"/>
<path d="M9148 11170 c-18 -17 -25 -50 -10 -50 7 0 35 61 29 66 -1 1 -10 -6
-19 -16z"/>
<path d="M9047 10990 c4 -14 0 -20 -11 -20 -24 0 -20 -16 11 -40 22 -17 38
-20 97 -18 l71 3 3 31 c5 50 -17 64 -103 64 -68 0 -73 -1 -68 -20z"/>
<path d="M10508 8452 c-4 -36 17 -122 36 -140 22 -22 48 -8 40 23 -3 14 -2 25
2 25 5 0 7 27 6 60 -4 62 -20 79 -41 43 -6 -10 -11 -13 -11 -7 0 7 -6 14 -14
17 -10 4 -16 -2 -18 -21z"/>
<path d="M3290 10830 c0 -11 6 -20 13 -20 19 0 27 10 20 26 -8 21 -33 17 -33
-6z"/>
<path d="M6253 10464 c-3 -9 -7 -25 -8 -37 -1 -12 -3 -27 -4 -33 0 -5 -18 -18
-40 -27 -33 -15 -39 -23 -45 -58 -3 -22 -13 -58 -20 -80 -14 -39 -13 -40 11
-50 45 -17 72 -10 117 31 43 40 66 90 66 146 0 32 -12 56 -26 55 -5 -1 -10 9
-10 21 -1 12 -7 24 -13 26 -6 2 -9 8 -5 13 3 5 0 9 -6 9 -6 0 -13 -7 -17 -16z"/>
<path d="M5230 10210 c0 -5 5 -10 10 -10 6 0 10 5 10 10 0 6 -4 10 -10 10 -5
0 -10 -4 -10 -10z"/>
<path d="M7085 10084 c-24 -26 -52 -62 -62 -81 l-18 -35 30 -24 c17 -13 38
-24 47 -24 25 0 118 119 118 151 0 19 -8 29 -36 43 l-36 17 -43 -47z"/>
<path d="M5678 10113 c6 -2 18 -2 25 0 6 3 1 5 -13 5 -14 0 -19 -2 -12 -5z"/>
<path d="M6329 9930 c-17 -14 -19 -18 -6 -14 20 7 22 -6 5 -26 -7 -8 -3 -6 9
3 21 19 38 57 23 57 -4 0 -18 -9 -31 -20z"/>
<path d="M6396 9929 c3 -6 1 -14 -5 -18 -7 -5 -3 -15 14 -31 23 -21 27 -22 41
-9 13 14 12 18 -10 42 -24 26 -54 38 -40 16z"/>
<path d="M6280 9865 c0 -8 4 -15 10 -15 5 0 7 7 4 15 -4 8 -8 15 -10 15 -2 0
-4 -7 -4 -15z"/>
<path d="M7498 10667 c-16 -6 -28 -14 -28 -18 0 -11 38 2 51 17 6 8 10 14 8
13 -2 -1 -16 -6 -31 -12z"/>
<path d="M7860 10189 c-21 -51 -21 -52 -4 -85 10 -19 22 -34 26 -34 5 0 8 38
8 85 0 47 -2 85 -4 85 -2 0 -13 -23 -26 -51z"/>
<path d="M7882 10005 c0 -16 2 -22 5 -12 2 9 2 23 0 30 -3 6 -5 -1 -5 -18z"/>
<path d="M7876 9577 c-5 -9 -5 -29 0 -45 7 -25 8 -26 11 -4 3 12 3 32 0 45 -3
19 -4 20 -11 4z"/>
<path d="M7881 9454 c0 -11 3 -14 6 -6 3 7 2 16 -1 19 -3 4 -6 -2 -5 -13z"/>
<path d="M7680 9214 c1 -15 40 -57 47 -51 3 4 -6 19 -20 33 -15 15 -27 23 -27
18z"/>
<path d="M1683 9950 c-18 -10 -39 -33 -48 -49 -14 -28 -14 -33 2 -58 11 -17
25 -27 35 -25 9 2 19 -5 22 -16 5 -14 13 -18 39 -14 17 2 38 11 45 20 15 19
16 116 2 143 -14 25 -56 25 -97 -1z"/>
<path d="M8336 10124 c-9 -8 -19 -26 -22 -39 -14 -57 16 -87 67 -68 26 10 34
10 47 -3 9 -10 23 -13 36 -9 12 4 31 9 43 12 14 3 24 16 28 35 7 28 8 28 25
13 17 -16 19 -15 34 12 l15 28 1 -38 c0 -31 3 -38 18 -35 11 2 16 11 14 26 -3
22 -1 23 43 7 19 -7 18 -8 -5 -14 -33 -9 -32 -35 2 -39 20 -2 32 4 49 27 12
17 27 27 32 24 12 -7 3 8 -27 50 -24 32 -59 35 -79 6 -15 -21 -15 -21 -21 -1
-6 16 -15 20 -53 19 -39 0 -48 -4 -63 -29 -13 -22 -19 -26 -28 -16 -6 7 -11
18 -11 23 -1 20 -40 16 -53 -4 -8 -13 -23 -21 -40 -21 -14 0 -29 -6 -31 -12
-4 -10 -6 -10 -6 -1 -1 6 8 19 20 27 22 15 18 36 -6 36 -7 0 -21 -7 -29 -16z
m404 -29 c19 -23 8 -25 -14 -4 -11 11 -15 19 -9 19 6 0 16 -7 23 -15z"/>
<path d="M7611 9694 c-21 -27 -29 -70 -11 -59 6 3 10 12 10 19 0 7 10 21 23
32 22 19 22 19 5 -1 -12 -15 -14 -25 -6 -38 5 -11 7 -32 4 -48 -4 -21 -2 -29
9 -29 18 0 45 39 45 65 0 16 2 17 10 5 17 -26 11 -48 -21 -85 -37 -42 -20 -47
22 -6 23 23 29 38 29 71 0 33 -6 48 -29 71 -36 36 -63 37 -90 3z"/>
<path d="M6682 9540 c0 -14 2 -19 5 -12 2 6 2 18 0 25 -3 6 -5 1 -5 -13z"/>
<path d="M6540 9509 c0 -5 9 -9 20 -9 11 0 20 2 20 4 0 2 -9 6 -20 9 -11 3
-20 1 -20 -4z"/>
<path d="M6498 9493 c7 -3 16 -2 19 1 4 3 -2 6 -13 5 -11 0 -14 -3 -6 -6z"/>
<path d="M6100 7988 c19 -5 50 -16 68 -24 48 -21 39 -6 -10 16 -24 11 -54 19
-68 19 -21 -1 -19 -3 10 -11z"/>
<path d="M5410 7905 c-7 -9 -10 -18 -7 -21 3 -3 10 4 17 15 13 25 8 27 -10 6z"/>
<path d="M5321 7876 c-40 -22 -93 -127 -63 -126 20 1 102 96 102 118 0 6 6 13
13 15 6 3 3 6 -8 6 -11 0 -31 -6 -44 -13z"/>
<path d="M6165 7857 c-21 -51 -18 -59 6 -14 11 22 18 41 15 44 -3 4 -13 -10
-21 -30z"/>
<path d="M2580 9327 c-15 -7 -31 -29 -39 -54 -13 -37 -13 -43 3 -68 16 -24 21
-26 59 -20 56 10 77 30 77 75 0 25 -7 43 -23 58 -27 25 -42 27 -77 9z"/>
<path d="M3720 9305 c0 -8 5 -15 10 -15 6 0 10 7 10 15 0 8 -4 15 -10 15 -5 0
-10 -7 -10 -15z"/>
<path d="M3558 9023 c-37 -15 -50 -37 -26 -45 21 -7 68 22 68 43 0 10 -1 19
-2 18 -2 0 -20 -7 -40 -16z"/>
<path d="M2245 8760 c10 -11 20 -20 23 -20 3 0 -3 9 -13 20 -10 11 -20 20 -23
20 -3 0 3 -9 13 -20z"/>
<path d="M3850 8748 c0 -19 2 -20 10 -8 13 19 13 30 0 30 -5 0 -10 -10 -10
-22z"/>
<path d="M3647 8703 c-17 -38 -10 -63 19 -63 10 0 14 14 14 50 0 28 -4 50 -8
50 -4 0 -15 -17 -25 -37z"/>
<path d="M3784 8692 c-16 -10 -30 -57 -14 -47 7 4 17 1 22 -6 7 -10 8 -6 5 13
-2 15 -1 25 3 23 4 -3 13 2 20 10 10 12 9 15 -6 15 -11 0 -24 -4 -30 -8z"/>
<path d="M4117 8153 c-4 -3 -7 -11 -7 -17 0 -6 5 -5 12 2 6 6 9 14 7 17 -3 3
-9 2 -12 -2z"/>
<path d="M2852 7958 c-17 -17 -15 -73 2 -87 8 -7 32 -11 53 -9 33 3 38 6 41
31 7 58 -59 102 -96 65z"/>
<path d="M7338 8429 c-22 -12 -33 -71 -19 -97 6 -11 21 -24 33 -28 50 -16 81
89 36 120 -26 18 -27 19 -50 5z"/>
<path d="M7502 8170 c0 -14 2 -19 5 -12 2 6 2 18 0 25 -3 6 -5 1 -5 -13z"/>
<path d="M10846 8201 c-3 -4 5 -30 18 -57 l23 -48 7 37 c4 21 2 45 -4 57 -11
21 -35 27 -44 11z"/>
<path d="M1446 7603 c-9 -9 -7 -33 3 -33 12 0 22 28 12 34 -5 3 -11 3 -15 -1z"/>
<path d="M2305 7280 c-3 -5 -2 -10 4 -10 5 0 13 5 16 10 3 6 2 10 -4 10 -5 0
-13 -4 -16 -10z"/>
<path d="M9842 7398 c-8 -8 -8 -17 -1 -31 11 -19 11 -19 25 2 22 31 2 55 -24
29z"/>
<path d="M4884 7039 c-10 -17 23 -46 37 -32 7 7 9 19 6 27 -7 18 -33 21 -43 5z"/>
<path d="M4766 7014 c-11 -11 -14 -20 -8 -26 15 -15 54 1 50 20 -4 23 -23 25
-42 6z"/>
<path d="M5015 7000 c-7 -12 12 -40 27 -40 16 0 21 32 7 41 -18 12 -26 11 -34
-1z"/>
<path d="M4850 6950 c0 -13 7 -20 20 -20 13 0 20 7 20 20 0 13 -7 20 -20 20
-13 0 -20 -7 -20 -20z"/>
<path d="M2570 6676 c0 -9 7 -16 16 -16 17 0 14 22 -4 28 -7 2 -12 -3 -12 -12z"/>
<path d="M10050 6220 c0 -13 5 -18 15 -14 8 4 15 12 15 20 0 8 -7 14 -15 14
-8 0 -15 -9 -15 -20z"/>
<path d="M4420 5741 c0 -5 5 -13 10 -16 6 -3 10 -2 10 4 0 5 -4 13 -10 16 -5
3 -10 2 -10 -4z"/>
<path d="M3930 5479 c-27 -25 -33 -33 -15 -21 28 18 73 62 64 62 -2 0 -24 -19
-49 -41z"/>
<path d="M8656 5761 c-38 -40 -24 -62 15 -25 28 26 38 54 21 54 -5 0 -21 -13
-36 -29z"/>
<path d="M5280 4665 c-25 -14 -25 -14 -2 -15 12 0 22 -5 22 -11 0 -5 5 -7 10
-4 12 7 14 45 3 45 -5 -1 -19 -7 -33 -15z"/>
<path d="M7590 4843 c-77 -28 -59 -133 23 -133 38 0 50 7 66 38 17 31 5 60
-32 83 -34 20 -34 20 -57 12z m30 -69 c0 -8 -7 -14 -15 -14 -15 0 -21 21 -9
33 10 9 24 -2 24 -19z"/>
<path d="M8515 4468 c-2 -7 -6 -34 -10 -60 -6 -46 -5 -48 19 -48 20 0 26 5 26
23 0 12 3 39 6 60 6 33 4 37 -15 37 -12 0 -23 -6 -26 -12z"/>
<path d="M7563 4250 c-31 -18 -33 -23 -33 -75 0 -43 4 -56 19 -65 33 -17 66
-11 94 18 38 39 44 80 17 115 -25 32 -53 34 -97 7z m52 -50 c3 -6 -1 -13 -10
-16 -19 -8 -30 0 -20 15 8 14 22 14 30 1z"/>
<path d="M6680 3800 c0 -15 21 -23 32 -12 6 6 2 11 -11 15 -12 3 -21 1 -21 -3z"/>
<path d="M8493 3863 c9 -2 23 -2 30 0 6 3 -1 5 -18 5 -16 0 -22 -2 -12 -5z"/>
<path d="M3050 3435 c0 -9 5 -15 11 -13 6 2 11 8 11 13 0 5 -5 11 -11 13 -6 2
-11 -4 -11 -13z"/>
<path d="M3376 1797 c3 -10 9 -15 12 -12 3 3 0 11 -7 18 -10 9 -11 8 -5 -6z"/>
<path d="M3943 1747 c4 -10 7 -27 7 -38 0 -10 4 -19 9 -19 10 0 -3 58 -15 69
-4 3 -4 -2 -1 -12z"/>
<path d="M7018 2063 c7 -3 16 -2 19 1 4 3 -2 6 -13 5 -11 0 -14 -3 -6 -6z"/>
<path d="M4585 1540 c-3 -5 -2 -10 4 -10 5 0 13 5 16 10 3 6 2 10 -4 10 -5 0
-13 -4 -16 -10z"/>
<path d="M1730 1565 c-58 -30 -98 -54 -90 -54 20 -1 148 62 180 88 36 30 27
26 -90 -34z"/>
<path d="M1011 8588 c-1 -16 4 -28 9 -28 12 0 12 8 0 35 -8 18 -9 17 -9 -7z"/>
<path d="M1310 8490 c0 -5 5 -10 10 -10 6 0 10 5 10 10 0 6 -4 10 -10 10 -5 0
-10 -4 -10 -10z"/>
<path d="M1578 6939 c-25 -14 -23 -33 2 -19 11 6 37 7 62 4 82 -14 171 -124
204 -255 9 -35 26 -100 39 -144 12 -44 33 -142 46 -217 13 -76 26 -135 30
-130 10 11 -25 242 -55 362 -27 106 -69 222 -92 250 -6 8 -15 25 -18 37 -8 24
-72 90 -109 110 -27 15 -86 16 -109 2z"/>
<path d="M1675 6654 c-14 -14 -16 -31 -13 -81 4 -69 31 -118 64 -118 16 0 20
9 22 48 3 51 -20 138 -42 157 -11 8 -18 6 -31 -6z"/>
<path d="M1820 6413 c-51 -19 -65 -66 -25 -85 19 -9 29 -7 50 6 35 23 54 64
34 77 -15 10 -36 10 -59 2z"/>
<path d="M1592 6368 c-30 -30 2 -68 57 -68 20 0 42 5 49 12 18 18 14 46 -7 58
-27 14 -84 13 -99 -2z"/>
<path d="M1743 6263 c-32 -12 -2 -214 33 -227 50 -19 58 82 14 182 -23 52 -25
55 -47 45z"/>
<path d="M5223 34 c-21 -33 -21 -34 -3 -34 12 0 22 9 26 25 10 40 0 44 -23 9z"/>
</g>
</svg>
